Ubuntu-LI.ufo
<glyph name="quotesingle" format="2">
	<unicode hex="0027"/>
	<advance width="206"/>
	<outline>
		<contour>
			<point x="231" y="518" type="line"/>
			<point x="259" y="582"/>
			<point x="282" y="656"/>
			<point x="299" y="722" type="curve" smooth="yes"/>
			<point x="308" y="760" type="line"/>
			<point x="238" y="760" type="line"/>
			<point x="229" y="723" type="line" smooth="yes"/>
			<point x="212" y="656"/>
			<point x="203" y="585"/>
			<point x="198" y="518" type="curve"/>
		</contour>
	</outline>
</glyph>
<glyph name="parenleft" format="2">
	<unicode hex="0028"/>
	<advance width="302"/>
	<outline>
		<contour>
			<point x="193" y="-179" type="line"/>
			<point x="161" y="-103"/>
			<point x="128" y="48"/>
			<point x="128" y="128" type="qcurve"/>
			<point x="128" y="217"/>
			<point x="167" y="395"/>
			<point x="244" y="564"/>
			<point x="356" y="718"/>
			<point x="429" y="783" type="qcurve"/>
			<point x="474" y="750" type="line"/>
			<point x="405" y="688"/>
			<point x="299" y="542"/>
			<point x="227" y="383"/>
			<point x="190" y="216"/>
			<point x="190" y="133" type="qcurve"/>
			<point x="190" y="61"/>
			<point x="216" y="-84"/>
			<point x="243" y="-151" type="qcurve"/>
		</contour>
	</outline>
</glyph>
<glyph name="comma" format="2">
	<unicode hex="002C"/>
	<advance width="238"/>
	<outline>
		<contour>
			<point x="13" y="-133" type="line"/>
			<point x="33" y="-108"/>
			<point x="67" y="-46"/>
			<point x="92" y="17"/>
			<point x="107" y="74"/>
			<point x="110" y="95" type="qcurve"/>
			<point x="180" y="95" type="line"/>
			<point x="174" y="62"/>
			<point x="149" y="-8"/>
			<point x="114" y="-74"/>
			<point x="74" y="-134"/>
			<point x="53" y="-157" type="qcurve"/>
		</contour>
	</outline>
	<guideline x="173"/>
</glyph>
<glyph name="one" format="2">
	<unicode hex="0031"/>
	<advance width="564"/>
	<outline>
		<contour>
			<point x="448" y="592" type="line"/>
			<point x="416" y="560"/>
			<point x="320" y="508"/>
			<point x="269" y="492" type="qcurve"/>
			<point x="257" y="550" type="line"/>
			<point x="315" y="571"/>
			<point x="431" y="637"/>
			<point x="488" y="693" type="qcurve"/>
			<point x="536" y="693" type="line"/>
			<point x="370" y="0" type="line"/>
			<point x="306" y="0" type="line"/>
		</contour>
	</outline>
	<guideline x="168"/>
</glyph>
<glyph name="four" format="2">
	<unicode hex="0034"/>
	<advance width="564"/>
	<outline>
		<contour>
			<point x="180" y="242" type="line"/>
			<point x="261" y="378"/>
			<point x="392" y="520"/>
			<point x="502" y="607" type="curve"/>
			<point x="414" y="242" type="line"/>
		</contour>
		<contour>
			<point x="95" y="188" type="line"/>
			<point x="402" y="188" type="line"/>
			<point x="358" y="0" type="line"/>
			<point x="422" y="0" type="line"/>
			<point x="466" y="188" type="line"/>
			<point x="550" y="188" type="line"/>
			<point x="563" y="242" type="line"/>
			<point x="478" y="242" type="line"/>
			<point x="586" y="693" type="line"/>
			<point x="521" y="693" type="line"/>
			<point x="354" y="562"/>
			<point x="188" y="370"/>
			<point x="105" y="227" type="curve"/>
		</contour>
	</outline>
</glyph>
<glyph name="five" format="2">
	<unicode hex="0035"/>
	<advance width="564"/>
	<outline>
		<contour>
			<point x="107" y="80" type="line"/>
			<point x="136" y="63"/>
			<point x="205" y="45"/>
			<point x="240" y="45" type="qcurve"/>
			<point x="280" y="45"/>
			<point x="356" y="67"/>
			<point x="415" y="110"/>
			<point x="451" y="176"/>
			<point x="451" y="220" type="qcurve"/>
			<point x="451" y="257"/>
			<point x="424" y="307"/>
			<point x="382" y="341"/>
			<point x="328" y="359"/>
			<point x="276" y="369"/>
			<point x="229" y="371"/>
			<point x="214" y="372" type="qcurve"/>
			<point x="230" y="417"/>
			<point x="256" y="495"/>
			<point x="280" y="570"/>
			<point x="303" y="648"/>
			<point x="314" y="693" type="qcurve"/>
			<point x="616" y="693" type="line"/>
			<point x="603" y="636" type="line"/>
			<point x="359" y="636" type="line"/>
			<point x="352" y="613"/>
			<point x="335" y="557"/>
			<point x="317" y="499"/>
			<point x="298" y="444"/>
			<point x="291" y="423" type="qcurve"/>
			<point x="342" y="418"/>
			<point x="427" y="391"/>
			<point x="488" y="343"/>
			<point x="521" y="274"/>
			<point x="521" y="228" type="qcurve"/>
			<point x="521" y="167"/>
			<point x="475" y="76"/>
			<point x="399" y="15"/>
			<point x="298" y="-15"/>
			<point x="244" y="-15" type="qcurve"/>
			<point x="202" y="-15"/>
			<point x="119" y="2"/>
			<point x="80" y="21" type="qcurve"/>
		</contour>
	</outline>
</glyph>
<glyph name="nine" format="2">
	<unicode hex="0039"/>
	<advance width="564"/>
	<outline>
		<contour>
			<point x="339" y="279" type="curve" smooth="yes"/>
			<point x="213" y="279"/>
			<point x="162" y="350"/>
			<point x="162" y="438" type="curve" smooth="yes"/>
			<point x="162" y="611"/>
			<point x="285" y="708"/>
			<point x="412" y="708" type="curve" smooth="yes"/>
			<point x="505" y="708"/>
			<point x="590" y="657"/>
			<point x="590" y="507" type="curve" smooth="yes"/>
			<point x="590" y="226"/>
			<point x="404" y="-2"/>
			<point x="114" y="-2" type="curve" smooth="yes"/>
			<point x="108" y="-2"/>
			<point x="97" y="-2"/>
			<point x="88" y="-1" type="curve"/>
			<point x="100" y="56" type="line"/>
			<point x="303" y="50"/>
			<point x="435" y="163"/>
			<point x="491" y="320" type="curve"/>
			<point x="429" y="291"/>
			<point x="370" y="279"/>
		</contour>
		<contour>
			<point x="412" y="651" type="curve" smooth="yes"/>
			<point x="315" y="651"/>
			<point x="232" y="581"/>
			<point x="232" y="449" type="curve" smooth="yes"/>
			<point x="232" y="389"/>
			<point x="266" y="339"/>
			<point x="350" y="339" type="curve" smooth="yes"/>
			<point x="394" y="339"/>
			<point x="447" y="350"/>
			<point x="508" y="379" type="curve"/>
			<point x="518" y="420"/>
			<point x="523" y="464"/>
			<point x="523" y="509" type="curve" smooth="yes"/>
			<point x="523" y="602"/>
			<point x="483" y="651"/>
		</contour>
	</outline>
	<guideline x="158"/>
	<guideline x="228"/>
	<guideline y="-2"/>
	<guideline y="52"/>
</glyph>
<glyph name="question" format="2">
	<unicode hex="003F"/>
	<advance width="365"/>
	<outline>
		<contour>
			<point x="214" y="213" type="line"/>
			<point x="214" y="365"/>
			<point x="467" y="409"/>
			<point x="467" y="575" type="curve" smooth="yes"/>
			<point x="467" y="674"/>
			<point x="397" y="708"/>
			<point x="318" y="708" type="curve" smooth="yes"/>
			<point x="269" y="708"/>
			<point x="217" y="695"/>
			<point x="177" y="676" type="curve"/>
			<point x="185" y="621" type="line"/>
			<point x="217" y="636"/>
			<point x="264" y="650"/>
			<point x="306" y="650" type="curve" smooth="yes"/>
			<point x="355" y="650"/>
			<point x="397" y="631"/>
			<point x="397" y="573" type="curve" smooth="yes"/>
			<point x="397" y="521"/>
			<point x="371" y="484"/>
			<point x="298" y="429" type="curve" smooth="yes"/>
			<point x="286" y="420" type="line" smooth="yes"/>
			<point x="215" y="363"/>
			<point x="161" y="310"/>
			<point x="159" y="213" type="curve"/>
		</contour>
		<contour>
			<point x="168" y="-12" type="curve" smooth="yes"/>
			<point x="133" y="-12"/>
			<point x="118" y="11"/>
			<point x="118" y="36" type="curve" smooth="yes"/>
			<point x="118" y="65"/>
			<point x="139" y="97"/>
			<point x="175" y="97" type="curve" smooth="yes"/>
			<point x="210" y="97"/>
			<point x="225" y="74"/>
			<point x="225" y="49" type="curve" smooth="yes"/>
			<point x="225" y="20"/>
			<point x="204" y="-12"/>
		</contour>
	</outline>
	<guideline y="213"/>
	<guideline y="650"/>
</glyph>
<glyph name="C" format="2">
	<unicode hex="0043"/>
	<advance width="610"/>
	<outline>
		<contour>
			<point x="578" y="91" type="line"/>
			<point x="550" y="76"/>
			<point x="497" y="46"/>
			<point x="389" y="46" type="curve" smooth="yes"/>
			<point x="268" y="46"/>
			<point x="210" y="120"/>
			<point x="210" y="255" type="curve" smooth="yes"/>
			<point x="210" y="496"/>
			<point x="361" y="647"/>
			<point x="528" y="647" type="curve" smooth="yes"/>
			<point x="581" y="647"/>
			<point x="632" y="633"/>
			<point x="681" y="603" type="curve"/>
			<point x="712" y="665" type="line"/>
			<point x="657" y="695"/>
			<point x="604" y="708"/>
			<point x="542" y="708" type="curve" smooth="yes"/>
			<point x="329" y="708"/>
			<point x="138" y="539"/>
			<point x="138" y="253" type="curve" smooth="yes"/>
			<point x="138" y="64"/>
			<point x="242" y="-15"/>
			<point x="391" y="-15" type="curve" smooth="yes"/>
			<point x="458" y="-15"/>
			<point x="533" y="2"/>
			<point x="587" y="31" type="curve"/>
		</contour>
	</outline>
</glyph>
<glyph name="F" format="2">
	<unicode hex="0046"/>
	<advance width="500"/>
	<outline>
		<contour>
			<point x="83" y="0" type="line"/>
			<point x="151" y="0" type="line"/>
			<point x="231" y="331" type="line"/>
			<point x="511" y="331" type="line"/>
			<point x="525" y="390" type="line"/>
			<point x="242" y="390" type="line"/>
			<point x="302" y="634" type="line"/>
			<point x="619" y="634" type="line"/>
			<point x="632" y="693" type="line"/>
			<point x="249" y="693" type="line"/>
		</contour>
	</outline>
</glyph>
<glyph name="J" format="2">
	<unicode hex="004A"/>
	<advance width="450"/>
	<outline>
		<contour>
			<point x="18" y="43" type="line"/>
			<point x="58" y="9"/>
			<point x="114" y="-15"/>
			<point x="183" y="-15" type="curve" smooth="yes"/>
			<point x="293" y="-15"/>
			<point x="379" y="28"/>
			<point x="417" y="188" type="curve" smooth="yes"/>
			<point x="537" y="693" type="line"/>
			<point x="469" y="693" type="line"/>
			<point x="349" y="196" type="line" smooth="yes"/>
			<point x="318" y="68"/>
			<point x="257" y="46"/>
			<point x="186" y="46" type="curve" smooth="yes"/>
			<point x="123" y="46"/>
			<point x="73" y="75"/>
			<point x="53" y="95" type="curve"/>
		</contour>
	</outline>
</glyph>
<glyph name="M" format="2">
	<unicode hex="004D"/>
	<advance width="831"/>
	<outline>
		<contour>
			<point x="136" y="0" type="line"/>
			<point x="193" y="210"/>
			<point x="255" y="417"/>
			<point x="313" y="592" type="curve"/>
			<point x="338" y="502"/>
			<point x="393" y="211"/>
			<point x="409" y="100" type="curve"/>
			<point x="469" y="100" type="line"/>
			<point x="527" y="191"/>
			<point x="740" y="514"/>
			<point x="800" y="591" type="curve"/>
			<point x="775" y="416"/>
			<point x="741" y="216"/>
			<point x="695" y="0" type="curve"/>
			<point x="765" y="0" type="line"/>
			<point x="811" y="236"/>
			<point x="848" y="451"/>
			<point x="873" y="693" type="curve"/>
			<point x="803" y="693" type="line"/>
			<point x="706" y="562"/>
			<point x="554" y="331"/>
			<point x="454" y="178" type="curve"/>
			<point x="433" y="319"/>
			<point x="390" y="534"/>
			<point x="349" y="693" type="curve"/>
			<point x="281" y="693" type="line"/>
			<point x="213" y="486"/>
			<point x="135" y="248"/>
			<point x="68" y="0" type="curve"/>
		</contour>
	</outline>
	<guideline y="149"/>
	<guideline y="536"/>
</glyph>
<glyph name="S" format="2">
	<unicode hex="0053"/>
	<advance width="487"/>
	<outline>
		<contour>
			<point x="48" y="34" type="line"/>
			<point x="100" y="3"/>
			<point x="163" y="-15"/>
			<point x="226" y="-15" type="curve" smooth="yes"/>
			<point x="418" y="-15"/>
			<point x="499" y="93"/>
			<point x="499" y="198" type="curve" smooth="yes"/>
			<point x="499" y="409"/>
			<point x="241" y="355"/>
			<point x="241" y="517" type="curve" smooth="yes"/>
			<point x="241" y="613"/>
			<point x="325" y="650"/>
			<point x="412" y="650" type="curve" smooth="yes"/>
			<point x="463" y="650"/>
			<point x="508" y="640"/>
			<point x="554" y="612" type="curve"/>
			<point x="589" y="669" type="line"/>
			<point x="530" y="698"/>
			<point x="481" y="708"/>
			<point x="424" y="708" type="curve" smooth="yes"/>
			<point x="251" y="708"/>
			<point x="171" y="607"/>
			<point x="171" y="510" type="curve" smooth="yes"/>
			<point x="171" y="308"/>
			<point x="428" y="355"/>
			<point x="428" y="195" type="curve" smooth="yes"/>
			<point x="428" y="88"/>
			<point x="335" y="44"/>
			<point x="240" y="44" type="curve" smooth="yes"/>
			<point x="181" y="44"/>
			<point x="122" y="64"/>
			<point x="83" y="93" type="curve"/>
		</contour>
	</outline>
</glyph>
<glyph name="V" format="2">
	<unicode hex="0056"/>
	<advance width="595"/>
	<outline>
		<contour>
			<point x="330" y="0" type="curve"/>
			<point x="267" y="0" type="line"/>
			<point x="229" y="188"/>
			<point x="202" y="349"/>
			<point x="170" y="693" type="curve"/>
			<point x="236" y="693" type="line"/>
			<point x="261" y="416"/>
			<point x="283" y="234"/>
			<point x="314" y="76" type="curve"/>
			<point x="441" y="249"/>
			<point x="565" y="462"/>
			<point x="679" y="693" type="curve"/>
			<point x="755" y="693" type="line"/>
			<point x="587" y="381"/>
			<point x="460" y="173"/>
		</contour>
	</outline>
</glyph>
<glyph name="bracketleft" format="2">
	<unicode hex="005B"/>
	<advance width="305"/>
	<outline>
		<contour>
			<point x="291" y="783" type="line"/>
			<point x="487" y="783" type="line"/>
			<point x="476" y="733" type="line"/>
			<point x="340" y="733" type="line"/>
			<point x="130" y="-135" type="line"/>
			<point x="267" y="-135" type="line"/>
			<point x="254" y="-185" type="line"/>
			<point x="58" y="-185" type="line"/>
		</contour>
	</outline>
</glyph>
<glyph name="bracketright" format="2">
	<unicode hex="005D"/>
	<advance width="306"/>
	<outline>
		<contour>
			<point x="-52" y="-185" type="line"/>
			<point x="145" y="-185" type="line"/>
			<point x="378" y="783" type="line"/>
			<point x="182" y="783" type="line"/>
			<point x="169" y="733" type="line"/>
			<point x="306" y="733" type="line"/>
			<point x="96" y="-135" type="line"/>
			<point x="-40" y="-135" type="line"/>
		</contour>
	</outline>
</glyph>
<glyph name="grave" format="2">
	<unicode hex="0060"/>
	<advance width="336"/>
	<outline>
		<contour>
			<point x="266" y="773" type="line"/>
			<point x="412" y="618" type="line"/>
			<point x="377" y="583" type="line"/>
			<point x="213" y="715" type="line"/>
		</contour>
	</outline>
	<guideline y="773"/>
</glyph>
<glyph name="b" format="2">
	<unicode hex="0062"/>
	<advance width="523"/>
	<outline>
		<contour>
			<point x="154" y="59" type="curve"/>
			<point x="238" y="413" type="line"/>
			<point x="284" y="449"/>
			<point x="335" y="469"/>
			<point x="378" y="469" type="curve" smooth="yes"/>
			<point x="441" y="469"/>
			<point x="489" y="427"/>
			<point x="489" y="331" type="curve" smooth="yes"/>
			<point x="489" y="201"/>
			<point x="399" y="48"/>
			<point x="225" y="48" type="curve" smooth="yes"/>
			<point x="201" y="48"/>
			<point x="177" y="52"/>
		</contour>
		<contour>
			<point x="257" y="489" type="curve"/>
			<point x="325" y="776" type="line"/>
			<point x="257" y="764" type="line"/>
			<point x="78" y="17" type="line"/>
			<point x="120" y="-2"/>
			<point x="167" y="-12"/>
			<point x="213" y="-12" type="curve" smooth="yes"/>
			<point x="437" y="-12"/>
			<point x="555" y="165"/>
			<point x="555" y="336" type="curve" smooth="yes"/>
			<point x="555" y="454"/>
			<point x="501" y="529"/>
			<point x="388" y="529" type="curve" smooth="yes"/>
			<point x="344" y="529"/>
			<point x="297" y="515"/>
		</contour>
	</outline>
	<guideline x="-868"/>
	<guideline x="261"/>
</glyph>
<glyph name="f" format="2">
	<unicode hex="0066"/>
	<advance width="355"/>
	<outline>
		<contour>
			<point x="257" y="461" type="line"/>
			<point x="432" y="461" type="line"/>
			<point x="444" y="517" type="line"/>
			<point x="271" y="517" type="line"/>
			<point x="285" y="571" type="line" smooth="yes"/>
			<point x="315" y="686"/>
			<point x="365" y="719"/>
			<point x="433" y="719" type="curve" smooth="yes"/>
			<point x="466" y="719"/>
			<point x="488" y="713"/>
			<point x="516" y="704" type="curve"/>
			<point x="547" y="756" type="line"/>
			<point x="519" y="767"/>
			<point x="488" y="776"/>
			<point x="443" y="776" type="curve" smooth="yes"/>
			<point x="349" y="776"/>
			<point x="258" y="732"/>
			<point x="220" y="573" type="curve" smooth="yes"/>
			<point x="96" y="58" type="line" smooth="yes"/>
			<point x="74" y="-32"/>
			<point x="53" y="-90"/>
			<point x="-14" y="-180" type="curve"/>
			<point x="43" y="-189" type="line"/>
			<point x="112" y="-110"/>
			<point x="140" y="-26"/>
			<point x="171" y="102" type="curve" smooth="yes"/>
		</contour>
	</outline>
	<guideline x="364"/>
	<guideline y="104"/>
</glyph>
<glyph name="h" format="2">
	<unicode hex="0068"/>
	<advance width="545"/>
	<outline>
		<contour>
			<point x="148" y="0" type="line"/>
			<point x="83" y="0" type="line"/>
			<point x="265" y="764" type="line"/>
			<point x="333" y="776" type="line"/>
			<point x="267" y="503" type="line"/>
			<point x="330" y="529"/>
			<point x="386" y="529" type="qcurve"/>
			<point x="420" y="529"/>
			<point x="478" y="509"/>
			<point x="522" y="469"/>
			<point x="547" y="408"/>
			<point x="547" y="366" type="qcurve"/>
			<point x="547" y="340"/>
			<point x="539" y="285"/>
			<point x="532" y="257" type="qcurve"/>
			<point x="470" y="0" type="line"/>
			<point x="405" y="0" type="line"/>
			<point x="460" y="230" type="line"/>
			<point x="468" y="263"/>
			<point x="482" y="331"/>
			<point x="482" y="362" type="qcurve"/>
			<point x="482" y="392"/>
			<point x="463" y="433"/>
			<point x="432" y="458"/>
			<point x="390" y="469"/>
			<point x="367" y="469" type="qcurve"/>
			<point x="338" y="469"/>
			<point x="279" y="457"/>
			<point x="253" y="448" type="qcurve"/>
		</contour>
	</outline>
</glyph>
<glyph name="j" format="2">
	<unicode hex="006A"/>
	<advance width="235"/>
	<outline>
		<contour>
			<point x="-86" y="-115" type="line"/>
			<point x="-70" y="-123"/>
			<point x="-41" y="-131"/>
			<point x="-22" y="-131" type="qcurve"/>
			<point x="5" y="-131"/>
			<point x="43" y="-109"/>
			<point x="72" y="-70"/>
			<point x="91" y="-16"/>
			<point x="99" y="16" type="qcurve"/>
			<point x="218" y="517" type="line"/>
			<point x="283" y="517" type="line"/>
			<point x="166" y="28" type="line"/>
			<point x="153" y="-26"/>
			<point x="122" y="-107"/>
			<point x="77" y="-161"/>
			<point x="14" y="-188"/>
			<point x="-30" y="-188" type="qcurve"/>
			<point x="-55" y="-188"/>
			<point x="-90" y="-177"/>
			<point x="-101" y="-170" type="qcurve"/>
		</contour>
		<contour>
			<point x="246" y="668" type="qcurve"/>
			<point x="246" y="694"/>
			<point x="275" y="721"/>
			<point x="292" y="721" type="qcurve"/>
			<point x="312" y="721"/>
			<point x="334" y="696"/>
			<point x="334" y="676" type="qcurve"/>
			<point x="334" y="652"/>
			<point x="302" y="626"/>
			<point x="286" y="626" type="qcurve"/>
			<point x="266" y="626"/>
			<point x="246" y="649"/>
		</contour>
	</outline>
</glyph>
<glyph name="k" format="2">
	<unicode hex="006B"/>
	<advance width="499"/>
	<outline>
		<contour>
			<point x="267" y="764" type="line"/>
			<point x="335" y="776" type="line"/>
			<point x="220" y="298" type="line"/>
			<point x="256" y="322"/>
			<point x="331" y="383"/>
			<point x="400" y="444"/>
			<point x="456" y="499"/>
			<point x="472" y="517" type="qcurve"/>
			<point x="551" y="517" type="line"/>
			<point x="533" y="494"/>
			<point x="466" y="428"/>
			<point x="391" y="360"/>
			<point x="318" y="301"/>
			<point x="294" y="287" type="qcurve"/>
			<point x="328" y="261"/>
			<point x="393" y="191"/>
			<point x="447" y="113"/>
			<point x="490" y="34"/>
			<point x="502" y="0" type="qcurve"/>
			<point x="432" y="0" type="line"/>
			<point x="388" y="94"/>
			<point x="276" y="229"/>
			<point x="214" y="271" type="qcurve"/>
			<point x="148" y="0" type="line"/>
			<point x="83" y="0" type="line"/>
		</contour>
	</outline>
</glyph>
<glyph name="n" format="2">
	<unicode hex="006E"/>
	<advance width="546"/>
	<outline>
		<contour>
			<point x="83" y="0" type="line"/>
			<point x="148" y="0" type="line"/>
			<point x="257" y="453" type="line"/>
			<point x="291" y="461"/>
			<point x="328" y="467"/>
			<point x="363" y="467" type="curve" smooth="yes"/>
			<point x="427" y="467"/>
			<point x="484" y="444"/>
			<point x="483" y="362" type="curve" smooth="yes"/>
			<point x="482" y="321"/>
			<point x="471" y="274"/>
			<point x="461" y="230" type="curve" smooth="yes"/>
			<point x="406" y="0" type="line"/>
			<point x="471" y="0" type="line"/>
			<point x="533" y="257" type="line" smooth="yes"/>
			<point x="542" y="294"/>
			<point x="548" y="331"/>
			<point x="548" y="366" type="curve" smooth="yes"/>
			<point x="548" y="490"/>
			<point x="467" y="527"/>
			<point x="372" y="527" type="curve" smooth="yes"/>
			<point x="315" y="527"/>
			<point x="254" y="514"/>
			<point x="202" y="499" type="curve"/>
		</contour>
	</outline>
	<guideline x="481"/>
	<guideline y="527"/>
</glyph>
<glyph name="o" format="2">
	<unicode hex="006F"/>
	<advance width="526"/>
	<outline>
		<contour>
			<point x="164" y="166" type="curve" smooth="yes"/>
			<point x="164" y="371"/>
			<point x="285" y="469"/>
			<point x="380" y="469" type="curve" smooth="yes"/>
			<point x="441" y="469"/>
			<point x="492" y="428"/>
			<point x="492" y="350" type="curve" smooth="yes"/>
			<point x="492" y="145"/>
			<point x="371" y="47"/>
			<point x="276" y="47" type="curve" smooth="yes"/>
			<point x="215" y="47"/>
			<point x="164" y="88"/>
		</contour>
		<contour>
			<point x="558" y="355" type="curve" smooth="yes"/>
			<point x="558" y="468"/>
			<point x="477" y="528"/>
			<point x="384" y="528" type="curve" smooth="yes"/>
			<point x="254" y="528"/>
			<point x="98" y="412"/>
			<point x="98" y="162" type="curve" smooth="yes"/>
			<point x="98" y="48"/>
			<point x="179" y="-12"/>
			<point x="272" y="-12" type="curve" smooth="yes"/>
			<point x="402" y="-12"/>
			<point x="558" y="104"/>
		</contour>
	</outline>
	<guideline y="66"/>
	<guideline y="454"/>
	<guideline y="533"/>
</glyph>
<glyph name="p" format="2">
	<unicode hex="0070"/>
	<advance width="519"/>
	<outline>
		<contour>
			<point x="164" y="60" type="line"/>
			<point x="195" y="51"/>
			<point x="227" y="51" type="qcurve"/>
			<point x="289" y="51"/>
			<point x="385" y="100"/>
			<point x="451" y="179"/>
			<point x="485" y="278"/>
			<point x="485" y="329" type="qcurve"/>
			<point x="485" y="404"/>
			<point x="419" y="473"/>
			<point x="353" y="473" type="qcurve"/>
			<point x="330" y="473"/>
			<point x="283" y="465"/>
			<point x="258" y="458" type="qcurve"/>
		</contour>
		<contour>
			<point x="202" y="496" type="line"/>
			<point x="244" y="511"/>
			<point x="328" y="529"/>
			<point x="369" y="529" type="qcurve"/>
			<point x="551" y="529"/>
			<point x="551" y="339" type="qcurve"/>
			<point x="551" y="272"/>
			<point x="507" y="146"/>
			<point x="422" y="49"/>
			<point x="299" y="-9"/>
			<point x="220" y="-9" type="qcurve"/>
			<point x="181" y="-9"/>
			<point x="148" y="0" type="qcurve"/>
			<point x="104" y="-185" type="line"/>
			<point x="38" y="-185" type="line"/>
		</contour>
	</outline>
	<guideline y="-9"/>
</glyph>
<glyph name="s" format="2">
	<unicode hex="0073"/>
	<advance width="400"/>
	<outline>
		<contour>
			<point x="48" y="23" type="line"/>
			<point x="91" y="-1"/>
			<point x="145" y="-12"/>
			<point x="197" y="-12" type="curve" smooth="yes"/>
			<point x="297" y="-12"/>
			<point x="391" y="37"/>
			<point x="391" y="155" type="curve" smooth="yes"/>
			<point x="391" y="294"/>
			<point x="198" y="272"/>
			<point x="198" y="376" type="curve" smooth="yes"/>
			<point x="198" y="443"/>
			<point x="258" y="469"/>
			<point x="322" y="469" type="curve" smooth="yes"/>
			<point x="360" y="469"/>
			<point x="398" y="461"/>
			<point x="426" y="449" type="curve"/>
			<point x="452" y="507" type="line"/>
			<point x="414" y="522"/>
			<point x="371" y="529"/>
			<point x="328" y="529" type="curve" smooth="yes"/>
			<point x="229" y="529"/>
			<point x="135" y="483"/>
			<point x="135" y="368" type="curve" smooth="yes"/>
			<point x="135" y="218"/>
			<point x="329" y="247"/>
			<point x="329" y="141" type="curve" smooth="yes"/>
			<point x="329" y="76"/>
			<point x="272" y="48"/>
			<point x="204" y="48" type="curve" smooth="yes"/>
			<point x="158" y="48"/>
			<point x="125" y="56"/>
			<point x="76" y="82" type="curve"/>
		</contour>
	</outline>
	<guideline x="389"/>
</glyph>
<glyph name="y" format="2">
	<unicode hex="0079"/>
	<advance width="452"/>
	<outline>
		<contour>
			<point x="-59" y="-170" type="line"/>
			<point x="-29" y="-186"/>
			<point x="0" y="-188"/>
			<point x="24" y="-188" type="curve" smooth="yes"/>
			<point x="128" y="-188"/>
			<point x="221" y="-121"/>
			<point x="323" y="32" type="curve" smooth="yes"/>
			<point x="456" y="230"/>
			<point x="527" y="462"/>
			<point x="542" y="517" type="curve"/>
			<point x="478" y="517" type="line"/>
			<point x="458" y="439"/>
			<point x="384" y="231"/>
			<point x="264" y="41" type="curve"/>
			<point x="214" y="205"/>
			<point x="195" y="390"/>
			<point x="190" y="517" type="curve"/>
			<point x="122" y="517" type="line"/>
			<point x="127" y="348"/>
			<point x="160" y="158"/>
			<point x="216" y="-18" type="curve"/>
			<point x="161" y="-93"/>
			<point x="93" y="-131"/>
			<point x="25" y="-131" type="curve" smooth="yes"/>
			<point x="3" y="-131"/>
			<point x="-18" y="-126"/>
			<point x="-36" y="-116" type="curve"/>
		</contour>
	</outline>
</glyph>
<glyph name="braceleft" format="2">
	<unicode hex="007B"/>
	<advance width="305"/>
	<outline>
		<contour>
			<point x="241" y="-195" type="curve"/>
			<point x="255" y="-145" type="line"/>
			<point x="198" y="-145"/>
			<point x="168" y="-128"/>
			<point x="168" y="-85" type="curve" smooth="yes"/>
			<point x="168" y="-73"/>
			<point x="170" y="-57"/>
			<point x="175" y="-38" type="curve" smooth="yes"/>
			<point x="215" y="127" type="line" smooth="yes"/>
			<point x="220" y="149"/>
			<point x="226" y="175"/>
			<point x="226" y="199" type="curve" smooth="yes"/>
			<point x="226" y="232"/>
			<point x="219" y="263"/>
			<point x="186" y="283" type="curve"/>
			<point x="247" y="310"/>
			<point x="271" y="371"/>
			<point x="302" y="497" type="curve" smooth="yes"/>
			<point x="331" y="615" type="line" smooth="yes"/>
			<point x="354" y="709"/>
			<point x="398" y="723"/>
			<point x="464" y="723" type="curve"/>
			<point x="477" y="773" type="line"/>
			<point x="316" y="773"/>
			<point x="299" y="713"/>
			<point x="261" y="561" type="curve" smooth="yes"/>
			<point x="235" y="457" type="line" smooth="yes"/>
			<point x="221" y="401"/>
			<point x="197" y="313"/>
			<point x="120" y="313" type="curve"/>
			<point x="108" y="264" type="line"/>
			<point x="153" y="260"/>
			<point x="169" y="233"/>
			<point x="169" y="194" type="curve" smooth="yes"/>
			<point x="169" y="175"/>
			<point x="165" y="153"/>
			<point x="159" y="129" type="curve" smooth="yes"/>
			<point x="121" y="-25" type="line" smooth="yes"/>
			<point x="114" y="-52"/>
			<point x="110" y="-79"/>
			<point x="110" y="-93" type="curve" smooth="yes"/>
			<point x="110" y="-163"/>
			<point x="159" y="-195"/>
		</contour>
	</outline>
	<guideline x="138"/>
	<guideline x="35" y="0" angle="103.5"/>
</glyph>
<glyph name="cent" format="2">
	<unicode hex="00A2"/>
	<advance width="564"/>
	<outline>
		<contour>
			<point x="256" y="-109" type="line"/>
			<point x="315" y="-109" type="line"/>
			<point x="349" y="31" type="line"/>
			<point x="408" y="31"/>
			<point x="462" y="50"/>
			<point x="482" y="61" type="curve"/>
			<point x="478" y="119" type="line"/>
			<point x="442" y="99"/>
			<point x="398" y="88"/>
			<point x="357" y="88" type="curve" smooth="yes"/>
			<point x="282" y="88"/>
			<point x="215" y="126"/>
			<point x="215" y="220" type="curve" smooth="yes"/>
			<point x="215" y="375"/>
			<point x="321" y="495"/>
			<point x="453" y="495" type="curve" smooth="yes"/>
			<point x="487" y="495"/>
			<point x="522" y="488"/>
			<point x="558" y="471" type="curve"/>
			<point x="584" y="528" type="line"/>
			<point x="551" y="543"/>
			<point x="507" y="552"/>
			<point x="474" y="552" type="curve"/>
			<point x="508" y="693" type="line"/>
			<point x="449" y="693" type="line"/>
			<point x="414" y="550" type="line"/>
			<point x="244" y="520"/>
			<point x="149" y="370"/>
			<point x="149" y="221" type="curve" smooth="yes"/>
			<point x="149" y="132"/>
			<point x="186" y="56"/>
			<point x="291" y="34" type="curve"/>
		</contour>
	</outline>
</glyph>
<glyph name="currency" format="2">
	<unicode hex="00A4"/>
	<advance width="564"/>
	<outline>
		<contour>
			<point x="183" y="347" type="qcurve"/>
			<point x="183" y="380"/>
			<point x="201" y="439"/>
			<point x="218" y="462" type="qcurve"/>
			<point x="144" y="538" type="line"/>
			<point x="184" y="579" type="line"/>
			<point x="260" y="501" type="line"/>
			<point x="283" y="518"/>
			<point x="339" y="536"/>
			<point x="370" y="536" type="qcurve"/>
			<point x="401" y="536"/>
			<point x="457" y="518"/>
			<point x="480" y="501" type="qcurve"/>
			<point x="556" y="579" type="line"/>
			<point x="596" y="538" type="line"/>
			<point x="522" y="462" type="line"/>
			<point x="539" y="439"/>
			<point x="557" y="380"/>
			<point x="557" y="347" type="qcurve"/>
			<point x="557" y="314"/>
			<point x="539" y="255"/>
			<point x="522" y="232" type="qcurve"/>
			<point x="596" y="156" type="line"/>
			<point x="556" y="115" type="line"/>
			<point x="480" y="193" type="line"/>
			<point x="457" y="176"/>
			<point x="401" y="158"/>
			<point x="370" y="158" type="qcurve"/>
			<point x="339" y="158"/>
			<point x="283" y="176"/>
			<point x="260" y="193" type="qcurve"/>
			<point x="184" y="115" type="line"/>
			<point x="144" y="156" type="line"/>
			<point x="218" y="232" type="line"/>
			<point x="201" y="255"/>
			<point x="183" y="314"/>
		</contour>
		<contour>
			<point x="499" y="347" type="qcurve"/>
			<point x="499" y="377"/>
			<point x="479" y="427"/>
			<point x="444" y="463"/>
			<point x="397" y="483"/>
			<point x="370" y="483" type="qcurve"/>
			<point x="343" y="483"/>
			<point x="296" y="463"/>
			<point x="261" y="427"/>
			<point x="241" y="377"/>
			<point x="241" y="347" type="qcurve"/>
			<point x="241" y="317"/>
			<point x="261" y="267"/>
			<point x="296" y="231"/>
			<point x="343" y="211"/>
			<point x="370" y="211" type="qcurve"/>
			<point x="397" y="211"/>
			<point x="444" y="231"/>
			<point x="479" y="267"/>
			<point x="499" y="317"/>
		</contour>
	</outline>
</glyph>
<glyph name="yen" format="2">
	<unicode hex="00A5"/>
	<advance width="564"/>
	<outline>
		<contour>
			<point x="362" y="372" type="curve"/>
			<point x="317" y="477"/>
			<point x="285" y="580"/>
			<point x="261" y="693" type="curve"/>
			<point x="192" y="693" type="line"/>
			<point x="221" y="578"/>
			<point x="260" y="463"/>
			<point x="310" y="340" type="curve"/>
			<point x="157" y="340" type="line"/>
			<point x="144" y="287" type="line"/>
			<point x="311" y="287" type="line"/>
			<point x="283" y="168" type="line"/>
			<point x="116" y="168" type="line"/>
			<point x="103" y="115" type="line"/>
			<point x="270" y="115" type="line"/>
			<point x="242" y="0" type="line"/>
			<point x="307" y="0" type="line"/>
			<point x="335" y="115" type="line"/>
			<point x="503" y="115" type="line"/>
			<point x="516" y="168" type="line"/>
			<point x="348" y="168" type="line"/>
			<point x="376" y="287" type="line"/>
			<point x="544" y="287" type="line"/>
			<point x="557" y="340" type="line"/>
			<point x="401" y="340" type="line"/>
			<point x="520" y="464"/>
			<point x="603" y="578"/>
			<point x="688" y="693" type="curve"/>
			<point x="622" y="693" type="line"/>
			<point x="544" y="587"/>
			<point x="458" y="477"/>
		</contour>
	</outline>
</glyph>
<glyph name="degree" format="2">
	<unicode hex="00B0"/>
	<advance width="309"/>
	<outline>
		<contour>
			<point x="298" y="511" type="qcurve"/>
			<point x="272" y="511"/>
			<point x="225" y="529"/>
			<point x="189" y="562"/>
			<point x="168" y="611"/>
			<point x="168" y="642" type="qcurve"/>
			<point x="168" y="673"/>
			<point x="189" y="722"/>
			<point x="225" y="755"/>
			<point x="272" y="773"/>
			<point x="298" y="773" type="qcurve"/>
			<point x="324" y="773"/>
			<point x="371" y="755"/>
			<point x="407" y="722"/>
			<point x="428" y="673"/>
			<point x="428" y="642" type="qcurve"/>
			<point x="428" y="611"/>
			<point x="407" y="562"/>
			<point x="371" y="529"/>
			<point x="324" y="511"/>
		</contour>
		<contour>
			<point x="298" y="556" type="qcurve"/>
			<point x="333" y="556"/>
			<point x="380" y="602"/>
			<point x="380" y="642" type="qcurve"/>
			<point x="380" y="682"/>
			<point x="333" y="728"/>
			<point x="298" y="728" type="qcurve"/>
			<point x="263" y="728"/>
			<point x="216" y="682"/>
			<point x="216" y="642" type="qcurve"/>
			<point x="216" y="602"/>
			<point x="263" y="556"/>
		</contour>
	</outline>
</glyph>
<glyph name="threesuperior" format="2">
	<unicode hex="00B3"/>
	<advance width="363"/>
	<outline>
		<contour>
			<point x="136" y="333" type="line"/>
			<point x="167" y="317"/>
			<point x="206" y="309"/>
			<point x="245" y="309" type="curve" smooth="yes"/>
			<point x="370" y="309"/>
			<point x="421" y="380"/>
			<point x="421" y="441" type="curve" smooth="yes"/>
			<point x="421" y="476"/>
			<point x="404" y="506"/>
			<point x="361" y="521" type="curve"/>
			<point x="416" y="542"/>
			<point x="445" y="586"/>
			<point x="445" y="625" type="curve" smooth="yes"/>
			<point x="445" y="669"/>
			<point x="411" y="708"/>
			<point x="344" y="708" type="curve" smooth="yes"/>
			<point x="302" y="708"/>
			<point x="259" y="697"/>
			<point x="226" y="678" type="curve"/>
			<point x="237" y="638" type="line"/>
			<point x="257" y="648"/>
			<point x="298" y="661"/>
			<point x="332" y="661" type="curve" smooth="yes"/>
			<point x="372" y="661"/>
			<point x="391" y="646"/>
			<point x="391" y="617" type="curve" smooth="yes"/>
			<point x="391" y="579"/>
			<point x="353" y="544"/>
			<point x="281" y="544" type="curve" smooth="yes"/>
			<point x="259" y="544" type="line"/>
			<point x="248" y="499" type="line"/>
			<point x="254" y="499" type="line" smooth="yes"/>
			<point x="333" y="499"/>
			<point x="365" y="480"/>
			<point x="365" y="438" type="curve" smooth="yes"/>
			<point x="365" y="390"/>
			<point x="319" y="357"/>
			<point x="248" y="357" type="curve" smooth="yes"/>
			<point x="215" y="357"/>
			<point x="181" y="364"/>
			<point x="157" y="377" type="curve"/>
		</contour>
	</outline>
	<guideline y="309"/>
	<guideline y="357"/>
	<guideline y="499"/>
	<guideline y="544"/>
	<guideline y="661"/>
</glyph>
<glyph name="paragraph" format="2">
	<unicode hex="00B6"/>
	<advance width="585"/>
	<outline>
		<contour>
			<point x="234" y="-185" type="line"/>
			<point x="292" y="-185" type="line"/>
			<point x="491" y="640" type="line"/>
			<point x="503" y="641"/>
			<point x="514" y="641"/>
			<point x="525" y="641" type="curve" smooth="yes"/>
			<point x="553" y="641"/>
			<point x="578" y="639"/>
			<point x="606" y="636" type="curve"/>
			<point x="408" y="-185" type="line"/>
			<point x="466" y="-185" type="line"/>
			<point x="674" y="683" type="line"/>
			<point x="634" y="696"/>
			<point x="553" y="700"/>
			<point x="499" y="700" type="curve" smooth="yes"/>
			<point x="256" y="700"/>
			<point x="138" y="571"/>
			<point x="138" y="437" type="curve" smooth="yes"/>
			<point x="138" y="345"/>
			<point x="206" y="264"/>
			<point x="341" y="264" type="curve"/>
		</contour>
	</outline>
</glyph>
<glyph name="ordmasculine" format="2">
	<unicode hex="00BA"/>
	<advance width="444"/>
	<outline>
		<contour>
			<point x="387" y="656" type="curve" smooth="yes"/>
			<point x="436" y="656"/>
			<point x="458" y="626"/>
			<point x="458" y="567" type="curve" smooth="yes"/>
			<point x="458" y="482"/>
			<point x="400" y="380"/>
			<point x="312" y="380" type="curve" smooth="yes"/>
			<point x="263" y="380"/>
			<point x="241" y="410"/>
			<point x="241" y="469" type="curve" smooth="yes"/>
			<point x="241" y="554"/>
			<point x="299" y="656"/>
		</contour>
		<contour>
			<point x="298" y="331" type="curve" smooth="yes"/>
			<point x="438" y="331"/>
			<point x="516" y="459"/>
			<point x="516" y="576" type="curve" smooth="yes"/>
			<point x="516" y="644"/>
			<point x="481" y="705"/>
			<point x="401" y="705" type="curve" smooth="yes"/>
			<point x="261" y="705"/>
			<point x="183" y="577"/>
			<point x="183" y="460" type="curve" smooth="yes"/>
			<point x="183" y="392"/>
			<point x="218" y="331"/>
		</contour>
	</outline>
	<guideline x="183"/>
	<guideline x="241"/>
	<guideline x="458"/>
	<guideline x="516"/>
	<guideline y="331"/>
	<guideline y="380"/>
	<guideline y="656"/>
	<guideline y="705"/>
</glyph>
<glyph name="Eth" format="2">
	<unicode hex="00D0"/>
	<advance width="692"/>
	<outline>
		<contour>
			<point x="96" y="13" type="line"/>
			<point x="136" y="1"/>
			<point x="206" y="-6"/>
			<point x="259" y="-6" type="curve" smooth="yes"/>
			<point x="605" y="-6"/>
			<point x="724" y="215"/>
			<point x="724" y="426" type="curve" smooth="yes"/>
			<point x="724" y="610"/>
			<point x="615" y="699"/>
			<point x="423" y="699" type="curve" smooth="yes"/>
			<point x="371" y="699"/>
			<point x="320" y="694"/>
			<point x="255" y="680" type="curve"/>
			<point x="186" y="390" type="line"/>
			<point x="106" y="390" type="line"/>
			<point x="93" y="335" type="line"/>
			<point x="173" y="335" type="line"/>
		</contour>
		<contour>
			<point x="312" y="633" type="line"/>
			<point x="346" y="638"/>
			<point x="381" y="641"/>
			<point x="414" y="641" type="curve" smooth="yes"/>
			<point x="544" y="641"/>
			<point x="652" y="585"/>
			<point x="652" y="430" type="curve" smooth="yes"/>
			<point x="652" y="200"/>
			<point x="507" y="53"/>
			<point x="269" y="53" type="curve" smooth="yes"/>
			<point x="239" y="53"/>
			<point x="208" y="55"/>
			<point x="175" y="60" type="curve"/>
			<point x="241" y="335" type="line"/>
			<point x="372" y="335" type="line"/>
			<point x="385" y="390" type="line"/>
			<point x="254" y="390" type="line"/>
		</contour>
	</outline>
	<guideline x="5" y="0" angle="103.5"/>
</glyph>
<glyph name="Aogonek" format="2">
	<unicode hex="0104"/>
	<advance width="622"/>
	<outline>
		<contour>
			<point x="546" y="0" type="curve"/>
			<point x="549" y="0" type="line"/>
			<point x="506" y="-30"/>
			<point x="454" y="-75"/>
			<point x="454" y="-122" type="curve" smooth="yes"/>
			<point x="454" y="-172"/>
			<point x="491" y="-186"/>
			<point x="533" y="-186" type="curve" smooth="yes"/>
			<point x="551" y="-186"/>
			<point x="568" y="-183"/>
			<point x="586" y="-179" type="curve"/>
			<point x="593" y="-130" type="line"/>
			<point x="569" y="-136"/>
			<point x="516" y="-140"/>
			<point x="516" y="-107" type="curve" smooth="yes"/>
			<point x="516" y="-81"/>
			<point x="542" y="-48"/>
			<point x="616" y="0" type="curve"/>
			<point x="585" y="278"/>
			<point x="553" y="498"/>
			<point x="519" y="693" type="curve"/>
			<point x="446" y="693" type="line"/>
			<point x="307" y="488"/>
			<point x="157" y="247"/>
			<point x="20" y="0" type="curve"/>
			<point x="94" y="0" type="line"/>
			<point x="128" y="66"/>
			<point x="163" y="129"/>
			<point x="198" y="190" type="curve"/>
			<point x="524" y="190" type="line"/>
			<point x="532" y="126"/>
			<point x="539" y="63"/>
		</contour>
		<contour>
			<point x="465" y="615" type="curve"/>
			<point x="485" y="488"/>
			<point x="502" y="367"/>
			<point x="517" y="248" type="curve"/>
			<point x="232" y="248" type="line"/>
			<point x="306" y="373"/>
			<point x="384" y="492"/>
		</contour>
	</outline>
</glyph>
<glyph name="Eogonek" format="2">
	<unicode hex="0118"/>
	<advance width="524"/>
	<outline>
		<contour>
			<point x="83" y="0" type="line"/>
			<point x="428" y="0" type="line"/>
			<point x="385" y="-30"/>
			<point x="333" y="-75"/>
			<point x="333" y="-122" type="curve" smooth="yes"/>
			<point x="333" y="-172"/>
			<point x="370" y="-186"/>
			<point x="412" y="-186" type="curve" smooth="yes"/>
			<point x="430" y="-186"/>
			<point x="447" y="-183"/>
			<point x="465" y="-179" type="curve"/>
			<point x="472" y="-130" type="line"/>
			<point x="448" y="-136"/>
			<point x="395" y="-140"/>
			<point x="395" y="-107" type="curve" smooth="yes"/>
			<point x="395" y="-81"/>
			<point x="421" y="-48"/>
			<point x="495" y="0" type="curve"/>
			<point x="507" y="59" type="line"/>
			<point x="163" y="59" type="line"/>
			<point x="232" y="335" type="line"/>
			<point x="516" y="335" type="line"/>
			<point x="529" y="393" type="line"/>
			<point x="243" y="393" type="line"/>
			<point x="302" y="634" type="line"/>
			<point x="623" y="634" type="line"/>
			<point x="636" y="693" type="line"/>
			<point x="249" y="693" type="line"/>
		</contour>
	</outline>
	<guideline x="519" y="0" angle="103.5"/>
</glyph>
<glyph name="hbar" format="2">
	<unicode hex="0127"/>
	<advance width="545"/>
	<outline>
		<contour>
			<point x="465" y="623" type="line"/>
			<point x="296" y="623" type="line"/>
			<point x="267" y="503" type="line"/>
			<point x="330" y="529"/>
			<point x="386" y="529" type="qcurve"/>
			<point x="420" y="529"/>
			<point x="478" y="509"/>
			<point x="522" y="469"/>
			<point x="547" y="408"/>
			<point x="547" y="366" type="qcurve"/>
			<point x="547" y="340"/>
			<point x="539" y="285"/>
			<point x="532" y="257" type="qcurve"/>
			<point x="470" y="0" type="line"/>
			<point x="405" y="0" type="line"/>
			<point x="460" y="230" type="line"/>
			<point x="468" y="263"/>
			<point x="482" y="331"/>
			<point x="482" y="362" type="qcurve"/>
			<point x="482" y="392"/>
			<point x="463" y="433"/>
			<point x="432" y="458"/>
			<point x="390" y="469"/>
			<point x="367" y="469" type="qcurve"/>
			<point x="338" y="469"/>
			<point x="279" y="457"/>
			<point x="253" y="448" type="qcurve"/>
			<point x="148" y="0" type="line"/>
			<point x="83" y="0" type="line"/>
			<point x="231" y="623" type="line"/>
			<point x="166" y="623" type="line"/>
			<point x="178" y="675" type="line"/>
			<point x="244" y="675" type="line"/>
			<point x="265" y="764" type="line"/>
			<point x="333" y="776" type="line"/>
			<point x="308" y="675" type="line"/>
			<point x="477" y="675" type="line"/>
		</contour>
	</outline>
	<guideline x="327" y="0" angle="103.5"/>
</glyph>
<glyph name="Eng" format="2">
	<unicode hex="014A"/>
	<advance width="669"/>
	<outline>
		<contour>
			<point x="525" y="0" type="curve"/>
			<point x="505" y="-84"/>
			<point x="499" y="-138"/>
			<point x="426" y="-138" type="curve" smooth="yes"/>
			<point x="403" y="-138"/>
			<point x="388" y="-133"/>
			<point x="384" y="-130" type="curve"/>
			<point x="371" y="-176" type="line"/>
			<point x="369" y="-179"/>
			<point x="399" y="-187"/>
			<point x="413" y="-187" type="curve" smooth="yes"/>
			<point x="551" y="-187"/>
			<point x="560" y="-130"/>
			<point x="589" y="-9" type="curve" smooth="yes"/>
			<point x="756" y="693" type="line"/>
			<point x="689" y="693" type="line"/>
			<point x="553" y="109" type="line"/>
			<point x="519" y="251"/>
			<point x="414" y="523"/>
			<point x="316" y="693" type="curve"/>
			<point x="249" y="693" type="line"/>
			<point x="83" y="0" type="line"/>
			<point x="150" y="0" type="line"/>
			<point x="294" y="601" type="line"/>
			<point x="374" y="457"/>
			<point x="477" y="163"/>
		</contour>
	</outline>
	<guideline y="17"/>
</glyph>
<glyph name="eng" format="2">
	<unicode hex="014B"/>
	<advance width="546"/>
	<outline>
		<contour>
			<point x="274" y="-132" type="line"/>
			<point x="276" y="-134"/>
			<point x="295" y="-139"/>
			<point x="308" y="-139" type="qcurve"/>
			<point x="330" y="-139"/>
			<point x="360" y="-123"/>
			<point x="380" y="-94"/>
			<point x="394" y="-52"/>
			<point x="400" y="-26" type="qcurve"/>
			<point x="461" y="230" type="line"/>
			<point x="470" y="265"/>
			<point x="486" y="334"/>
			<point x="486" y="365" type="qcurve"/>
			<point x="486" y="414"/>
			<point x="432" y="470"/>
			<point x="362" y="470" type="qcurve"/>
			<point x="333" y="470"/>
			<point x="275" y="461"/>
			<point x="258" y="456" type="qcurve"/>
			<point x="148" y="0" type="line"/>
			<point x="83" y="0" type="line"/>
			<point x="202" y="499" type="line"/>
			<point x="227" y="507"/>
			<point x="284" y="518"/>
			<point x="336" y="524"/>
			<point x="378" y="527"/>
			<point x="389" y="527" type="qcurve"/>
			<point x="434" y="527"/>
			<point x="495" y="503"/>
			<point x="532" y="460"/>
			<point x="549" y="402"/>
			<point x="549" y="368" type="qcurve"/>
			<point x="549" y="342"/>
			<point x="540" y="286"/>
			<point x="533" y="257" type="qcurve"/>
			<point x="469" y="-10" type="line"/>
			<point x="459" y="-46"/>
			<point x="445" y="-110"/>
			<point x="412" y="-158"/>
			<point x="349" y="-187"/>
			<point x="289" y="-187" type="qcurve"/>
			<point x="285" y="-187"/>
			<point x="258" y="-182"/>
			<point x="257" y="-178" type="qcurve"/>
		</contour>
	</outline>
</glyph>
<glyph name="OE" format="2">
	<unicode hex="0152"/>
	<advance width="948"/>
	<outline>
		<contour>
			<point x="919" y="0" type="line"/>
			<point x="931" y="59" type="line"/>
			<point x="602" y="59" type="line"/>
			<point x="671" y="335" type="line"/>
			<point x="940" y="335" type="line"/>
			<point x="953" y="393" type="line"/>
			<point x="682" y="393" type="line"/>
			<point x="741" y="634" type="line"/>
			<point x="1047" y="634" type="line"/>
			<point x="1060" y="693" type="line"/>
			<point x="698" y="693" type="line"/>
			<point x="666" y="697"/>
			<point x="635" y="700"/>
			<point x="605" y="700" type="curve" smooth="yes"/>
			<point x="301" y="700"/>
			<point x="138" y="514"/>
			<point x="138" y="277" type="curve" smooth="yes"/>
			<point x="138" y="86"/>
			<point x="234" y="-8"/>
			<point x="437" y="-8" type="curve" smooth="yes"/>
			<point x="471" y="-8"/>
			<point x="507" y="-5"/>
			<point x="544" y="0" type="curve"/>
		</contour>
		<contour>
			<point x="434" y="53" type="curve" smooth="yes"/>
			<point x="282" y="53"/>
			<point x="210" y="117"/>
			<point x="210" y="278" type="curve" smooth="yes"/>
			<point x="210" y="494"/>
			<point x="346" y="640"/>
			<point x="603" y="640" type="curve" smooth="yes"/>
			<point x="626" y="640"/>
			<point x="650" y="639"/>
			<point x="674" y="636" type="curve"/>
			<point x="536" y="60" type="line"/>
			<point x="501" y="56"/>
			<point x="467" y="53"/>
		</contour>
	</outline>
</glyph>
<glyph name="uogonek" format="2">
	<unicode hex="0173"/>
	<advance width="522"/>
	<outline>
		<contour>
			<point x="248" y="-12" type="curve" smooth="yes"/>
			<point x="311" y="-12"/>
			<point x="364" y="8"/>
			<point x="410" y="53" type="curve"/>
			<point x="412" y="35"/>
			<point x="417" y="16"/>
			<point x="423" y="1" type="curve"/>
			<point x="380" y="-29"/>
			<point x="327" y="-74"/>
			<point x="327" y="-122" type="curve" smooth="yes"/>
			<point x="327" y="-172"/>
			<point x="364" y="-186"/>
			<point x="406" y="-186" type="curve" smooth="yes"/>
			<point x="424" y="-186"/>
			<point x="441" y="-183"/>
			<point x="459" y="-179" type="curve"/>
			<point x="466" y="-130" type="line"/>
			<point x="442" y="-136"/>
			<point x="389" y="-140"/>
			<point x="389" y="-107" type="curve" smooth="yes"/>
			<point x="389" y="-81"/>
			<point x="420" y="-44"/>
			<point x="494" y="4" type="curve"/>
			<point x="477" y="42"/>
			<point x="471" y="72"/>
			<point x="471" y="108" type="curve" smooth="yes"/>
			<point x="471" y="134"/>
			<point x="477" y="164"/>
			<point x="485" y="197" type="curve" smooth="yes"/>
			<point x="564" y="517" type="line"/>
			<point x="499" y="517" type="line"/>
			<point x="432" y="247" type="line" smooth="yes"/>
			<point x="423" y="210"/>
			<point x="409" y="158"/>
			<point x="409" y="122" type="curve"/>
			<point x="366" y="74"/>
			<point x="320" y="48"/>
			<point x="256" y="48" type="curve" smooth="yes"/>
			<point x="182" y="48"/>
			<point x="161" y="89"/>
			<point x="161" y="142" type="curve" smooth="yes"/>
			<point x="161" y="188"/>
			<point x="177" y="243"/>
			<point x="188" y="289" type="curve" smooth="yes"/>
			<point x="243" y="517" type="line"/>
			<point x="178" y="517" type="line"/>
			<point x="116" y="260" type="line" smooth="yes"/>
			<point x="105" y="216"/>
			<point x="98" y="172"/>
			<point x="98" y="133" type="curve" smooth="yes"/>
			<point x="98" y="50"/>
			<point x="133" y="-12"/>
		</contour>
	</outline>
</glyph>
<glyph name="uni0180" format="2">
	<unicode hex="0180"/>
	<advance width="523"/>
	<outline>
		<contour>
			<point x="257" y="489" type="curve"/>
			<point x="290" y="628" type="line"/>
			<point x="449" y="628" type="line"/>
			<point x="461" y="680" type="line"/>
			<point x="302" y="680" type="line"/>
			<point x="325" y="776" type="line"/>
			<point x="257" y="764" type="line"/>
			<point x="237" y="680" type="line"/>
			<point x="162" y="680" type="line"/>
			<point x="150" y="628" type="line"/>
			<point x="224" y="628" type="line"/>
			<point x="78" y="17" type="line"/>
			<point x="120" y="-2"/>
			<point x="167" y="-12"/>
			<point x="213" y="-12" type="curve" smooth="yes"/>
			<point x="437" y="-12"/>
			<point x="555" y="165"/>
			<point x="555" y="336" type="curve" smooth="yes"/>
			<point x="555" y="454"/>
			<point x="501" y="529"/>
			<point x="388" y="529" type="curve" smooth="yes"/>
			<point x="344" y="529"/>
			<point x="297" y="515"/>
		</contour>
		<contour>
			<point x="154" y="59" type="curve"/>
			<point x="238" y="413" type="line"/>
			<point x="284" y="449"/>
			<point x="335" y="469"/>
			<point x="378" y="469" type="curve" smooth="yes"/>
			<point x="441" y="469"/>
			<point x="489" y="427"/>
			<point x="489" y="331" type="curve" smooth="yes"/>
			<point x="489" y="201"/>
			<point x="399" y="48"/>
			<point x="225" y="48" type="curve" smooth="yes"/>
			<point x="201" y="48"/>
			<point x="177" y="52"/>
		</contour>
	</outline>
</glyph>
<glyph name="uni0181" format="2">
	<unicode hex="0181"/>
	<advance width="663"/>
	<outline>
		<contour>
			<point x="149" y="13" type="line"/>
			<point x="200" y="2"/>
			<point x="261" y="-6"/>
			<point x="324" y="-6" type="curve" smooth="yes"/>
			<point x="494" y="-6"/>
			<point x="661" y="44"/>
			<point x="661" y="232" type="curve" smooth="yes"/>
			<point x="661" y="291"/>
			<point x="624" y="349"/>
			<point x="562" y="364" type="curve"/>
			<point x="637" y="388"/>
			<point x="705" y="452"/>
			<point x="705" y="543" type="curve" smooth="yes"/>
			<point x="705" y="667"/>
			<point x="591" y="700"/>
			<point x="476" y="700" type="curve" smooth="yes"/>
			<point x="277" y="700"/>
			<point x="128" y="687"/>
			<point x="118" y="498" type="curve"/>
			<point x="176" y="503" type="line"/>
			<point x="183" y="564"/>
			<point x="206" y="629"/>
			<point x="298" y="635" type="curve"/>
		</contour>
		<contour>
			<point x="291" y="332" type="line"/>
			<point x="418" y="332" type="line" smooth="yes"/>
			<point x="539" y="332"/>
			<point x="589" y="306"/>
			<point x="589" y="228" type="curve" smooth="yes"/>
			<point x="589" y="82"/>
			<point x="457" y="52"/>
			<point x="326" y="52" type="curve" smooth="yes"/>
			<point x="289" y="52"/>
			<point x="255" y="54"/>
			<point x="227" y="59" type="curve"/>
		</contour>
		<contour>
			<point x="306" y="390" type="line"/>
			<point x="366" y="638" type="line"/>
			<point x="392" y="640"/>
			<point x="426" y="641"/>
			<point x="462" y="641" type="curve" smooth="yes"/>
			<point x="577" y="641"/>
			<point x="634" y="610"/>
			<point x="634" y="531" type="curve" smooth="yes"/>
			<point x="634" y="446"/>
			<point x="567" y="390"/>
			<point x="399" y="390" type="curve" smooth="yes"/>
		</contour>
	</outline>
</glyph>
<glyph name="uni0185" format="2">
	<unicode hex="0185"/>
	<advance width="589"/>
	<outline>
		<contour>
			<point x="236" y="369" type="line"/>
			<point x="240" y="371"/>
			<point x="273" y="375"/>
			<point x="340" y="375" type="curve" smooth="yes"/>
			<point x="437" y="375"/>
			<point x="524" y="357"/>
			<point x="524" y="265" type="curve" smooth="yes"/>
			<point x="524" y="88"/>
			<point x="373" y="53"/>
			<point x="255" y="53" type="curve" smooth="yes"/>
			<point x="215" y="53"/>
			<point x="173" y="58"/>
			<point x="162" y="60" type="curve"/>
		</contour>
		<contour>
			<point x="315" y="698" type="line"/>
			<point x="272" y="687"/>
			<point x="203" y="660"/>
			<point x="169" y="641" type="curve"/>
			<point x="217" y="572" type="line"/>
			<point x="83" y="13" type="line"/>
			<point x="126" y="0"/>
			<point x="208" y="-6"/>
			<point x="259" y="-6" type="curve" smooth="yes"/>
			<point x="468" y="-6"/>
			<point x="592" y="92"/>
			<point x="592" y="269" type="curve" smooth="yes"/>
			<point x="592" y="382"/>
			<point x="503" y="434"/>
			<point x="348" y="434" type="curve" smooth="yes"/>
			<point x="320" y="434"/>
			<point x="284" y="431"/>
			<point x="250" y="428" type="curve"/>
		</contour>
	</outline>
</glyph>
<glyph name="uni0187" format="2">
	<unicode hex="0187"/>
	<advance width="650"/>
	<outline>
		<contour>
			<point x="578" y="91" type="line"/>
			<point x="550" y="76"/>
			<point x="497" y="46"/>
			<point x="389" y="46" type="curve" smooth="yes"/>
			<point x="268" y="46"/>
			<point x="210" y="120"/>
			<point x="210" y="255" type="curve" smooth="yes"/>
			<point x="210" y="496"/>
			<point x="361" y="647"/>
			<point x="528" y="647" type="curve" smooth="yes"/>
			<point x="581" y="647"/>
			<point x="634" y="636"/>
			<point x="683" y="609" type="curve"/>
			<point x="713" y="667" type="line" smooth="yes"/>
			<point x="735" y="710"/>
			<point x="763" y="734"/>
			<point x="802" y="734" type="curve" smooth="yes"/>
			<point x="821" y="734"/>
			<point x="837" y="731"/>
			<point x="846" y="727" type="curve"/>
			<point x="868" y="775" type="line"/>
			<point x="851" y="781"/>
			<point x="839" y="784"/>
			<point x="811" y="784" type="curve" smooth="yes"/>
			<point x="743" y="784"/>
			<point x="694" y="749"/>
			<point x="662" y="683" type="curve"/>
			<point x="625" y="699"/>
			<point x="587" y="708"/>
			<point x="542" y="708" type="curve" smooth="yes"/>
			<point x="329" y="708"/>
			<point x="138" y="539"/>
			<point x="138" y="253" type="curve" smooth="yes"/>
			<point x="138" y="64"/>
			<point x="242" y="-15"/>
			<point x="391" y="-15" type="curve" smooth="yes"/>
			<point x="458" y="-15"/>
			<point x="533" y="2"/>
			<point x="587" y="31" type="curve"/>
		</contour>
	</outline>
</glyph>
<glyph name="uni018A" format="2">
	<unicode hex="018A"/>
	<advance width="751"/>
	<outline>
		<contour>
			<point x="479" y="699" type="curve"/>
			<point x="282" y="700"/>
			<point x="133" y="687"/>
			<point x="123" y="498" type="curve"/>
			<point x="181" y="503" type="line"/>
			<point x="188" y="564"/>
			<point x="211" y="629"/>
			<point x="303" y="635" type="curve"/>
			<point x="155" y="13" type="line"/>
			<point x="195" y="1"/>
			<point x="265" y="-6"/>
			<point x="318" y="-6" type="curve" smooth="yes"/>
			<point x="623" y="-6"/>
			<point x="783" y="169"/>
			<point x="783" y="415" type="curve" smooth="yes"/>
			<point x="783" y="596"/>
			<point x="686" y="699"/>
		</contour>
		<contour>
			<point x="372" y="638" type="line"/>
			<point x="407" y="641"/>
			<point x="440" y="641"/>
			<point x="473" y="641" type="curve" smooth="yes"/>
			<point x="635" y="641"/>
			<point x="710" y="564"/>
			<point x="710" y="412" type="curve" smooth="yes"/>
			<point x="710" y="207"/>
			<point x="579" y="53"/>
			<point x="328" y="53" type="curve" smooth="yes"/>
			<point x="298" y="53"/>
			<point x="267" y="55"/>
			<point x="234" y="60" type="curve"/>
		</contour>
	</outline>
</glyph>
<glyph name="uni018C" format="2">
	<unicode hex="018C"/>
	<advance width="539"/>
	<outline>
		<contour>
			<point x="493" y="464" type="curve"/>
			<point x="439" y="247" type="line" smooth="yes"/>
			<point x="427" y="200"/>
			<point x="416" y="156"/>
			<point x="416" y="121" type="curve"/>
			<point x="386" y="88"/>
			<point x="330" y="48"/>
			<point x="264" y="48" type="curve" smooth="yes"/>
			<point x="191" y="48"/>
			<point x="164" y="111"/>
			<point x="164" y="190" type="curve" smooth="yes"/>
			<point x="164" y="318"/>
			<point x="245" y="469"/>
			<point x="431" y="469" type="curve" smooth="yes"/>
			<point x="449" y="469"/>
			<point x="474" y="467"/>
		</contour>
		<contour>
			<point x="507" y="523" type="line"/>
			<point x="485" y="527"/>
			<point x="463" y="529"/>
			<point x="442" y="529" type="curve" smooth="yes"/>
			<point x="207" y="529"/>
			<point x="98" y="348"/>
			<point x="98" y="181" type="curve" smooth="yes"/>
			<point x="98" y="76"/>
			<point x="145" y="-12"/>
			<point x="259" y="-12" type="curve" smooth="yes"/>
			<point x="340" y="-12"/>
			<point x="392" y="27"/>
			<point x="417" y="53" type="curve"/>
			<point x="420" y="32"/>
			<point x="427" y="7"/>
			<point x="434" y="-6" type="curve"/>
			<point x="501" y="4" type="line"/>
			<point x="484" y="39"/>
			<point x="478" y="73"/>
			<point x="478" y="111" type="curve" smooth="yes"/>
			<point x="478" y="132"/>
			<point x="482" y="155"/>
			<point x="488" y="179" type="curve" smooth="yes"/>
			<point x="631" y="771" type="line"/>
			<point x="305" y="771" type="line"/>
			<point x="292" y="716" type="line"/>
			<point x="552" y="716" type="line"/>
		</contour>
	</outline>
	<guideline x="106"/>
	<guideline y="771"/>
</glyph>
<glyph name="uni0193" format="2">
	<unicode hex="0193"/>
	<advance width="659"/>
	<outline>
		<contour>
			<point x="138" y="259" type="curve" smooth="yes"/>
			<point x="138" y="91"/>
			<point x="218" y="-15"/>
			<point x="403" y="-15" type="curve" smooth="yes"/>
			<point x="463" y="-15"/>
			<point x="530" y="-1"/>
			<point x="589" y="23" type="curve"/>
			<point x="661" y="324" type="line"/>
			<point x="593" y="324" type="line"/>
			<point x="534" y="69" type="line"/>
			<point x="488" y="53"/>
			<point x="442" y="46"/>
			<point x="400" y="46" type="curve" smooth="yes"/>
			<point x="267" y="46"/>
			<point x="210" y="124"/>
			<point x="210" y="262" type="curve" smooth="yes"/>
			<point x="210" y="464"/>
			<point x="334" y="647"/>
			<point x="531" y="647" type="curve" smooth="yes"/>
			<point x="603" y="647"/>
			<point x="656" y="635"/>
			<point x="705" y="608" type="curve"/>
			<point x="735" y="666" type="line" smooth="yes"/>
			<point x="757" y="709"/>
			<point x="785" y="733"/>
			<point x="824" y="733" type="curve" smooth="yes"/>
			<point x="843" y="733"/>
			<point x="859" y="730"/>
			<point x="868" y="726" type="curve"/>
			<point x="890" y="774" type="line"/>
			<point x="873" y="780"/>
			<point x="861" y="783"/>
			<point x="833" y="783" type="curve" smooth="yes"/>
			<point x="765" y="783"/>
			<point x="716" y="748"/>
			<point x="684" y="682" type="curve"/>
			<point x="645" y="699"/>
			<point x="604" y="708"/>
			<point x="539" y="708" type="curve" smooth="yes"/>
			<point x="293" y="708"/>
			<point x="138" y="493"/>
		</contour>
	</outline>
</glyph>
<glyph name="uni019A" format="2">
	<unicode hex="019A"/>
	<advance width="304"/>
	<outline>
		<contour>
			<point x="196" y="377" type="line"/>
			<point x="118" y="377" type="line"/>
			<point x="130" y="430" type="line"/>
			<point x="208" y="430" type="line"/>
			<point x="289" y="764" type="line"/>
			<point x="356" y="776" type="line"/>
			<point x="273" y="430" type="line"/>
			<point x="366" y="430" type="line"/>
			<point x="354" y="377" type="line"/>
			<point x="261" y="377" type="line"/>
			<point x="232" y="255" type="line"/>
			<point x="224" y="221"/>
			<point x="209" y="160"/>
			<point x="209" y="134" type="qcurve"/>
			<point x="209" y="118"/>
			<point x="215" y="91"/>
			<point x="233" y="70"/>
			<point x="266" y="54"/>
			<point x="292" y="48" type="qcurve"/>
			<point x="277" y="-9" type="line"/>
			<point x="204" y="0"/>
			<point x="146" y="71"/>
			<point x="146" y="125" type="qcurve"/>
			<point x="146" y="149"/>
			<point x="154" y="202"/>
			<point x="161" y="231" type="qcurve"/>
		</contour>
	</outline>
	<guideline x="17" y="0" angle="103.5"/>
</glyph>
<glyph name="uni01A3" format="2">
	<unicode hex="01A3"/>
	<advance width="773"/>
	<outline>
		<contour>
			<point x="558" y="355" type="curve" smooth="yes"/>
			<point x="558" y="388"/>
			<point x="551" y="416"/>
			<point x="539" y="440" type="curve"/>
			<point x="567" y="457"/>
			<point x="598" y="471"/>
			<point x="633" y="471" type="curve" smooth="yes"/>
			<point x="705" y="471"/>
			<point x="718" y="429"/>
			<point x="718" y="380" type="curve" smooth="yes"/>
			<point x="718" y="333"/>
			<point x="701" y="277"/>
			<point x="691" y="234" type="curve" smooth="yes"/>
			<point x="590" y="-185" type="line"/>
			<point x="655" y="-185" type="line"/>
			<point x="763" y="261" type="line" smooth="yes"/>
			<point x="773" y="305"/>
			<point x="785" y="352"/>
			<point x="785" y="395" type="curve" smooth="yes"/>
			<point x="785" y="468"/>
			<point x="754" y="527"/>
			<point x="653" y="527" type="curve" smooth="yes"/>
			<point x="608" y="527"/>
			<point x="562" y="514"/>
			<point x="510" y="480" type="curve"/>
			<point x="478" y="511"/>
			<point x="432" y="528"/>
			<point x="384" y="528" type="curve" smooth="yes"/>
			<point x="254" y="528"/>
			<point x="98" y="412"/>
			<point x="98" y="162" type="curve" smooth="yes"/>
			<point x="98" y="48"/>
			<point x="179" y="-12"/>
			<point x="272" y="-12" type="curve" smooth="yes"/>
			<point x="402" y="-12"/>
			<point x="558" y="104"/>
		</contour>
		<contour>
			<point x="164" y="166" type="curve" smooth="yes"/>
			<point x="164" y="371"/>
			<point x="285" y="469"/>
			<point x="380" y="469" type="curve" smooth="yes"/>
			<point x="441" y="469"/>
			<point x="492" y="428"/>
			<point x="492" y="350" type="curve" smooth="yes"/>
			<point x="492" y="145"/>
			<point x="371" y="47"/>
			<point x="276" y="47" type="curve" smooth="yes"/>
			<point x="215" y="47"/>
			<point x="164" y="88"/>
		</contour>
	</outline>
</glyph>
<glyph name="uni01AC" format="2">
	<unicode hex="01AC"/>
	<advance width="542"/>
	<outline>
		<contour>
			<point x="248" y="0" type="line"/>
			<point x="316" y="0" type="line"/>
			<point x="468" y="634" type="line"/>
			<point x="679" y="634" type="line"/>
			<point x="693" y="693" type="line"/>
			<point x="384" y="693" type="line" smooth="yes"/>
			<point x="228" y="693"/>
			<point x="148" y="659"/>
			<point x="139" y="497" type="curve"/>
			<point x="197" y="502" type="line"/>
			<point x="204" y="563"/>
			<point x="224" y="634"/>
			<point x="319" y="634" type="curve" smooth="yes"/>
			<point x="400" y="634" type="line"/>
		</contour>
	</outline>
</glyph>
<glyph name="uni01AD" format="2">
	<unicode hex="01AD"/>
	<advance width="377"/>
	<outline>
		<contour>
			<point x="193" y="482" type="line"/>
			<point x="127" y="208" type="line" smooth="yes"/>
			<point x="118" y="172"/>
			<point x="113" y="138"/>
			<point x="113" y="109" type="curve" smooth="yes"/>
			<point x="113" y="16"/>
			<point x="173" y="-12"/>
			<point x="241" y="-12" type="curve" smooth="yes"/>
			<point x="285" y="-12"/>
			<point x="332" y="0"/>
			<point x="368" y="15" type="curve"/>
			<point x="362" y="74" type="line"/>
			<point x="327" y="58"/>
			<point x="299" y="48"/>
			<point x="257" y="48" type="curve" smooth="yes"/>
			<point x="213" y="48"/>
			<point x="180" y="69"/>
			<point x="180" y="129" type="curve" smooth="yes"/>
			<point x="180" y="155"/>
			<point x="186" y="184"/>
			<point x="192" y="208" type="curve" smooth="yes"/>
			<point x="253" y="461" type="line"/>
			<point x="436" y="461" type="line"/>
			<point x="449" y="517" type="line"/>
			<point x="267" y="517" type="line"/>
			<point x="280" y="571" type="line" smooth="yes"/>
			<point x="302" y="662"/>
			<point x="331" y="719"/>
			<point x="427" y="719" type="curve" smooth="yes"/>
			<point x="489" y="719"/>
			<point x="509" y="705"/>
			<point x="512" y="704" type="curve"/>
			<point x="542" y="756" type="line"/>
			<point x="522" y="768"/>
			<point x="477" y="776"/>
			<point x="436" y="776" type="curve" smooth="yes"/>
			<point x="300" y="776"/>
			<point x="247" y="705"/>
			<point x="215" y="573" type="curve" smooth="yes"/>
		</contour>
	</outline>
	<guideline y="212"/>
	<guideline y="220"/>
</glyph>
<glyph name="uni01B2" format="2">
	<unicode hex="01B2"/>
	<advance width="649"/>
	<outline>
		<contour>
			<point x="306" y="693" type="line"/>
			<point x="238" y="693" type="line"/>
			<point x="137" y="268" type="line" smooth="yes"/>
			<point x="128" y="230"/>
			<point x="123" y="195"/>
			<point x="123" y="165" type="curve" smooth="yes"/>
			<point x="123" y="39"/>
			<point x="208" y="-15"/>
			<point x="317" y="-15" type="curve" smooth="yes"/>
			<point x="572" y="-15"/>
			<point x="691" y="249"/>
			<point x="691" y="498" type="curve" smooth="yes"/>
			<point x="691" y="644"/>
			<point x="648" y="694"/>
			<point x="558" y="694" type="curve" smooth="yes"/>
			<point x="542" y="694"/>
			<point x="524" y="692"/>
			<point x="505" y="688" type="curve"/>
			<point x="498" y="634" type="line"/>
			<point x="510" y="636"/>
			<point x="521" y="637"/>
			<point x="530" y="637" type="curve" smooth="yes"/>
			<point x="602" y="637"/>
			<point x="625" y="614"/>
			<point x="625" y="484" type="curve" smooth="yes"/>
			<point x="625" y="271"/>
			<point x="517" y="46"/>
			<point x="328" y="46" type="curve" smooth="yes"/>
			<point x="223" y="46"/>
			<point x="193" y="112"/>
			<point x="193" y="185" type="curve" smooth="yes"/>
			<point x="193" y="223"/>
			<point x="203" y="263"/>
			<point x="211" y="297" type="curve" smooth="yes"/>
		</contour>
	</outline>
	<guideline y="637"/>
	<guideline y="694"/>
</glyph>
<glyph name="uni01B3" format="2">
	<unicode hex="01B3"/>
	<advance width="610"/>
	<outline>
		<contour>
			<point x="366" y="275" type="line"/>
			<point x="287" y="572" type="line"/>
			<point x="279" y="604"/>
			<point x="259" y="644"/>
			<point x="234" y="644" type="qcurve"/>
			<point x="214" y="644"/>
			<point x="179" y="628"/>
			<point x="155" y="609" type="qcurve"/>
			<point x="133" y="656" type="line"/>
			<point x="186" y="703"/>
			<point x="240" y="703" type="qcurve"/>
			<point x="255" y="703"/>
			<point x="283" y="696"/>
			<point x="309" y="675"/>
			<point x="331" y="638"/>
			<point x="339" y="608" type="qcurve"/>
			<point x="409" y="336" type="line"/>
			<point x="443" y="374"/>
			<point x="521" y="465"/>
			<point x="597" y="560"/>
			<point x="665" y="653"/>
			<point x="691" y="693" type="qcurve"/>
			<point x="772" y="693" type="line"/>
			<point x="703" y="601"/>
			<point x="529" y="387"/>
			<point x="435" y="280" type="qcurve"/>
			<point x="369" y="0" type="line"/>
			<point x="301" y="0" type="line"/>
		</contour>
	</outline>
	<guideline y="644"/>
</glyph>
<glyph name="uni01B5" format="2">
	<unicode hex="01B5"/>
	<advance width="547"/>
	<outline>
		<contour>
			<point x="560" y="337" type="line"/>
			<point x="573" y="392" type="line"/>
			<point x="416" y="392" type="line"/>
			<point x="509" y="492"/>
			<point x="597" y="580"/>
			<point x="653" y="631" type="curve"/>
			<point x="667" y="693" type="line"/>
			<point x="223" y="693" type="line"/>
			<point x="209" y="634" type="line"/>
			<point x="572" y="634" type="line"/>
			<point x="510" y="575"/>
			<point x="424" y="487"/>
			<point x="337" y="392" type="curve"/>
			<point x="172" y="392" type="line"/>
			<point x="159" y="337" type="line"/>
			<point x="287" y="337" type="line"/>
			<point x="195" y="233"/>
			<point x="107" y="128"/>
			<point x="51" y="51" type="curve"/>
			<point x="40" y="0" type="line"/>
			<point x="507" y="0" type="line"/>
			<point x="520" y="59" type="line"/>
			<point x="133" y="59" type="line"/>
			<point x="195" y="142"/>
			<point x="280" y="242"/>
			<point x="366" y="337" type="curve"/>
		</contour>
	</outline>
	<guideline x="34"/>
	<guideline x="519"/>
	<guideline x="36" y="0" angle="103.5"/>
	<guideline x="502" y="0" angle="103.5"/>
</glyph>
<glyph name="uni01B7" format="2">
	<unicode hex="01B7"/>
	<advance width="516"/>
	<outline>
		<contour>
			<point x="68" y="90" type="line"/>
			<point x="103" y="62"/>
			<point x="166" y="44"/>
			<point x="231" y="44" type="curve" smooth="yes"/>
			<point x="367" y="44"/>
			<point x="451" y="110"/>
			<point x="451" y="219" type="curve" smooth="yes"/>
			<point x="451" y="304"/>
			<point x="399" y="341"/>
			<point x="266" y="341" type="curve" smooth="yes"/>
			<point x="250" y="341" type="line"/>
			<point x="261" y="385" type="line"/>
			<point x="356" y="469"/>
			<point x="466" y="578"/>
			<point x="521" y="634" type="curve"/>
			<point x="208" y="634" type="line"/>
			<point x="221" y="693" type="line"/>
			<point x="618" y="693" type="line"/>
			<point x="608" y="649" type="line"/>
			<point x="550" y="581"/>
			<point x="453" y="480"/>
			<point x="347" y="388" type="curve"/>
			<point x="466" y="370"/>
			<point x="523" y="323"/>
			<point x="523" y="218" type="curve" smooth="yes"/>
			<point x="523" y="87"/>
			<point x="414" y="-15"/>
			<point x="230" y="-15" type="curve" smooth="yes"/>
			<point x="152" y="-15"/>
			<point x="78" y="4"/>
			<point x="38" y="34" type="curve"/>
		</contour>
	</outline>
	<guideline x="48"/>
	<guideline y="341"/>
	<guideline y="384"/>
	<guideline y="634"/>
	<guideline y="652"/>
	<guideline y="801"/>
</glyph>
<glyph name="uni01EA" format="2">
	<unicode hex="01EA"/>
	<advance width="748"/>
	<outline>
		<contour>
			<point x="320" y="-122" type="qcurve"/>
			<point x="320" y="-92"/>
			<point x="366" y="-36"/>
			<point x="395" y="-14" type="qcurve"/>
			<point x="392" y="-14"/>
			<point x="387" y="-15"/>
			<point x="385" y="-15" type="qcurve"/>
			<point x="335" y="-15"/>
			<point x="246" y="18"/>
			<point x="178" y="85"/>
			<point x="138" y="188"/>
			<point x="138" y="258" type="qcurve"/>
			<point x="138" y="361"/>
			<point x="206" y="528"/>
			<point x="318" y="645"/>
			<point x="459" y="708"/>
			<point x="533" y="708" type="qcurve"/>
			<point x="582" y="708"/>
			<point x="672" y="675"/>
			<point x="740" y="608"/>
			<point x="780" y="505"/>
			<point x="780" y="436" type="qcurve"/>
			<point x="780" y="349"/>
			<point x="731" y="203"/>
			<point x="648" y="90"/>
			<point x="538" y="15"/>
			<point x="478" y="-2" type="qcurve"/>
			<point x="424" y="-37"/>
			<point x="382" y="-87"/>
			<point x="382" y="-107" type="qcurve"/>
			<point x="382" y="-119"/>
			<point x="399" y="-131"/>
			<point x="424" y="-135"/>
			<point x="450" y="-132"/>
			<point x="459" y="-130" type="qcurve"/>
			<point x="452" y="-179" type="line"/>
			<point x="438" y="-182"/>
			<point x="413" y="-186"/>
			<point x="399" y="-186" type="qcurve"/>
			<point x="383" y="-186"/>
			<point x="355" y="-180"/>
			<point x="333" y="-165"/>
			<point x="320" y="-141"/>
		</contour>
		<contour>
			<point x="210" y="247" type="qcurve"/>
			<point x="210" y="196"/>
			<point x="238" y="120"/>
			<point x="288" y="71"/>
			<point x="353" y="46"/>
			<point x="391" y="46" type="qcurve"/>
			<point x="452" y="46"/>
			<point x="566" y="99"/>
			<point x="654" y="201"/>
			<point x="708" y="350"/>
			<point x="708" y="446" type="qcurve"/>
			<point x="708" y="497"/>
			<point x="680" y="573"/>
			<point x="630" y="622"/>
			<point x="564" y="647"/>
			<point x="527" y="647" type="qcurve"/>
			<point x="466" y="647"/>
			<point x="352" y="594"/>
			<point x="263" y="492"/>
			<point x="210" y="343"/>
		</contour>
	</outline>
</glyph>
<glyph name="uni01F7" format="2">
	<unicode hex="01F7"/>
	<advance width="591"/>
	<outline>
		<contour>
			<point x="38" y="-185" type="line"/>
			<point x="106" y="-185" type="line"/>
			<point x="149" y="-3" type="line"/>
			<point x="500" y="97"/>
			<point x="653" y="288"/>
			<point x="653" y="490" type="curve" smooth="yes"/>
			<point x="653" y="629"/>
			<point x="577" y="700"/>
			<point x="441" y="700" type="curve" smooth="yes"/>
			<point x="373" y="700"/>
			<point x="300" y="681"/>
			<point x="240" y="653" type="curve"/>
		</contour>
		<contour>
			<point x="299" y="614" type="line"/>
			<point x="341" y="629"/>
			<point x="389" y="640"/>
			<point x="433" y="640" type="curve" smooth="yes"/>
			<point x="531" y="640"/>
			<point x="584" y="592"/>
			<point x="584" y="483" type="curve" smooth="yes"/>
			<point x="584" y="316"/>
			<point x="455" y="149"/>
			<point x="169" y="73" type="curve"/>
		</contour>
	</outline>
	<guideline y="-82"/>
	<guideline x="84" y="0" angle="103.5"/>
	<guideline x="181" y="0" angle="103.5"/>
	<guideline x="421" y="0" angle="103.5"/>
</glyph>
<glyph name="uni021D" format="2">
	<unicode hex="021D"/>
	<advance width="438"/>
	<outline>
		<contour>
			<point x="18" y="-185" type="line"/>
			<point x="342" y="-185"/>
			<point x="412" y="-31"/>
			<point x="412" y="72" type="curve" smooth="yes"/>
			<point x="412" y="145"/>
			<point x="380" y="180"/>
			<point x="312" y="201" type="curve"/>
			<point x="426" y="243"/>
			<point x="460" y="314"/>
			<point x="460" y="390" type="curve" smooth="yes"/>
			<point x="460" y="493"/>
			<point x="382" y="529"/>
			<point x="297" y="529" type="curve" smooth="yes"/>
			<point x="247" y="529"/>
			<point x="194" y="516"/>
			<point x="154" y="497" type="curve"/>
			<point x="158" y="438" type="line"/>
			<point x="192" y="458"/>
			<point x="242" y="473"/>
			<point x="286" y="473" type="curve" smooth="yes"/>
			<point x="343" y="473"/>
			<point x="393" y="449"/>
			<point x="393" y="380" type="curve" smooth="yes"/>
			<point x="393" y="300"/>
			<point x="322" y="226"/>
			<point x="192" y="226" type="curve"/>
			<point x="177" y="171" type="line"/>
			<point x="280" y="171"/>
			<point x="344" y="155"/>
			<point x="344" y="63" type="curve" smooth="yes"/>
			<point x="344" y="-38"/>
			<point x="252" y="-129"/>
			<point x="25" y="-129" type="curve"/>
		</contour>
	</outline>
	<guideline y="418"/>
	<guideline y="496"/>
	<guideline x="39" y="0" angle="103.5"/>
</glyph>
<glyph name="uni0225" format="2">
	<unicode hex="0225"/>
	<advance width="428"/>
	<outline>
		<contour>
			<point x="40" y="0" type="line"/>
			<point x="345" y="0" type="line"/>
			<point x="340" y="-21" type="line" smooth="yes"/>
			<point x="321" y="-98"/>
			<point x="299" y="-130"/>
			<point x="248" y="-130" type="curve" smooth="yes"/>
			<point x="237" y="-130"/>
			<point x="223" y="-128"/>
			<point x="208" y="-125" type="curve"/>
			<point x="190" y="-178" type="line"/>
			<point x="209" y="-183"/>
			<point x="229" y="-186"/>
			<point x="247" y="-186" type="curve" smooth="yes"/>
			<point x="324" y="-186"/>
			<point x="378" y="-144"/>
			<point x="404" y="-27" type="curve" smooth="yes"/>
			<point x="422" y="56" type="line"/>
			<point x="127" y="56" type="line"/>
			<point x="189" y="152"/>
			<point x="431" y="390"/>
			<point x="516" y="466" type="curve"/>
			<point x="528" y="517" type="line"/>
			<point x="175" y="517" type="line"/>
			<point x="163" y="461" type="line"/>
			<point x="432" y="461" type="line"/>
			<point x="337" y="377"/>
			<point x="133" y="176"/>
			<point x="51" y="46" type="curve"/>
		</contour>
	</outline>
</glyph>
<glyph name="uni0229" format="2">
	<unicode hex="0229"/>
	<advance width="488"/>
	<outline>
		<contour>
			<point x="143" y="-175" type="line"/>
			<point x="169" y="-185"/>
			<point x="190" y="-187"/>
			<point x="213" y="-187" type="curve" smooth="yes"/>
			<point x="276" y="-187"/>
			<point x="324" y="-156"/>
			<point x="324" y="-102" type="curve" smooth="yes"/>
			<point x="324" y="-70"/>
			<point x="311" y="-55"/>
			<point x="280" y="-38" type="curve"/>
			<point x="284" y="-31"/>
			<point x="290" y="-21"/>
			<point x="297" y="-12" type="curve"/>
			<point x="351" y="-11"/>
			<point x="408" y="3"/>
			<point x="453" y="28" type="curve"/>
			<point x="446" y="88" type="line"/>
			<point x="404" y="61"/>
			<point x="354" y="48"/>
			<point x="308" y="48" type="curve" smooth="yes"/>
			<point x="187" y="48"/>
			<point x="162" y="110"/>
			<point x="162" y="186" type="curve" smooth="yes"/>
			<point x="162" y="207" type="line"/>
			<point x="388" y="217"/>
			<point x="540" y="247"/>
			<point x="540" y="396" type="curve" smooth="yes"/>
			<point x="540" y="476"/>
			<point x="488" y="529"/>
			<point x="395" y="529" type="curve" smooth="yes"/>
			<point x="205" y="529"/>
			<point x="98" y="350"/>
			<point x="98" y="178" type="curve" smooth="yes"/>
			<point x="98" y="77"/>
			<point x="138" y="5"/>
			<point x="251" y="-9" type="curve"/>
			<point x="238" y="-27"/>
			<point x="222" y="-50"/>
			<point x="214" y="-66" type="curve"/>
			<point x="251" y="-81"/>
			<point x="261" y="-90"/>
			<point x="261" y="-110" type="curve" smooth="yes"/>
			<point x="261" y="-132"/>
			<point x="241" y="-141"/>
			<point x="210" y="-141" type="curve" smooth="yes"/>
			<point x="193" y="-141"/>
			<point x="176" y="-138"/>
			<point x="161" y="-132" type="curve"/>
		</contour>
		<contour>
			<point x="389" y="470" type="curve" smooth="yes"/>
			<point x="439" y="470"/>
			<point x="474" y="444"/>
			<point x="474" y="392" type="curve" smooth="yes"/>
			<point x="474" y="315"/>
			<point x="400" y="271"/>
			<point x="172" y="266" type="curve"/>
			<point x="200" y="376"/>
			<point x="282" y="470"/>
		</contour>
	</outline>
</glyph>
<glyph name="uni0234" format="2">
	<unicode hex="0234"/>
	<advance width="368"/>
	<outline>
		<contour>
			<point x="-22" y="-171" type="line"/>
			<point x="-52" y="-138" type="line"/>
			<point x="82" y="-12" type="line"/>
			<point x="87" y="12" type="line"/>
			<point x="268" y="764" type="line"/>
			<point x="336" y="776" type="line"/>
			<point x="163" y="56" type="line"/>
			<point x="186" y="75"/>
			<point x="237" y="94"/>
			<point x="263" y="94" type="qcurve"/>
			<point x="312" y="94"/>
			<point x="364" y="32"/>
			<point x="364" y="-11" type="qcurve"/>
			<point x="364" y="-41"/>
			<point x="341" y="-102"/>
			<point x="297" y="-153"/>
			<point x="233" y="-185"/>
			<point x="191" y="-185" type="qcurve"/>
			<point x="172" y="-185"/>
			<point x="133" y="-173"/>
			<point x="100" y="-147"/>
			<point x="79" y="-106"/>
			<point x="78" y="-77" type="qcurve"/>
		</contour>
		<contour>
			<point x="302" y="-23" type="qcurve"/>
			<point x="302" y="8"/>
			<point x="266" y="39"/>
			<point x="240" y="39" type="qcurve"/>
			<point x="223" y="39"/>
			<point x="179" y="20"/>
			<point x="147" y="-10" type="qcurve"/>
			<point x="141" y="-33"/>
			<point x="137" y="-60"/>
			<point x="137" y="-65" type="qcurve"/>
			<point x="137" y="-97"/>
			<point x="177" y="-129"/>
			<point x="203" y="-129" type="qcurve"/>
			<point x="226" y="-129"/>
			<point x="263" y="-109"/>
			<point x="288" y="-79"/>
			<point x="302" y="-41"/>
		</contour>
	</outline>
	<guideline y="27"/>
</glyph>
<glyph name="uni023A" format="2">
	<unicode hex="023A"/>
	<advance width="618"/>
	<outline>
		<contour>
			<point x="544" y="0" type="curve"/>
			<point x="614" y="0" type="line"/>
			<point x="592" y="191"/>
			<point x="570" y="355"/>
			<point x="548" y="502" type="curve"/>
			<point x="690" y="750" type="line"/>
			<point x="643" y="772" type="line"/>
			<point x="535" y="584" type="line"/>
			<point x="517" y="693" type="line"/>
			<point x="444" y="693" type="line"/>
			<point x="305" y="488"/>
			<point x="155" y="247"/>
			<point x="18" y="0" type="curve"/>
			<point x="92" y="0" type="line"/>
			<point x="126" y="66"/>
			<point x="161" y="129"/>
			<point x="196" y="190" type="curve"/>
			<point x="308" y="190" type="line"/>
			<point x="160" y="-69" type="line"/>
			<point x="208" y="-91" type="line"/>
			<point x="369" y="190" type="line"/>
			<point x="522" y="190" type="line"/>
			<point x="530" y="126"/>
			<point x="537" y="63"/>
		</contour>
		<contour>
			<point x="463" y="615" type="curve"/>
			<point x="482" y="491" type="line"/>
			<point x="342" y="248" type="line"/>
			<point x="230" y="248" type="line"/>
			<point x="304" y="373"/>
			<point x="382" y="492"/>
		</contour>
		<contour>
			<point x="515" y="248" type="line"/>
			<point x="402" y="248" type="line"/>
			<point x="494" y="407" type="line"/>
		</contour>
	</outline>
</glyph>
<glyph name="uni023B" format="2">
	<unicode hex="023B"/>
	<advance width="622"/>
	<outline>
		<contour>
			<point x="599" y="31" type="line"/>
			<point x="579" y="20"/>
			<point x="528" y="3"/>
			<point x="472" y="-9"/>
			<point x="416" y="-15"/>
			<point x="391" y="-15" type="qcurve"/>
			<point x="326" y="-15"/>
			<point x="274" y="5" type="qcurve"/>
			<point x="210" y="-98" type="line"/>
			<point x="157" y="-73" type="line"/>
			<point x="223" y="35" type="line"/>
			<point x="183" y="67"/>
			<point x="138" y="174"/>
			<point x="138" y="253" type="qcurve"/>
			<point x="138" y="360"/>
			<point x="204" y="529"/>
			<point x="316" y="646"/>
			<point x="462" y="708"/>
			<point x="542" y="708" type="qcurve"/>
			<point x="594" y="708"/>
			<point x="633" y="699" type="qcurve"/>
			<point x="679" y="773" type="line"/>
			<point x="732" y="749" type="line"/>
			<point x="690" y="682" type="line"/>
			<point x="703" y="677"/>
			<point x="726" y="665"/>
			<point x="738" y="659" type="qcurve"/>
			<point x="705" y="599" type="line"/>
			<point x="692" y="607"/>
			<point x="668" y="620"/>
			<point x="655" y="625" type="qcurve"/>
			<point x="308" y="60" type="line"/>
			<point x="344" y="46"/>
			<point x="389" y="46" type="qcurve"/>
			<point x="429" y="46"/>
			<point x="495" y="56"/>
			<point x="544" y="70"/>
			<point x="579" y="85"/>
			<point x="590" y="91" type="qcurve"/>
		</contour>
		<contour>
			<point x="210" y="255" type="qcurve"/>
			<point x="210" y="146"/>
			<point x="259" y="93" type="qcurve"/>
			<point x="598" y="641" type="line"/>
			<point x="568" y="647"/>
			<point x="528" y="647" type="qcurve"/>
			<point x="465" y="647"/>
			<point x="350" y="592"/>
			<point x="262" y="490"/>
			<point x="210" y="345"/>
		</contour>
	</outline>
</glyph>
<glyph name="uni023D" format="2">
	<unicode hex="023D"/>
	<advance width="485"/>
	<outline>
		<contour>
			<point x="94" y="0" type="line"/>
			<point x="469" y="0" type="line"/>
			<point x="482" y="58" type="line"/>
			<point x="175" y="58" type="line"/>
			<point x="241" y="334" type="line"/>
			<point x="395" y="334" type="line"/>
			<point x="408" y="388" type="line"/>
			<point x="254" y="388" type="line"/>
			<point x="327" y="693" type="line"/>
			<point x="259" y="693" type="line"/>
			<point x="186" y="388" type="line"/>
			<point x="106" y="388" type="line"/>
			<point x="93" y="334" type="line"/>
			<point x="173" y="334" type="line"/>
		</contour>
	</outline>
	<guideline x="36" y="0" angle="103.5"/>
</glyph>
<glyph name="uni0240" format="2">
	<unicode hex="0240"/>
	<advance width="424"/>
	<outline>
		<contour>
			<point x="38" y="0" type="line"/>
			<point x="49" y="46" type="line"/>
			<point x="131" y="175"/>
			<point x="334" y="380"/>
			<point x="430" y="462" type="curve"/>
			<point x="161" y="462" type="line"/>
			<point x="174" y="517" type="line"/>
			<point x="526" y="517" type="line"/>
			<point x="514" y="466" type="line"/>
			<point x="429" y="390"/>
			<point x="195" y="159"/>
			<point x="122" y="54" type="curve"/>
			<point x="265" y="31"/>
			<point x="264" y="-128"/>
			<point x="384" y="-128" type="curve" smooth="yes"/>
			<point x="393" y="-128"/>
			<point x="402" y="-127"/>
			<point x="411" y="-125" type="curve"/>
			<point x="405" y="-178" type="line"/>
			<point x="386" y="-182"/>
			<point x="370" y="-183"/>
			<point x="355" y="-183" type="curve" smooth="yes"/>
			<point x="205" y="-183"/>
			<point x="224" y="0"/>
			<point x="71" y="0" type="curve" smooth="yes"/>
		</contour>
	</outline>
	<guideline y="-183"/>
	<guideline y="-128"/>
</glyph>
<glyph name="uni0241" format="2">
	<unicode hex="0241"/>
	<advance width="423"/>
	<outline>
		<contour>
			<point x="108" y="0" type="line"/>
			<point x="176" y="0" type="line"/>
			<point x="220" y="192" type="line" smooth="yes"/>
			<point x="241" y="285"/>
			<point x="254" y="297"/>
			<point x="343" y="345" type="curve" smooth="yes"/>
			<point x="426" y="390"/>
			<point x="520" y="427"/>
			<point x="520" y="559" type="curve" smooth="yes"/>
			<point x="520" y="659"/>
			<point x="434" y="708"/>
			<point x="332" y="708" type="curve" smooth="yes"/>
			<point x="273" y="708"/>
			<point x="209" y="691"/>
			<point x="153" y="660" type="curve"/>
			<point x="163" y="605" type="line"/>
			<point x="202" y="627"/>
			<point x="272" y="649"/>
			<point x="333" y="649" type="curve" smooth="yes"/>
			<point x="396" y="649"/>
			<point x="449" y="626"/>
			<point x="449" y="555" type="curve" smooth="yes"/>
			<point x="449" y="472"/>
			<point x="397" y="445"/>
			<point x="309" y="402" type="curve" smooth="yes"/>
			<point x="168" y="333"/>
			<point x="167" y="270"/>
			<point x="150" y="191" type="curve" smooth="yes"/>
		</contour>
	</outline>
	<guideline y="649"/>
</glyph>
<glyph name="uni0247" format="2">
	<unicode hex="0247"/>
	<advance width="508"/>
	<outline>
		<contour>
			<point x="148" y="-78" type="line"/>
			<point x="195" y="-91" type="line"/>
			<point x="232" y="-4" type="line"/>
			<point x="254" y="-9"/>
			<point x="278" y="-12"/>
			<point x="307" y="-12" type="curve" smooth="yes"/>
			<point x="365" y="-12"/>
			<point x="426" y="3"/>
			<point x="473" y="28" type="curve"/>
			<point x="466" y="88" type="line"/>
			<point x="422" y="61"/>
			<point x="369" y="48"/>
			<point x="320" y="48" type="curve" smooth="yes"/>
			<point x="295" y="48"/>
			<point x="275" y="50"/>
			<point x="257" y="54" type="curve"/>
			<point x="324" y="213" type="line"/>
			<point x="470" y="233"/>
			<point x="560" y="279"/>
			<point x="560" y="396" type="curve" smooth="yes"/>
			<point x="560" y="461"/>
			<point x="523" y="509"/>
			<point x="456" y="524" type="curve"/>
			<point x="493" y="610" type="line"/>
			<point x="446" y="623" type="line"/>
			<point x="406" y="529" type="line"/>
			<point x="209" y="528"/>
			<point x="98" y="350"/>
			<point x="98" y="178" type="curve" smooth="yes"/>
			<point x="98" y="101"/>
			<point x="122" y="42"/>
			<point x="186" y="11" type="curve"/>
		</contour>
		<contour>
			<point x="172" y="263" type="curve"/>
			<point x="199" y="368"/>
			<point x="277" y="458"/>
			<point x="381" y="469" type="curve"/>
			<point x="296" y="270" type="line"/>
			<point x="261" y="266"/>
			<point x="219" y="264"/>
		</contour>
		<contour>
			<point x="494" y="392" type="curve" smooth="yes"/>
			<point x="494" y="334"/>
			<point x="456" y="296"/>
			<point x="351" y="277" type="curve"/>
			<point x="432" y="467" type="line"/>
			<point x="470" y="458"/>
			<point x="494" y="433"/>
		</contour>
		<contour>
			<point x="269" y="207" type="curve"/>
			<point x="212" y="72" type="line"/>
			<point x="172" y="97"/>
			<point x="162" y="138"/>
			<point x="162" y="186" type="curve" smooth="yes"/>
			<point x="162" y="200" type="line"/>
			<point x="200" y="201"/>
			<point x="236" y="204"/>
		</contour>
	</outline>
	<guideline y="273"/>
</glyph>
<glyph name="uni024B" format="2">
	<unicode hex="024B"/>
	<advance width="529"/>
	<outline>
		<contour>
			<point x="526" y="-125" type="line"/>
			<point x="508" y="-129"/>
			<point x="494" y="-130"/>
			<point x="483" y="-130" type="curve" smooth="yes"/>
			<point x="446" y="-130"/>
			<point x="435" y="-109"/>
			<point x="435" y="-81" type="curve" smooth="yes"/>
			<point x="435" y="-69"/>
			<point x="437" y="-55"/>
			<point x="440" y="-42" type="curve" smooth="yes"/>
			<point x="571" y="503" type="line"/>
			<point x="543" y="522"/>
			<point x="495" y="529"/>
			<point x="470" y="529" type="curve" smooth="yes"/>
			<point x="202" y="529"/>
			<point x="98" y="345"/>
			<point x="98" y="176" type="curve" smooth="yes"/>
			<point x="98" y="78"/>
			<point x="144" y="-12"/>
			<point x="264" y="-12" type="curve" smooth="yes"/>
			<point x="312" y="-12"/>
			<point x="357" y="-1"/>
			<point x="388" y="16" type="curve"/>
			<point x="375" y="-37" type="line" smooth="yes"/>
			<point x="370" y="-58"/>
			<point x="367" y="-77"/>
			<point x="367" y="-94" type="curve" smooth="yes"/>
			<point x="367" y="-151"/>
			<point x="397" y="-186"/>
			<point x="471" y="-186" type="curve" smooth="yes"/>
			<point x="487" y="-186"/>
			<point x="505" y="-185"/>
			<point x="520" y="-180" type="curve"/>
		</contour>
		<contour>
			<point x="496" y="463" type="curve"/>
			<point x="406" y="90" type="line"/>
			<point x="373" y="63"/>
			<point x="324" y="45"/>
			<point x="278" y="45" type="curve" smooth="yes"/>
			<point x="180" y="45"/>
			<point x="164" y="129"/>
			<point x="164" y="185" type="curve" smooth="yes"/>
			<point x="164" y="350"/>
			<point x="278" y="471"/>
			<point x="450" y="471" type="curve" smooth="yes"/>
			<point x="463" y="471"/>
			<point x="481" y="466"/>
		</contour>
	</outline>
	<guideline y="-186"/>
	<guideline y="-130"/>
</glyph>
<glyph name="uni024D" format="2">
	<unicode hex="024D"/>
	<advance width="401"/>
	<outline>
		<contour>
			<point x="169" y="214" type="line"/>
			<point x="93" y="214" type="line"/>
			<point x="106" y="267" type="line"/>
			<point x="181" y="267" type="line"/>
			<point x="236" y="494" type="line"/>
			<point x="274" y="509"/>
			<point x="365" y="529"/>
			<point x="409" y="529" type="qcurve"/>
			<point x="432" y="529"/>
			<point x="474" y="523"/>
			<point x="493" y="516" type="qcurve"/>
			<point x="476" y="457" type="line"/>
			<point x="437" y="469"/>
			<point x="396" y="469" type="qcurve"/>
			<point x="370" y="469"/>
			<point x="318" y="461"/>
			<point x="292" y="453" type="qcurve"/>
			<point x="247" y="267" type="line"/>
			<point x="391" y="267" type="line"/>
			<point x="378" y="214" type="line"/>
			<point x="234" y="214" type="line"/>
			<point x="183" y="0" type="line"/>
			<point x="118" y="0" type="line"/>
		</contour>
	</outline>
</glyph>
<glyph name="uni024F" format="2">
	<unicode hex="024F"/>
	<advance width="467"/>
	<outline>
		<contour>
			<point x="-52" y="-170" type="line"/>
			<point x="-22" y="-186"/>
			<point x="7" y="-188"/>
			<point x="31" y="-188" type="curve" smooth="yes"/>
			<point x="135" y="-188"/>
			<point x="228" y="-121"/>
			<point x="330" y="32" type="curve" smooth="yes"/>
			<point x="379" y="105"/>
			<point x="420" y="183"/>
			<point x="452" y="255" type="curve"/>
			<point x="529" y="255" type="line"/>
			<point x="542" y="308" type="line"/>
			<point x="475" y="308" type="line"/>
			<point x="516" y="407"/>
			<point x="541" y="487"/>
			<point x="549" y="517" type="curve"/>
			<point x="485" y="517" type="line"/>
			<point x="474" y="476"/>
			<point x="449" y="399"/>
			<point x="410" y="308" type="curve"/>
			<point x="215" y="308" type="line"/>
			<point x="204" y="385"/>
			<point x="199" y="457"/>
			<point x="197" y="517" type="curve"/>
			<point x="129" y="517" type="line"/>
			<point x="131" y="450"/>
			<point x="137" y="379"/>
			<point x="148" y="308" type="curve"/>
			<point x="77" y="308" type="line"/>
			<point x="64" y="255" type="line"/>
			<point x="156" y="255" type="line"/>
			<point x="172" y="163"/>
			<point x="194" y="71"/>
			<point x="223" y="-18" type="curve"/>
			<point x="168" y="-93"/>
			<point x="100" y="-131"/>
			<point x="32" y="-131" type="curve" smooth="yes"/>
			<point x="10" y="-131"/>
			<point x="-11" y="-126"/>
			<point x="-29" y="-116" type="curve"/>
		</contour>
		<contour>
			<point x="271" y="41" type="curve"/>
			<point x="250" y="110"/>
			<point x="234" y="184"/>
			<point x="222" y="255" type="curve"/>
			<point x="386" y="255" type="line"/>
			<point x="355" y="186"/>
			<point x="316" y="112"/>
		</contour>
	</outline>
</glyph>
<glyph name="apostrophe" format="2">
	<unicode hex="02BC"/>
	<advance width="236"/>
	<outline>
		<contour>
			<point x="188" y="586" type="line"/>
			<point x="237" y="647"/>
			<point x="272" y="727"/>
			<point x="274" y="776" type="curve"/>
			<point x="347" y="776" type="line"/>
			<point x="332" y="706"/>
			<point x="292" y="640"/>
			<point x="232" y="569" type="curve"/>
		</contour>
	</outline>
</glyph>
<glyph name="caron" format="2">
	<unicode hex="02C7"/>
	<advance width="336"/>
	<outline>
		<contour>
			<point x="315" y="667" type="line"/>
			<point x="234" y="763" type="line"/>
			<point x="200" y="730" type="line"/>
			<point x="299" y="583" type="line"/>
			<point x="468" y="730" type="line"/>
			<point x="442" y="763" type="line"/>
		</contour>
	</outline>
	<guideline y="585"/>
</glyph>
<glyph name="breve" format="2">
	<unicode hex="02D8"/>
	<advance width="336"/>
	<outline>
		<contour>
			<point x="222" y="746" type="qcurve"/>
			<point x="264" y="746" type="line"/>
			<point x="263" y="741"/>
			<point x="263" y="733"/>
			<point x="263" y="729" type="qcurve"/>
			<point x="263" y="701"/>
			<point x="294" y="669"/>
			<point x="325" y="669" type="qcurve"/>
			<point x="352" y="669"/>
			<point x="387" y="688"/>
			<point x="409" y="713"/>
			<point x="420" y="739"/>
			<point x="422" y="746" type="qcurve"/>
			<point x="464" y="746" type="line"/>
			<point x="456" y="677"/>
			<point x="377" y="613"/>
			<point x="316" y="613" type="qcurve"/>
			<point x="267" y="613"/>
			<point x="218" y="670"/>
			<point x="218" y="713" type="qcurve"/>
			<point x="218" y="720"/>
			<point x="220" y="737"/>
		</contour>
	</outline>
	<guideline x="164"/>
</glyph>
<glyph name="tilde" format="2">
	<unicode hex="02DC"/>
	<advance width="336"/>
	<outline>
		<contour>
			<point x="385" y="629" type="curve" smooth="yes"/>
			<point x="451" y="629"/>
			<point x="479" y="667"/>
			<point x="501" y="705" type="curve"/>
			<point x="465" y="728" type="line"/>
			<point x="444" y="698"/>
			<point x="428" y="682"/>
			<point x="399" y="682" type="curve" smooth="yes"/>
			<point x="351" y="682"/>
			<point x="330" y="721"/>
			<point x="281" y="721" type="curve" smooth="yes"/>
			<point x="215" y="721"/>
			<point x="187" y="682"/>
			<point x="165" y="644" type="curve"/>
			<point x="201" y="622" type="line"/>
			<point x="222" y="652"/>
			<point x="238" y="668"/>
			<point x="267" y="668" type="curve" smooth="yes"/>
			<point x="315" y="668"/>
			<point x="335" y="629"/>
		</contour>
	</outline>
</glyph>
<glyph name="breve_inverted" format="2">
	<unicode hex="0311"/>
	<advance width="336"/>
	<outline>
		<contour>
			<point x="431" y="613" type="curve"/>
			<point x="388" y="613" type="line"/>
			<point x="389" y="619"/>
			<point x="389" y="625"/>
			<point x="389" y="630" type="curve" smooth="yes"/>
			<point x="389" y="667"/>
			<point x="368" y="690"/>
			<point x="327" y="690" type="curve" smooth="yes"/>
			<point x="256" y="690"/>
			<point x="236" y="632"/>
			<point x="231" y="613" type="curve"/>
			<point x="188" y="613" type="line"/>
			<point x="199" y="704"/>
			<point x="255" y="746"/>
			<point x="336" y="746" type="curve" smooth="yes"/>
			<point x="401" y="746"/>
			<point x="434" y="703"/>
			<point x="434" y="646" type="curve" smooth="yes"/>
			<point x="434" y="637"/>
			<point x="433" y="625"/>
		</contour>
	</outline>
</glyph>
<glyph name="uni0394" format="2">
	<unicode hex="0394"/>
	<advance width="613"/>
	<outline>
		<contour>
			<point x="526" y="59" type="line"/>
			<point x="521" y="117"/>
			<point x="508" y="240"/>
			<point x="491" y="374"/>
			<point x="469" y="520"/>
			<point x="455" y="602" type="qcurve"/>
			<point x="409" y="534"/>
			<point x="245" y="272"/>
			<point x="131" y="59" type="qcurve"/>
		</contour>
		<contour>
			<point x="26" y="0" type="line"/>
			<point x="52" y="52"/>
			<point x="121" y="175"/>
			<point x="196" y="304"/>
			<point x="276" y="435"/>
			<point x="351" y="554"/>
			<point x="417" y="656"/>
			<point x="442" y="693" type="qcurve"/>
			<point x="502" y="693" type="line"/>
			<point x="518" y="620"/>
			<point x="545" y="471"/>
			<point x="569" y="305"/>
			<point x="592" y="114"/>
			<point x="603" y="0" type="qcurve"/>
		</contour>
	</outline>
</glyph>
<glyph name="Theta" format="2">
	<unicode hex="0398"/>
	<advance width="748"/>
	<outline>
		<contour>
			<point x="613" y="378" type="line"/>
			<point x="318" y="378" type="line"/>
			<point x="304" y="320" type="line"/>
			<point x="599" y="320" type="line"/>
		</contour>
		<contour>
			<point x="138" y="258" type="curve" smooth="yes"/>
			<point x="138" y="72"/>
			<point x="253" y="-15"/>
			<point x="385" y="-15" type="curve" smooth="yes"/>
			<point x="581" y="-15"/>
			<point x="780" y="159"/>
			<point x="780" y="436" type="curve" smooth="yes"/>
			<point x="780" y="621"/>
			<point x="665" y="708"/>
			<point x="533" y="708" type="curve" smooth="yes"/>
			<point x="337" y="708"/>
			<point x="138" y="534"/>
		</contour>
		<contour>
			<point x="210" y="247" type="curve" smooth="yes"/>
			<point x="210" y="503"/>
			<point x="365" y="647"/>
			<point x="527" y="647" type="curve" smooth="yes"/>
			<point x="627" y="647"/>
			<point x="708" y="582"/>
			<point x="708" y="446" type="curve" smooth="yes"/>
			<point x="708" y="190"/>
			<point x="553" y="46"/>
			<point x="391" y="46" type="curve" smooth="yes"/>
			<point x="291" y="46"/>
			<point x="210" y="111"/>
		</contour>
	</outline>
	<guideline y="309"/>
</glyph>
<glyph name="Lambda" format="2">
	<unicode hex="039B"/>
	<advance width="605"/>
	<outline>
		<contour>
			<point x="20" y="0" type="line"/>
			<point x="162" y="270"/>
			<point x="303" y="493"/>
			<point x="440" y="693" type="curve"/>
			<point x="513" y="693" type="line"/>
			<point x="546" y="506"/>
			<point x="575" y="308"/>
			<point x="604" y="0" type="curve"/>
			<point x="534" y="0" type="line"/>
			<point x="511" y="235"/>
			<point x="488" y="449"/>
			<point x="459" y="614" type="curve"/>
			<point x="337" y="437"/>
			<point x="203" y="224"/>
			<point x="94" y="0" type="curve"/>
		</contour>
	</outline>
</glyph>
<glyph name="Psi" format="2">
	<unicode hex="03A8"/>
	<advance width="748"/>
	<outline>
		<contour>
			<point x="330" y="0" type="line"/>
			<point x="398" y="0" type="line"/>
			<point x="442" y="183" type="line"/>
			<point x="684" y="183"/>
			<point x="764" y="311"/>
			<point x="800" y="462" type="curve" smooth="yes"/>
			<point x="855" y="693" type="line"/>
			<point x="788" y="693" type="line"/>
			<point x="734" y="472" type="line" smooth="yes"/>
			<point x="696" y="318"/>
			<point x="618" y="245"/>
			<point x="458" y="246" type="curve"/>
			<point x="565" y="693" type="line"/>
			<point x="497" y="693" type="line"/>
			<point x="391" y="246" type="line"/>
			<point x="226" y="249"/>
			<point x="195" y="333"/>
			<point x="234" y="490" type="curve" smooth="yes"/>
			<point x="284" y="693" type="line"/>
			<point x="216" y="693" type="line"/>
			<point x="166" y="480" type="line" smooth="yes"/>
			<point x="124" y="301"/>
			<point x="188" y="196"/>
			<point x="374" y="183" type="curve"/>
		</contour>
	</outline>
</glyph>
<glyph name="gamma" format="2">
	<unicode hex="03B3"/>
	<advance width="450"/>
	<outline>
		<contour>
			<point x="149" y="-185" type="line"/>
			<point x="160" y="-127"/>
			<point x="164" y="4"/>
			<point x="164" y="76" type="qcurve"/>
			<point x="164" y="142"/>
			<point x="159" y="274"/>
			<point x="152" y="391"/>
			<point x="144" y="487"/>
			<point x="140" y="517" type="qcurve"/>
			<point x="202" y="517" type="line"/>
			<point x="206" y="480"/>
			<point x="215" y="373"/>
			<point x="223" y="250"/>
			<point x="227" y="122"/>
			<point x="227" y="65" type="qcurve"/>
			<point x="281" y="122"/>
			<point x="366" y="242"/>
			<point x="429" y="359"/>
			<point x="474" y="470"/>
			<point x="488" y="517" type="qcurve"/>
			<point x="550" y="517" type="line"/>
			<point x="541" y="485"/>
			<point x="500" y="373"/>
			<point x="425" y="232"/>
			<point x="309" y="73"/>
			<point x="227" y="-5" type="qcurve"/>
			<point x="225" y="-43"/>
			<point x="219" y="-137"/>
			<point x="211" y="-185" type="qcurve"/>
		</contour>
	</outline>
	<guideline x="174"/>
	<guideline x="264"/>
</glyph>
<glyph name="kappa" format="2">
	<unicode hex="03BA"/>
	<advance width="504"/>
	<outline>
		<contour>
			<point x="208" y="517" type="line"/>
			<point x="273" y="517" type="line"/>
			<point x="220" y="298" type="line"/>
			<point x="256" y="322"/>
			<point x="334" y="383"/>
			<point x="406" y="444"/>
			<point x="464" y="499"/>
			<point x="480" y="517" type="qcurve"/>
			<point x="559" y="517" type="line"/>
			<point x="541" y="494"/>
			<point x="471" y="427"/>
			<point x="390" y="358"/>
			<point x="314" y="299"/>
			<point x="290" y="285" type="qcurve"/>
			<point x="324" y="259"/>
			<point x="393" y="189"/>
			<point x="452" y="112"/>
			<point x="498" y="34"/>
			<point x="510" y="0" type="qcurve"/>
			<point x="440" y="0" type="line"/>
			<point x="396" y="94"/>
			<point x="276" y="229"/>
			<point x="214" y="271" type="qcurve"/>
			<point x="148" y="0" type="line"/>
			<point x="83" y="0" type="line"/>
		</contour>
	</outline>
</glyph>
<glyph name="xi" format="2">
	<unicode hex="03BE"/>
	<advance width="408"/>
	<outline>
		<contour>
			<point x="332" y="-190" type="line"/>
			<point x="390" y="-141"/>
			<point x="412" y="-69"/>
			<point x="412" y="-40" type="curve" smooth="yes"/>
			<point x="412" y="121"/>
			<point x="153" y="20"/>
			<point x="153" y="194" type="curve" smooth="yes"/>
			<point x="153" y="336"/>
			<point x="289" y="387"/>
			<point x="406" y="387" type="curve" smooth="yes"/>
			<point x="454" y="387" type="line"/>
			<point x="467" y="442" type="line"/>
			<point x="399" y="442" type="line" smooth="yes"/>
			<point x="305" y="442"/>
			<point x="268" y="491"/>
			<point x="268" y="556" type="curve" smooth="yes"/>
			<point x="268" y="638"/>
			<point x="331" y="718"/>
			<point x="449" y="718" type="curve" smooth="yes"/>
			<point x="482" y="718"/>
			<point x="516" y="712"/>
			<point x="546" y="698" type="curve"/>
			<point x="570" y="753" type="line"/>
			<point x="540" y="766"/>
			<point x="496" y="776"/>
			<point x="459" y="776" type="curve" smooth="yes"/>
			<point x="287" y="776"/>
			<point x="203" y="655"/>
			<point x="203" y="550" type="curve" smooth="yes"/>
			<point x="203" y="495"/>
			<point x="228" y="445"/>
			<point x="276" y="419" type="curve"/>
			<point x="176" y="388"/>
			<point x="88" y="318"/>
			<point x="88" y="187" type="curve" smooth="yes"/>
			<point x="88" y="-21"/>
			<point x="347" y="59"/>
			<point x="347" y="-47" type="curve" smooth="yes"/>
			<point x="347" y="-107"/>
			<point x="303" y="-144"/>
			<point x="283" y="-163" type="curve"/>
		</contour>
	</outline>
	<guideline y="216"/>
	<guideline x="376" y="0" angle="103.5"/>
</glyph>
<glyph name="upsilon" format="2">
	<unicode hex="03C5"/>
	<advance width="498"/>
	<outline>
		<contour>
			<point x="113" y="256" type="line" smooth="yes"/>
			<point x="103" y="217"/>
			<point x="98" y="179"/>
			<point x="98" y="145" type="curve" smooth="yes"/>
			<point x="98" y="54"/>
			<point x="139" y="-11"/>
			<point x="265" y="-11" type="curve" smooth="yes"/>
			<point x="459" y="-11"/>
			<point x="484" y="138"/>
			<point x="503" y="218" type="curve" smooth="yes"/>
			<point x="575" y="517" type="line"/>
			<point x="510" y="517" type="line"/>
			<point x="440" y="227" type="line" smooth="yes"/>
			<point x="409" y="99"/>
			<point x="370" y="49"/>
			<point x="263" y="49" type="curve" smooth="yes"/>
			<point x="184" y="49"/>
			<point x="162" y="94"/>
			<point x="162" y="151" type="curve" smooth="yes"/>
			<point x="162" y="188"/>
			<point x="171" y="230"/>
			<point x="181" y="269" type="curve" smooth="yes"/>
			<point x="241" y="517" type="line"/>
			<point x="176" y="517" type="line"/>
		</contour>
	</outline>
</glyph>
<glyph name="phi" format="2">
	<unicode hex="03C6"/>
	<advance width="700"/>
	<outline>
		<contour>
			<point x="274" y="-185" type="line"/>
			<point x="317" y="-5" type="line"/>
			<point x="166" y="6"/>
			<point x="98" y="86"/>
			<point x="98" y="206" type="curve" smooth="yes"/>
			<point x="98" y="397"/>
			<point x="231" y="529"/>
			<point x="466" y="529" type="curve" smooth="yes"/>
			<point x="640" y="529"/>
			<point x="732" y="444"/>
			<point x="732" y="313" type="curve" smooth="yes"/>
			<point x="732" y="127"/>
			<point x="611" y="1"/>
			<point x="381" y="-6" type="curve"/>
			<point x="339" y="-185" type="line"/>
		</contour>
		<contour>
			<point x="668" y="306" type="curve" smooth="yes"/>
			<point x="668" y="403"/>
			<point x="608" y="462"/>
			<point x="496" y="473" type="curve"/>
			<point x="394" y="46" type="line"/>
			<point x="576" y="56"/>
			<point x="668" y="165"/>
		</contour>
		<contour>
			<point x="162" y="213" type="curve" smooth="yes"/>
			<point x="162" y="105"/>
			<point x="220" y="55"/>
			<point x="329" y="46" type="curve"/>
			<point x="432" y="474" type="line"/>
			<point x="287" y="465"/>
			<point x="162" y="384"/>
		</contour>
	</outline>
	<guideline x="362"/>
	<guideline y="-168"/>
	<guideline y="533"/>
</glyph>
<glyph name="omega" format="2">
	<unicode hex="03C9"/>
	<advance width="771"/>
	<outline>
		<contour>
			<point x="431" y="296" type="line" smooth="yes"/>
			<point x="389" y="115"/>
			<point x="337" y="50"/>
			<point x="255" y="50" type="curve" smooth="yes"/>
			<point x="187" y="50"/>
			<point x="163" y="99"/>
			<point x="163" y="164" type="curve" smooth="yes"/>
			<point x="163" y="265"/>
			<point x="226" y="403"/>
			<point x="324" y="499" type="curve"/>
			<point x="270" y="526" type="line"/>
			<point x="166" y="422"/>
			<point x="98" y="284"/>
			<point x="98" y="159" type="curve" smooth="yes"/>
			<point x="98" y="35"/>
			<point x="169" y="-10"/>
			<point x="245" y="-10" type="curve" smooth="yes"/>
			<point x="320" y="-10"/>
			<point x="387" y="32"/>
			<point x="420" y="91" type="curve"/>
			<point x="437" y="27"/>
			<point x="490" y="-10"/>
			<point x="559" y="-10" type="curve" smooth="yes"/>
			<point x="674" y="-10"/>
			<point x="793" y="67"/>
			<point x="793" y="292" type="curve" smooth="yes"/>
			<point x="793" y="387"/>
			<point x="772" y="471"/>
			<point x="748" y="525" type="curve"/>
			<point x="683" y="500" type="line"/>
			<point x="701" y="460"/>
			<point x="727" y="376"/>
			<point x="727" y="294" type="curve" smooth="yes"/>
			<point x="727" y="129"/>
			<point x="656" y="50"/>
			<point x="563" y="50" type="curve" smooth="yes"/>
			<point x="492" y="50"/>
			<point x="474" y="103"/>
			<point x="474" y="161" type="curve" smooth="yes"/>
			<point x="474" y="205"/>
			<point x="484" y="251"/>
			<point x="491" y="280" type="curve" smooth="yes"/>
			<point x="525" y="420" type="line"/>
			<point x="460" y="420" type="line"/>
		</contour>
	</outline>
</glyph>
<glyph name="afii10051" format="2">
	<unicode hex="0402"/>
	<advance width="705"/>
	<outline>
		<contour>
			<point x="214" y="0" type="line"/>
			<point x="282" y="0" type="line"/>
			<point x="367" y="356" type="line"/>
			<point x="412" y="370"/>
			<point x="455" y="377"/>
			<point x="493" y="377" type="curve" smooth="yes"/>
			<point x="601" y="377"/>
			<point x="646" y="323"/>
			<point x="646" y="235" type="curve" smooth="yes"/>
			<point x="646" y="134"/>
			<point x="594" y="55"/>
			<point x="492" y="55" type="curve" smooth="yes"/>
			<point x="480" y="55"/>
			<point x="468" y="56"/>
			<point x="456" y="59" type="curve"/>
			<point x="441" y="4" type="line"/>
			<point x="461" y="0"/>
			<point x="478" y="-2"/>
			<point x="496" y="-2" type="curve" smooth="yes"/>
			<point x="635" y="-2"/>
			<point x="717" y="115"/>
			<point x="717" y="239" type="curve" smooth="yes"/>
			<point x="717" y="351"/>
			<point x="656" y="437"/>
			<point x="520" y="437" type="curve" smooth="yes"/>
			<point x="476" y="437"/>
			<point x="428" y="429"/>
			<point x="380" y="414" type="curve"/>
			<point x="434" y="634" type="line"/>
			<point x="659" y="634" type="line"/>
			<point x="672" y="693" type="line"/>
			<point x="182" y="693" type="line"/>
			<point x="168" y="634" type="line"/>
			<point x="366" y="634" type="line"/>
		</contour>
	</outline>
	<guideline x="717"/>
	<guideline y="-2"/>
	<guideline y="55"/>
	<guideline x="692" y="0" angle="103.5"/>
</glyph>
<glyph name="afii10060" format="2">
	<unicode hex="040B"/>
	<advance width="713"/>
	<outline>
		<contour>
			<point x="514" y="374" type="curve" smooth="yes"/>
			<point x="607" y="374"/>
			<point x="635" y="338"/>
			<point x="635" y="282" type="curve" smooth="yes"/>
			<point x="635" y="260"/>
			<point x="630" y="234"/>
			<point x="624" y="207" type="curve" smooth="yes"/>
			<point x="574" y="0" type="line"/>
			<point x="642" y="0" type="line"/>
			<point x="693" y="212" type="line" smooth="yes"/>
			<point x="700" y="243"/>
			<point x="704" y="271"/>
			<point x="704" y="296" type="curve" smooth="yes"/>
			<point x="704" y="384"/>
			<point x="655" y="434"/>
			<point x="541" y="434" type="curve" smooth="yes"/>
			<point x="497" y="434"/>
			<point x="442" y="428"/>
			<point x="394" y="413" type="curve"/>
			<point x="448" y="634" type="line"/>
			<point x="673" y="634" type="line"/>
			<point x="686" y="693" type="line"/>
			<point x="196" y="693" type="line"/>
			<point x="182" y="634" type="line"/>
			<point x="380" y="634" type="line"/>
			<point x="228" y="0" type="line"/>
			<point x="296" y="0" type="line"/>
			<point x="380" y="354" type="line"/>
			<point x="425" y="367"/>
			<point x="476" y="374"/>
		</contour>
	</outline>
</glyph>
<glyph name="afii10020" format="2">
	<unicode hex="0413"/>
	<advance width="465"/>
	<outline>
		<contour>
			<point x="249" y="693" type="line"/>
			<point x="617" y="693" type="line"/>
			<point x="604" y="637" type="line"/>
			<point x="304" y="637" type="line"/>
			<point x="151" y="0" type="line"/>
			<point x="83" y="0" type="line"/>
		</contour>
	</outline>
</glyph>
<glyph name="afii10021" format="2">
	<unicode hex="0414"/>
	<advance width="641"/>
	<outline>
		<contour>
			<point x="638" y="634" type="line"/>
			<point x="500" y="59" type="line"/>
			<point x="170" y="59" type="line"/>
			<point x="318" y="204"/>
			<point x="381" y="467"/>
			<point x="414" y="620" type="curve" smooth="yes"/>
			<point x="417" y="634" type="line"/>
		</contour>
		<contour>
			<point x="365" y="693" type="line"/>
			<point x="360" y="671" type="line" smooth="yes"/>
			<point x="314" y="467"/>
			<point x="249" y="196"/>
			<point x="80" y="59" type="curve"/>
			<point x="27" y="59" type="line"/>
			<point x="-32" y="-185" type="line"/>
			<point x="31" y="-185" type="line"/>
			<point x="76" y="0" type="line"/>
			<point x="559" y="0" type="line"/>
			<point x="514" y="-185" type="line"/>
			<point x="579" y="-185" type="line"/>
			<point x="638" y="59" type="line"/>
			<point x="568" y="59" type="line"/>
			<point x="719" y="693" type="line"/>
		</contour>
	</outline>
</glyph>
<glyph name="afii10029" format="2">
	<unicode hex="041B"/>
	<advance width="624"/>
	<outline>
		<contour>
			<point x="18" y="50" type="line"/>
			<point x="51" y="56"/>
			<point x="107" y="77"/>
			<point x="156" y="121"/>
			<point x="203" y="191"/>
			<point x="228" y="247" type="qcurve"/>
			<point x="244" y="284"/>
			<point x="273" y="364"/>
			<point x="303" y="467"/>
			<point x="336" y="601"/>
			<point x="357" y="693" type="qcurve"/>
			<point x="711" y="693" type="line"/>
			<point x="544" y="0" type="line"/>
			<point x="476" y="0" type="line"/>
			<point x="628" y="634" type="line"/>
			<point x="414" y="634" type="line"/>
			<point x="386" y="522"/>
			<point x="330" y="317"/>
			<point x="295" y="228" type="qcurve"/>
			<point x="285" y="202"/>
			<point x="248" y="126"/>
			<point x="185" y="53"/>
			<point x="91" y="-2"/>
			<point x="24" y="-7" type="qcurve"/>
		</contour>
	</outline>
	<guideline y="-7"/>
	<guideline y="50"/>
</glyph>
<glyph name="afii10045" format="2">
	<unicode hex="042B"/>
	<advance width="775"/>
	<outline>
		<contour>
			<point x="246" y="693" type="line"/>
			<point x="314" y="693" type="line"/>
			<point x="251" y="428" type="line"/>
			<point x="281" y="430"/>
			<point x="321" y="434"/>
			<point x="341" y="434" type="qcurve"/>
			<point x="393" y="434"/>
			<point x="480" y="417"/>
			<point x="542" y="378"/>
			<point x="576" y="315"/>
			<point x="576" y="269" type="qcurve"/>
			<point x="576" y="189"/>
			<point x="520" y="83"/>
			<point x="428" y="20"/>
			<point x="313" y="-6"/>
			<point x="254" y="-6" type="qcurve"/>
			<point x="233" y="-6"/>
			<point x="186" y="-3"/>
			<point x="140" y="1"/>
			<point x="99" y="8"/>
			<point x="83" y="13" type="qcurve"/>
		</contour>
		<contour>
			<point x="162" y="60" type="line"/>
			<point x="170" y="59"/>
			<point x="219" y="53"/>
			<point x="255" y="53" type="qcurve"/>
			<point x="299" y="53"/>
			<point x="389" y="69"/>
			<point x="462" y="115"/>
			<point x="508" y="196"/>
			<point x="508" y="262" type="qcurve"/>
			<point x="508" y="298"/>
			<point x="481" y="342"/>
			<point x="435" y="367"/>
			<point x="373" y="375"/>
			<point x="338" y="375" type="qcurve"/>
			<point x="313" y="375"/>
			<point x="279" y="373"/>
			<point x="256" y="371"/>
			<point x="242" y="369"/>
			<point x="237" y="369" type="qcurve"/>
		</contour>
		<contour>
			<point x="794" y="693" type="line"/>
			<point x="862" y="693" type="line"/>
			<point x="695" y="0" type="line"/>
			<point x="627" y="0" type="line"/>
		</contour>
	</outline>
</glyph>
<glyph name="afii10069" format="2">
	<unicode hex="0434"/>
	<advance width="521"/>
	<outline>
		<contour>
			<point x="369" y="514" type="curve" smooth="yes"/>
			<point x="175" y="514"/>
			<point x="108" y="326"/>
			<point x="108" y="168" type="curve" smooth="yes"/>
			<point x="108" y="70"/>
			<point x="156" y="-12"/>
			<point x="264" y="-12" type="curve" smooth="yes"/>
			<point x="523" y="-12"/>
			<point x="548" y="312"/>
			<point x="548" y="442" type="curve" smooth="yes"/>
			<point x="548" y="668"/>
			<point x="464" y="776"/>
			<point x="302" y="776" type="curve" smooth="yes"/>
			<point x="247" y="776"/>
			<point x="216" y="768"/>
			<point x="207" y="764" type="curve"/>
			<point x="213" y="706" type="line"/>
			<point x="224" y="711"/>
			<point x="253" y="718"/>
			<point x="287" y="718" type="curve" smooth="yes"/>
			<point x="417" y="718"/>
			<point x="474" y="645"/>
			<point x="484" y="482" type="curve"/>
			<point x="457" y="500"/>
			<point x="410" y="514"/>
		</contour>
		<contour>
			<point x="277" y="46" type="curve" smooth="yes"/>
			<point x="210" y="46"/>
			<point x="172" y="85"/>
			<point x="172" y="164" type="curve" smooth="yes"/>
			<point x="172" y="333"/>
			<point x="240" y="456"/>
			<point x="368" y="456" type="curve" smooth="yes"/>
			<point x="428" y="456"/>
			<point x="463" y="438"/>
			<point x="486" y="423" type="curve"/>
			<point x="486" y="421" type="line" smooth="yes"/>
			<point x="486" y="257"/>
			<point x="422" y="46"/>
		</contour>
	</outline>
</glyph>
<glyph name="afii10073" format="2">
	<unicode hex="0437"/>
	<advance width="415"/>
	<outline>
		<contour>
			<point x="38" y="11" type="line"/>
			<point x="57" y="2"/>
			<point x="108" y="-12"/>
			<point x="168" y="-12" type="curve" smooth="yes"/>
			<point x="304" y="-12"/>
			<point x="411" y="42"/>
			<point x="411" y="173" type="curve" smooth="yes"/>
			<point x="411" y="217"/>
			<point x="385" y="255"/>
			<point x="337" y="272" type="curve"/>
			<point x="410" y="297"/>
			<point x="447" y="344"/>
			<point x="447" y="404" type="curve" smooth="yes"/>
			<point x="447" y="498"/>
			<point x="369" y="528"/>
			<point x="285" y="528" type="curve" smooth="yes"/>
			<point x="238" y="528"/>
			<point x="189" y="518"/>
			<point x="152" y="506" type="curve"/>
			<point x="157" y="448" type="line"/>
			<point x="188" y="462"/>
			<point x="237" y="470"/>
			<point x="284" y="470" type="curve" smooth="yes"/>
			<point x="336" y="470"/>
			<point x="382" y="455"/>
			<point x="382" y="406" type="curve" smooth="yes"/>
			<point x="382" y="315"/>
			<point x="295" y="299"/>
			<point x="235" y="299" type="curve" smooth="yes"/>
			<point x="189" y="299" type="line"/>
			<point x="176" y="244" type="line"/>
			<point x="221" y="244" type="line" smooth="yes"/>
			<point x="269" y="244"/>
			<point x="346" y="235"/>
			<point x="346" y="169" type="curve" smooth="yes"/>
			<point x="346" y="71"/>
			<point x="254" y="46"/>
			<point x="181" y="46" type="curve" smooth="yes"/>
			<point x="106" y="46"/>
			<point x="75" y="62"/>
			<point x="58" y="69" type="curve"/>
		</contour>
	</outline>
</glyph>
<glyph name="afii10092" format="2">
	<unicode hex="044A"/>
	<advance width="546"/>
	<outline>
		<contour>
			<point x="263" y="310" type="line"/>
			<point x="286" y="316"/>
			<point x="347" y="326"/>
			<point x="380" y="326" type="curve" smooth="yes"/>
			<point x="489" y="326"/>
			<point x="553" y="289"/>
			<point x="553" y="193" type="curve" smooth="yes"/>
			<point x="553" y="27"/>
			<point x="413" y="-11"/>
			<point x="302" y="-11" type="curve" smooth="yes"/>
			<point x="233" y="-11"/>
			<point x="170" y="-2"/>
			<point x="127" y="12" type="curve"/>
			<point x="235" y="462" type="line"/>
			<point x="118" y="462" type="line"/>
			<point x="131" y="517" type="line"/>
			<point x="313" y="517" type="line"/>
		</contour>
		<contour>
			<point x="202" y="57" type="line"/>
			<point x="221" y="54"/>
			<point x="253" y="47"/>
			<point x="308" y="47" type="curve" smooth="yes"/>
			<point x="406" y="47"/>
			<point x="486" y="86"/>
			<point x="486" y="183" type="curve" smooth="yes"/>
			<point x="486" y="240"/>
			<point x="455" y="268"/>
			<point x="372" y="268" type="curve" smooth="yes"/>
			<point x="324" y="268"/>
			<point x="275" y="259"/>
			<point x="250" y="253" type="curve"/>
		</contour>
	</outline>
	<guideline x="258" y="0" angle="103.5"/>
</glyph>
<glyph name="afii10095" format="2">
	<unicode hex="044D"/>
	<advance width="416"/>
	<outline>
		<contour>
			<point x="169" y="295" type="line"/>
			<point x="156" y="240" type="line"/>
			<point x="379" y="240" type="line"/>
			<point x="352" y="135"/>
			<point x="277" y="48"/>
			<point x="145" y="48" type="curve" smooth="yes"/>
			<point x="108" y="48"/>
			<point x="71" y="59"/>
			<point x="50" y="68" type="curve"/>
			<point x="28" y="9" type="line"/>
			<point x="55" y="-2"/>
			<point x="83" y="-11"/>
			<point x="139" y="-11" type="curve" smooth="yes"/>
			<point x="355" y="-11"/>
			<point x="458" y="166"/>
			<point x="458" y="341" type="curve" smooth="yes"/>
			<point x="458" y="447"/>
			<point x="401" y="529"/>
			<point x="266" y="529" type="curve" smooth="yes"/>
			<point x="215" y="529"/>
			<point x="162" y="513"/>
			<point x="140" y="502" type="curve"/>
			<point x="142" y="446" type="line"/>
			<point x="160" y="455"/>
			<point x="199" y="470"/>
			<point x="250" y="470" type="curve" smooth="yes"/>
			<point x="351" y="470"/>
			<point x="391" y="419"/>
			<point x="391" y="331" type="curve" smooth="yes"/>
			<point x="391" y="319"/>
			<point x="390" y="307"/>
			<point x="389" y="295" type="curve"/>
		</contour>
	</outline>
</glyph>
<glyph name="afii10097" format="2">
	<unicode hex="044F"/>
	<advance width="497"/>
	<outline>
		<contour>
			<point x="114" y="0" type="line"/>
			<point x="164" y="72"/>
			<point x="222" y="144"/>
			<point x="275" y="209" type="curve"/>
			<point x="294" y="208"/>
			<point x="313" y="208"/>
			<point x="337" y="208" type="curve" smooth="yes"/>
			<point x="412" y="208" type="line"/>
			<point x="363" y="0" type="line"/>
			<point x="428" y="0" type="line"/>
			<point x="549" y="505" type="line"/>
			<point x="510" y="517"/>
			<point x="433" y="528"/>
			<point x="387" y="528" type="curve" smooth="yes"/>
			<point x="237" y="528"/>
			<point x="132" y="457"/>
			<point x="132" y="337" type="curve" smooth="yes"/>
			<point x="132" y="271"/>
			<point x="165" y="234"/>
			<point x="209" y="219" type="curve"/>
			<point x="142" y="140"/>
			<point x="86" y="68"/>
			<point x="33" y="0" type="curve"/>
		</contour>
		<contour>
			<point x="319" y="262" type="line" smooth="yes"/>
			<point x="239" y="262"/>
			<point x="196" y="277"/>
			<point x="196" y="342" type="curve" smooth="yes"/>
			<point x="196" y="431"/>
			<point x="277" y="471"/>
			<point x="378" y="471" type="curve" smooth="yes"/>
			<point x="422" y="471"/>
			<point x="454" y="465"/>
			<point x="473" y="461" type="curve"/>
			<point x="425" y="262" type="line"/>
		</contour>
	</outline>
</glyph>
<glyph name="uni0463" format="2">
	<unicode hex="0463"/>
	<advance width="805"/>
	<outline>
		<contour>
			<point x="202" y="499" type="line"/>
			<point x="254" y="514"/>
			<point x="315" y="527"/>
			<point x="372" y="527" type="curve" smooth="yes"/>
			<point x="467" y="527"/>
			<point x="548" y="490"/>
			<point x="548" y="366" type="curve" smooth="yes"/>
			<point x="548" y="348"/>
			<point x="546" y="329"/>
			<point x="543" y="310" type="curve"/>
			<point x="566" y="316"/>
			<point x="624" y="326"/>
			<point x="654" y="326" type="curve" smooth="yes"/>
			<point x="757" y="326"/>
			<point x="812" y="289"/>
			<point x="812" y="193" type="curve" smooth="yes"/>
			<point x="812" y="27"/>
			<point x="682" y="-11"/>
			<point x="576" y="-11" type="curve" smooth="yes"/>
			<point x="510" y="-11"/>
			<point x="450" y="-2"/>
			<point x="409" y="12" type="curve"/>
			<point x="411" y="21" type="line"/>
			<point x="461" y="230" type="line" smooth="yes"/>
			<point x="471" y="274"/>
			<point x="482" y="321"/>
			<point x="483" y="362" type="curve" smooth="yes"/>
			<point x="484" y="444"/>
			<point x="427" y="467"/>
			<point x="363" y="467" type="curve" smooth="yes"/>
			<point x="328" y="467"/>
			<point x="291" y="461"/>
			<point x="257" y="453" type="curve"/>
			<point x="148" y="0" type="line"/>
			<point x="83" y="0" type="line"/>
		</contour>
		<contour>
			<point x="485" y="57" type="line"/>
			<point x="503" y="54"/>
			<point x="531" y="47"/>
			<point x="582" y="47" type="curve" smooth="yes"/>
			<point x="673" y="47"/>
			<point x="748" y="86"/>
			<point x="748" y="183" type="curve" smooth="yes"/>
			<point x="748" y="240"/>
			<point x="720" y="268"/>
			<point x="646" y="268" type="curve" smooth="yes"/>
			<point x="601" y="268"/>
			<point x="555" y="259"/>
			<point x="532" y="253" type="curve"/>
		</contour>
	</outline>
</glyph>
<glyph name="uni0473" format="2">
	<unicode hex="0473"/>
	<advance width="526"/>
	<outline>
		<contour>
			<point x="558" y="355" type="curve" smooth="yes"/>
			<point x="558" y="468"/>
			<point x="477" y="528"/>
			<point x="384" y="528" type="curve" smooth="yes"/>
			<point x="254" y="528"/>
			<point x="98" y="412"/>
			<point x="98" y="162" type="curve" smooth="yes"/>
			<point x="98" y="48"/>
			<point x="179" y="-12"/>
			<point x="272" y="-12" type="curve" smooth="yes"/>
			<point x="402" y="-12"/>
			<point x="558" y="104"/>
		</contour>
		<contour>
			<point x="164" y="166" type="curve" smooth="yes"/>
			<point x="164" y="187"/>
			<point x="165" y="207"/>
			<point x="168" y="226" type="curve"/>
			<point x="190" y="246"/>
			<point x="223" y="262"/>
			<point x="255" y="262" type="curve" smooth="yes"/>
			<point x="321" y="262"/>
			<point x="342" y="211"/>
			<point x="411" y="211" type="curve" smooth="yes"/>
			<point x="435" y="211"/>
			<point x="459" y="219"/>
			<point x="476" y="230" type="curve"/>
			<point x="440" y="107"/>
			<point x="350" y="47"/>
			<point x="276" y="47" type="curve" smooth="yes"/>
			<point x="215" y="47"/>
			<point x="164" y="88"/>
		</contour>
		<contour>
			<point x="380" y="469" type="curve" smooth="yes"/>
			<point x="441" y="469"/>
			<point x="492" y="428"/>
			<point x="492" y="350" type="curve" smooth="yes"/>
			<point x="492" y="327"/>
			<point x="490" y="305"/>
			<point x="487" y="285" type="curve"/>
			<point x="469" y="273"/>
			<point x="445" y="265"/>
			<point x="421" y="265" type="curve" smooth="yes"/>
			<point x="355" y="265"/>
			<point x="334" y="316"/>
			<point x="265" y="316" type="curve" smooth="yes"/>
			<point x="230" y="316"/>
			<point x="202" y="302"/>
			<point x="180" y="287" type="curve"/>
			<point x="217" y="409"/>
			<point x="306" y="469"/>
		</contour>
	</outline>
</glyph>
<glyph name="uni049C" format="2">
	<unicode hex="049C"/>
	<advance width="640"/>
	<outline>
		<contour>
			<point x="303" y="331" type="line"/>
			<point x="265" y="174" type="line"/>
			<point x="321" y="174" type="line"/>
			<point x="359" y="334" type="line"/>
			<point x="452" y="256"/>
			<point x="514" y="113"/>
			<point x="556" y="0" type="curve"/>
			<point x="631" y="0" type="line"/>
			<point x="590" y="108"/>
			<point x="512" y="290"/>
			<point x="424" y="358" type="curve"/>
			<point x="568" y="479"/>
			<point x="699" y="619"/>
			<point x="762" y="693" type="curve"/>
			<point x="674" y="693" type="line"/>
			<point x="610" y="616"/>
			<point x="478" y="476"/>
			<point x="372" y="387" type="curve"/>
			<point x="408" y="537" type="line"/>
			<point x="352" y="537" type="line"/>
			<point x="316" y="386" type="line"/>
			<point x="244" y="386" type="line"/>
			<point x="317" y="693" type="line"/>
			<point x="250" y="693" type="line"/>
			<point x="84" y="0" type="line"/>
			<point x="152" y="0" type="line"/>
			<point x="230" y="331" type="line"/>
		</contour>
	</outline>
</glyph>
<glyph name="uni049E" format="2">
	<unicode hex="049E"/>
	<advance width="603"/>
	<outline>
		<contour>
			<point x="216" y="555" type="line"/>
			<point x="147" y="555" type="line"/>
			<point x="160" y="609" type="line"/>
			<point x="229" y="609" type="line"/>
			<point x="249" y="693" type="line"/>
			<point x="316" y="693" type="line"/>
			<point x="296" y="609" type="line"/>
			<point x="388" y="609" type="line"/>
			<point x="375" y="555" type="line"/>
			<point x="283" y="555" type="line"/>
			<point x="240" y="374" type="line"/>
			<point x="289" y="409"/>
			<point x="404" y="499"/>
			<point x="515" y="589"/>
			<point x="608" y="668"/>
			<point x="635" y="693" type="qcurve"/>
			<point x="725" y="693" type="line"/>
			<point x="692" y="663"/>
			<point x="590" y="577"/>
			<point x="476" y="485"/>
			<point x="361" y="394"/>
			<point x="315" y="358" type="qcurve"/>
			<point x="351" y="331"/>
			<point x="429" y="244"/>
			<point x="502" y="144"/>
			<point x="564" y="42"/>
			<point x="582" y="0" type="qcurve"/>
			<point x="505" y="0" type="line"/>
			<point x="447" y="112"/>
			<point x="316" y="286"/>
			<point x="233" y="346" type="qcurve"/>
			<point x="151" y="0" type="line"/>
			<point x="83" y="0" type="line"/>
		</contour>
	</outline>
</glyph>
<glyph name="uni04A0" format="2">
	<unicode hex="04A0"/>
	<advance width="700"/>
	<outline>
		<contour>
			<point x="413" y="693" type="line"/>
			<point x="172" y="693" type="line"/>
			<point x="158" y="634" type="line"/>
			<point x="331" y="634" type="line"/>
			<point x="180" y="0" type="line"/>
			<point x="248" y="0" type="line"/>
			<point x="330" y="346" type="line"/>
			<point x="440" y="267"/>
			<point x="525" y="148"/>
			<point x="602" y="0" type="curve"/>
			<point x="679" y="0" type="line"/>
			<point x="630" y="111"/>
			<point x="507" y="287"/>
			<point x="412" y="358" type="curve"/>
			<point x="535" y="454"/>
			<point x="733" y="612"/>
			<point x="822" y="693" type="curve"/>
			<point x="732" y="693" type="line"/>
			<point x="661" y="627"/>
			<point x="467" y="467"/>
			<point x="337" y="374" type="curve"/>
		</contour>
	</outline>
</glyph>
<glyph name="uni04A4" format="2">
	<unicode hex="04A4"/>
	<advance width="753"/>
	<outline>
		<contour>
			<point x="727" y="634" type="line"/>
			<point x="890" y="634" type="line"/>
			<point x="905" y="693" type="line"/>
			<point x="674" y="693" type="line"/>
			<point x="602" y="392" type="line"/>
			<point x="243" y="392" type="line"/>
			<point x="317" y="693" type="line"/>
			<point x="249" y="693" type="line"/>
			<point x="83" y="0" type="line"/>
			<point x="151" y="0" type="line"/>
			<point x="231" y="333" type="line"/>
			<point x="589" y="333" type="line"/>
			<point x="509" y="0" type="line"/>
			<point x="577" y="0" type="line"/>
		</contour>
	</outline>
</glyph>
<glyph name="uni04A7" format="2">
	<unicode hex="04A7"/>
	<advance width="810"/>
	<outline>
		<contour>
			<point x="202" y="499" type="line"/>
			<point x="241" y="510"/>
			<point x="329" y="527"/>
			<point x="372" y="527" type="qcurve"/>
			<point x="408" y="527"/>
			<point x="472" y="512"/>
			<point x="520" y="474"/>
			<point x="548" y="412"/>
			<point x="548" y="366" type="qcurve"/>
			<point x="548" y="350"/>
			<point x="544" y="318"/>
			<point x="542" y="301" type="qcurve"/>
			<point x="566" y="309"/>
			<point x="615" y="318"/>
			<point x="641" y="318" type="qcurve"/>
			<point x="726" y="318"/>
			<point x="812" y="224"/>
			<point x="812" y="145" type="qcurve"/>
			<point x="812" y="72"/>
			<point x="775" y="-49"/>
			<point x="706" y="-136"/>
			<point x="609" y="-185"/>
			<point x="549" y="-185" type="qcurve"/>
			<point x="528" y="-185"/>
			<point x="507" y="-182" type="qcurve"/>
			<point x="523" y="-126" type="line"/>
			<point x="538" y="-129"/>
			<point x="553" y="-129" type="qcurve"/>
			<point x="594" y="-129"/>
			<point x="666" y="-93"/>
			<point x="719" y="-25"/>
			<point x="750" y="72"/>
			<point x="750" y="132" type="qcurve"/>
			<point x="750" y="193"/>
			<point x="685" y="260"/>
			<point x="621" y="260" type="qcurve"/>
			<point x="595" y="260"/>
			<point x="547" y="250"/>
			<point x="530" y="245" type="qcurve"/>
			<point x="471" y="0" type="line"/>
			<point x="406" y="0" type="line"/>
			<point x="461" y="230" type="line"/>
			<point x="468" y="263"/>
			<point x="483" y="331"/>
			<point x="483" y="362" type="qcurve"/>
			<point x="483" y="393"/>
			<point x="464" y="433"/>
			<point x="431" y="457"/>
			<point x="387" y="467"/>
			<point x="363" y="467" type="qcurve"/>
			<point x="337" y="467"/>
			<point x="283" y="459"/>
			<point x="257" y="453" type="qcurve"/>
			<point x="148" y="0" type="line"/>
			<point x="83" y="0" type="line"/>
		</contour>
	</outline>
	<guideline x="457"/>
</glyph>
<glyph name="uni04A9" format="2">
	<unicode hex="04A9"/>
	<advance width="568"/>
	<outline>
		<contour>
			<point x="396" y="471" type="curve" smooth="yes"/>
			<point x="417" y="471"/>
			<point x="426" y="469"/>
			<point x="441" y="465" type="curve"/>
			<point x="464" y="517" type="line"/>
			<point x="443" y="522"/>
			<point x="422" y="525"/>
			<point x="400" y="525" type="curve" smooth="yes"/>
			<point x="236" y="525"/>
			<point x="98" y="389"/>
			<point x="98" y="198" type="curve" smooth="yes"/>
			<point x="98" y="87"/>
			<point x="158" y="-7"/>
			<point x="286" y="-10" type="curve"/>
			<point x="304" y="-81"/>
			<point x="360" y="-134"/>
			<point x="469" y="-144" type="curve"/>
			<point x="489" y="-92" type="line"/>
			<point x="406" y="-85"/>
			<point x="368" y="-51"/>
			<point x="353" y="-6" type="curve"/>
			<point x="499" y="18"/>
			<point x="590" y="154"/>
			<point x="590" y="274" type="curve" smooth="yes"/>
			<point x="590" y="341"/>
			<point x="561" y="394"/>
			<point x="483" y="394" type="curve" smooth="yes"/>
			<point x="320" y="394"/>
			<point x="275" y="195"/>
			<point x="275" y="76" type="curve" smooth="yes"/>
			<point x="275" y="65"/>
			<point x="275" y="55"/>
			<point x="276" y="47" type="curve"/>
			<point x="202" y="47"/>
			<point x="160" y="99"/>
			<point x="160" y="189" type="curve" smooth="yes"/>
			<point x="160" y="341"/>
			<point x="245" y="471"/>
		</contour>
		<contour>
			<point x="471" y="340" type="curve" smooth="yes"/>
			<point x="512" y="340"/>
			<point x="528" y="313"/>
			<point x="528" y="269" type="curve" smooth="yes"/>
			<point x="528" y="142"/>
			<point x="448" y="64"/>
			<point x="339" y="44" type="curve"/>
			<point x="337" y="54"/>
			<point x="337" y="66"/>
			<point x="337" y="79" type="curve" smooth="yes"/>
			<point x="337" y="150"/>
			<point x="352" y="340"/>
		</contour>
	</outline>
</glyph>
<glyph name="uni04AD" format="2">
	<unicode hex="04AD"/>
	<advance width="811"/>
	<outline>
		<contour>
			<point x="83" y="0" type="line"/>
			<point x="148" y="0" type="line"/>
			<point x="257" y="453" type="line"/>
			<point x="286" y="461"/>
			<point x="324" y="467"/>
			<point x="354" y="467" type="curve" smooth="yes"/>
			<point x="413" y="467"/>
			<point x="459" y="446"/>
			<point x="459" y="362" type="curve" smooth="yes"/>
			<point x="459" y="321"/>
			<point x="447" y="274"/>
			<point x="437" y="230" type="curve" smooth="yes"/>
			<point x="382" y="0" type="line"/>
			<point x="447" y="0" type="line"/>
			<point x="509" y="257" type="line" smooth="yes"/>
			<point x="518" y="294"/>
			<point x="524" y="331"/>
			<point x="524" y="366" type="curve" smooth="yes"/>
			<point x="524" y="387"/>
			<point x="522" y="405"/>
			<point x="518" y="422" type="curve"/>
			<point x="580" y="462"/>
			<point x="625" y="467"/>
			<point x="653" y="467" type="curve" smooth="yes"/>
			<point x="712" y="467"/>
			<point x="758" y="446"/>
			<point x="758" y="362" type="curve" smooth="yes"/>
			<point x="758" y="321"/>
			<point x="746" y="274"/>
			<point x="736" y="230" type="curve" smooth="yes"/>
			<point x="681" y="0" type="line"/>
			<point x="742" y="0" type="line"/>
			<point x="707" y="-143" type="line"/>
			<point x="770" y="-143" type="line"/>
			<point x="818" y="55" type="line"/>
			<point x="759" y="55" type="line"/>
			<point x="808" y="257" type="line" smooth="yes"/>
			<point x="817" y="294"/>
			<point x="823" y="331"/>
			<point x="823" y="366" type="curve" smooth="yes"/>
			<point x="823" y="493"/>
			<point x="750" y="527"/>
			<point x="660" y="527" type="curve" smooth="yes"/>
			<point x="611" y="527"/>
			<point x="562" y="514"/>
			<point x="495" y="474" type="curve"/>
			<point x="465" y="514"/>
			<point x="416" y="527"/>
			<point x="361" y="527" type="curve" smooth="yes"/>
			<point x="308" y="527"/>
			<point x="241" y="512"/>
			<point x="202" y="499" type="curve"/>
		</contour>
	</outline>
</glyph>
<glyph name="uni04AF" format="2">
	<unicode hex="04AF"/>
	<advance width="485"/>
	<outline>
		<contour>
			<point x="165" y="-185" type="line"/>
			<point x="230" y="-185" type="line"/>
			<point x="272" y="-8" type="line"/>
			<point x="412" y="159"/>
			<point x="539" y="379"/>
			<point x="575" y="517" type="curve"/>
			<point x="510" y="517" type="line"/>
			<point x="478" y="411"/>
			<point x="372" y="200"/>
			<point x="265" y="70" type="curve"/>
			<point x="236" y="201"/>
			<point x="216" y="354"/>
			<point x="214" y="517" type="curve"/>
			<point x="145" y="517" type="line"/>
			<point x="151" y="335"/>
			<point x="182" y="138"/>
			<point x="210" y="2" type="curve"/>
		</contour>
	</outline>
	<guideline y="70"/>
</glyph>
<glyph name="uni04B2" format="2">
	<unicode hex="04B2"/>
	<advance width="570"/>
	<outline>
		<contour>
			<point x="10" y="0" type="line"/>
			<point x="92" y="0" type="line"/>
			<point x="353" y="312" type="line"/>
			<point x="403" y="200"/>
			<point x="450" y="82"/>
			<point x="477" y="0" type="curve"/>
			<point x="520" y="0" type="line"/>
			<point x="475" y="-185" type="line"/>
			<point x="540" y="-185" type="line"/>
			<point x="599" y="59" type="line"/>
			<point x="528" y="59" type="line"/>
			<point x="488" y="162"/>
			<point x="443" y="265"/>
			<point x="403" y="362" type="curve"/>
			<point x="499" y="468"/>
			<point x="587" y="572"/>
			<point x="680" y="693" type="curve"/>
			<point x="604" y="693" type="line"/>
			<point x="541" y="606"/>
			<point x="463" y="510"/>
			<point x="377" y="412" type="curve"/>
			<point x="258" y="693" type="line"/>
			<point x="184" y="693" type="line"/>
			<point x="325" y="366" type="line"/>
		</contour>
	</outline>
</glyph>
<glyph name="uni04BA" format="2">
	<unicode hex="04BA"/>
	<advance width="606"/>
	<outline>
		<contour>
			<point x="83" y="0" type="line"/>
			<point x="151" y="0" type="line"/>
			<point x="239" y="369" type="line"/>
			<point x="277" y="382"/>
			<point x="333" y="394"/>
			<point x="388" y="394" type="curve" smooth="yes"/>
			<point x="499" y="394"/>
			<point x="530" y="342"/>
			<point x="530" y="275" type="curve" smooth="yes"/>
			<point x="530" y="250"/>
			<point x="526" y="223"/>
			<point x="519" y="195" type="curve" smooth="yes"/>
			<point x="471" y="0" type="line"/>
			<point x="539" y="0" type="line"/>
			<point x="584" y="186" type="line" smooth="yes"/>
			<point x="593" y="223"/>
			<point x="598" y="255"/>
			<point x="598" y="283" type="curve" smooth="yes"/>
			<point x="598" y="403"/>
			<point x="527" y="454"/>
			<point x="381" y="454" type="curve" smooth="yes"/>
			<point x="350" y="454"/>
			<point x="274" y="438"/>
			<point x="254" y="428" type="curve"/>
			<point x="317" y="693" type="line"/>
			<point x="249" y="693" type="line"/>
		</contour>
	</outline>
	<guideline y="394"/>
	<guideline y="454"/>
	<guideline y="459"/>
</glyph>
<glyph name="uni04BD" format="2">
	<unicode hex="04BD"/>
	<advance width="608"/>
	<outline>
		<contour>
			<point x="660" y="396" type="curve" smooth="yes"/>
			<point x="660" y="476"/>
			<point x="608" y="529"/>
			<point x="515" y="529" type="curve" smooth="yes"/>
			<point x="359" y="529"/>
			<point x="259" y="409"/>
			<point x="228" y="271" type="curve"/>
			<point x="180" y="280"/>
			<point x="156" y="307"/>
			<point x="156" y="349" type="curve" smooth="yes"/>
			<point x="156" y="364"/>
			<point x="159" y="383"/>
			<point x="167" y="401" type="curve"/>
			<point x="115" y="408" type="line"/>
			<point x="103" y="380"/>
			<point x="98" y="355"/>
			<point x="98" y="333" type="curve" smooth="yes"/>
			<point x="98" y="265"/>
			<point x="148" y="226"/>
			<point x="220" y="213" type="curve"/>
			<point x="219" y="201"/>
			<point x="218" y="190"/>
			<point x="218" y="178" type="curve" smooth="yes"/>
			<point x="218" y="65"/>
			<point x="268" y="-12"/>
			<point x="415" y="-12" type="curve" smooth="yes"/>
			<point x="470" y="-12"/>
			<point x="528" y="3"/>
			<point x="573" y="28" type="curve"/>
			<point x="566" y="88" type="line"/>
			<point x="524" y="61"/>
			<point x="474" y="48"/>
			<point x="428" y="48" type="curve" smooth="yes"/>
			<point x="307" y="48"/>
			<point x="282" y="110"/>
			<point x="282" y="186" type="curve" smooth="yes"/>
			<point x="282" y="207" type="line"/>
			<point x="508" y="217"/>
			<point x="660" y="247"/>
		</contour>
		<contour>
			<point x="509" y="470" type="curve" smooth="yes"/>
			<point x="559" y="470"/>
			<point x="594" y="444"/>
			<point x="594" y="392" type="curve" smooth="yes"/>
			<point x="594" y="315"/>
			<point x="520" y="271"/>
			<point x="292" y="266" type="curve"/>
			<point x="320" y="376"/>
			<point x="402" y="470"/>
		</contour>
	</outline>
	<guideline x="11" y="0" angle="103.5"/>
</glyph>
<glyph name="uni04CF" format="2">
	<unicode hex="04CF"/>
	<advance width="223"/>
	<outline>
		<contour>
			<point x="82" y="0" type="line"/>
			<point x="144" y="0" type="line"/>
			<point x="311" y="693" type="line"/>
			<point x="250" y="693" type="line"/>
		</contour>
	</outline>
</glyph>
<glyph name="uni04E9" format="2">
	<unicode hex="04E9"/>
	<advance width="526"/>
	<outline>
		<contour>
			<point x="558" y="355" type="curve" smooth="yes"/>
			<point x="558" y="468"/>
			<point x="477" y="528"/>
			<point x="384" y="528" type="curve" smooth="yes"/>
			<point x="254" y="528"/>
			<point x="98" y="412"/>
			<point x="98" y="162" type="curve" smooth="yes"/>
			<point x="98" y="48"/>
			<point x="179" y="-12"/>
			<point x="272" y="-12" type="curve" smooth="yes"/>
			<point x="402" y="-12"/>
			<point x="558" y="104"/>
		</contour>
		<contour>
			<point x="164" y="166" type="curve" smooth="yes"/>
			<point x="164" y="192"/>
			<point x="166" y="217"/>
			<point x="170" y="240" type="curve"/>
			<point x="478" y="240" type="line"/>
			<point x="444" y="110"/>
			<point x="352" y="47"/>
			<point x="276" y="47" type="curve" smooth="yes"/>
			<point x="215" y="47"/>
			<point x="164" y="88"/>
		</contour>
		<contour>
			<point x="380" y="469" type="curve" smooth="yes"/>
			<point x="441" y="469"/>
			<point x="492" y="428"/>
			<point x="492" y="350" type="curve" smooth="yes"/>
			<point x="492" y="331"/>
			<point x="491" y="312"/>
			<point x="489" y="295" type="curve"/>
			<point x="183" y="295" type="line"/>
			<point x="220" y="412"/>
			<point x="308" y="469"/>
		</contour>
	</outline>
</glyph>
<glyph name="uni04F7" format="2">
	<unicode hex="04F7"/>
	<advance width="380"/>
	<outline>
		<contour>
			<point x="391" y="70" type="curve"/>
			<point x="339" y="-143" type="line"/>
			<point x="276" y="-143" type="line"/>
			<point x="310" y="-4" type="line"/>
			<point x="284" y="-9"/>
			<point x="258" y="-12"/>
			<point x="234" y="-12" type="curve" smooth="yes"/>
			<point x="143" y="-12"/>
			<point x="68" y="19"/>
			<point x="68" y="107" type="curve" smooth="yes"/>
			<point x="68" y="327"/>
			<point x="380" y="262"/>
			<point x="380" y="404" type="curve" smooth="yes"/>
			<point x="380" y="453"/>
			<point x="339" y="469"/>
			<point x="293" y="469" type="curve" smooth="yes"/>
			<point x="246" y="469"/>
			<point x="193" y="453"/>
			<point x="168" y="441" type="curve"/>
			<point x="163" y="500" type="line"/>
			<point x="202" y="518"/>
			<point x="250" y="529"/>
			<point x="294" y="529" type="curve" smooth="yes"/>
			<point x="372" y="529"/>
			<point x="442" y="495"/>
			<point x="442" y="405" type="curve" smooth="yes"/>
			<point x="442" y="209"/>
			<point x="130" y="274"/>
			<point x="130" y="115" type="curve" smooth="yes"/>
			<point x="130" y="64"/>
			<point x="180" y="48"/>
			<point x="236" y="48" type="curve" smooth="yes"/>
			<point x="291" y="48"/>
			<point x="366" y="59"/>
		</contour>
	</outline>
</glyph>
<glyph name="uni1FBE" format="2">
	<unicode hex="1FBE"/>
	<advance width="257"/>
	<outline>
		<contour>
			<point x="136" y="-68" type="line" smooth="yes"/>
			<point x="124" y="-117"/>
			<point x="136" y="-139"/>
			<point x="192" y="-139" type="curve"/>
			<point x="182" y="-182" type="line"/>
			<point x="175" y="-184"/>
			<point x="161" y="-186"/>
			<point x="151" y="-186" type="curve" smooth="yes"/>
			<point x="87" y="-186"/>
			<point x="53" y="-143"/>
			<point x="70" y="-72" type="curve" smooth="yes"/>
			<point x="71" y="-68"/>
			<point x="73" y="-60"/>
			<point x="75" y="-55" type="curve"/>
			<point x="139" y="-55" type="line"/>
		</contour>
	</outline>
	<guideline y="-55"/>
</glyph>
<glyph name="uni1FBF" format="2">
	<unicode hex="1FBF"/>
	<advance width="389"/>
	<outline>
		<contour>
			<point x="374" y="575" type="line"/>
			<point x="475" y="634"/>
			<point x="517" y="685"/>
			<point x="517" y="727" type="curve" smooth="yes"/>
			<point x="517" y="752"/>
			<point x="501" y="776"/>
			<point x="469" y="776" type="curve" smooth="yes"/>
			<point x="443" y="776"/>
			<point x="415" y="757"/>
			<point x="415" y="725" type="curve" smooth="yes"/>
			<point x="415" y="709"/>
			<point x="423" y="692"/>
			<point x="440" y="680" type="curve"/>
			<point x="421" y="655"/>
			<point x="392" y="631"/>
			<point x="351" y="604" type="curve"/>
		</contour>
	</outline>
	<guideline y="575"/>
	<guideline y="609"/>
</glyph>
<glyph name="uni1FED" format="2">
	<unicode hex="1FED"/>
	<advance width="298"/>
	<outline>
		<contour>
			<point x="359" y="769" type="line"/>
			<point x="408" y="607" type="line"/>
			<point x="358" y="581" type="line"/>
			<point x="295" y="743" type="line"/>
		</contour>
		<contour>
			<point x="491" y="627" type="curve" smooth="yes"/>
			<point x="460" y="627"/>
			<point x="447" y="647"/>
			<point x="447" y="669" type="curve" smooth="yes"/>
			<point x="447" y="695"/>
			<point x="465" y="724"/>
			<point x="498" y="724" type="curve" smooth="yes"/>
			<point x="529" y="724"/>
			<point x="542" y="704"/>
			<point x="542" y="682" type="curve" smooth="yes"/>
			<point x="542" y="656"/>
			<point x="524" y="627"/>
		</contour>
		<contour>
			<point x="202" y="627" type="curve" smooth="yes"/>
			<point x="171" y="627"/>
			<point x="158" y="647"/>
			<point x="158" y="669" type="curve" smooth="yes"/>
			<point x="158" y="695"/>
			<point x="176" y="724"/>
			<point x="209" y="724" type="curve" smooth="yes"/>
			<point x="240" y="724"/>
			<point x="253" y="704"/>
			<point x="253" y="682" type="curve" smooth="yes"/>
			<point x="253" y="656"/>
			<point x="235" y="627"/>
		</contour>
	</outline>
	<guideline y="780"/>
	<guideline x="188" y="0" angle="103.5"/>
</glyph>
<glyph name="uni1FEE" format="2">
	<unicode hex="1FEE"/>
	<advance width="298"/>
	<outline>
		<contour>
			<point x="507" y="627" type="qcurve"/>
			<point x="484" y="627"/>
			<point x="463" y="652"/>
			<point x="463" y="669" type="qcurve"/>
			<point x="463" y="689"/>
			<point x="489" y="724"/>
			<point x="514" y="724" type="qcurve"/>
			<point x="537" y="724"/>
			<point x="558" y="699"/>
			<point x="558" y="682" type="qcurve"/>
			<point x="558" y="662"/>
			<point x="532" y="627"/>
		</contour>
		<contour>
			<point x="218" y="627" type="qcurve"/>
			<point x="195" y="627"/>
			<point x="174" y="652"/>
			<point x="174" y="669" type="qcurve"/>
			<point x="174" y="689"/>
			<point x="200" y="724"/>
			<point x="225" y="724" type="qcurve"/>
			<point x="248" y="724"/>
			<point x="269" y="699"/>
			<point x="269" y="682" type="qcurve"/>
			<point x="269" y="662"/>
			<point x="243" y="627"/>
		</contour>
		<contour>
			<point x="447" y="737" type="line"/>
			<point x="312" y="581" type="line"/>
			<point x="277" y="605" type="line"/>
			<point x="401" y="769" type="line"/>
		</contour>
	</outline>
</glyph>
<glyph name="quoteright" format="2">
	<unicode hex="2019"/>
	<advance width="236"/>
	<outline>
		<contour>
			<point x="237" y="522" type="qcurve"/>
			<point x="187" y="542" type="line"/>
			<point x="205" y="568"/>
			<point x="233" y="615"/>
			<point x="254" y="662"/>
			<point x="268" y="712"/>
			<point x="272" y="741" type="qcurve"/>
			<point x="353" y="741" type="line"/>
			<point x="347" y="711"/>
			<point x="322" y="650"/>
			<point x="291" y="594"/>
			<point x="255" y="543"/>
		</contour>
	</outline>
</glyph>
<glyph name="daggerdbl" format="2">
	<unicode hex="2021"/>
	<advance width="462"/>
	<outline>
		<contour>
			<point x="193" y="-145" type="line"/>
			<point x="200" y="-77"/>
			<point x="226" y="60"/>
			<point x="248" y="147" type="qcurve"/>
			<point x="88" y="147" type="line"/>
			<point x="101" y="204" type="line"/>
			<point x="261" y="204" type="line"/>
			<point x="310" y="411" type="line"/>
			<point x="151" y="411" type="line"/>
			<point x="165" y="468" type="line"/>
			<point x="325" y="468" type="line"/>
			<point x="379" y="693" type="line"/>
			<point x="438" y="693" type="line"/>
			<point x="384" y="468" type="line"/>
			<point x="544" y="468" type="line"/>
			<point x="530" y="411" type="line"/>
			<point x="370" y="411" type="line"/>
			<point x="320" y="204" type="line"/>
			<point x="480" y="204" type="line"/>
			<point x="466" y="147" type="line"/>
			<point x="307" y="147" type="line"/>
			<point x="287" y="60"/>
			<point x="247" y="-78"/>
			<point x="222" y="-145" type="qcurve"/>
		</contour>
	</outline>
</glyph>
<glyph name="fivesuperior" format="2">
	<unicode hex="2075"/>
	<advance width="363"/>
	<outline>
		<contour>
			<point x="151" y="377" type="line"/>
			<point x="171" y="366"/>
			<point x="222" y="355"/>
			<point x="248" y="355" type="qcurve"/>
			<point x="270" y="355"/>
			<point x="312" y="364"/>
			<point x="344" y="384"/>
			<point x="363" y="416"/>
			<point x="363" y="438" type="qcurve"/>
			<point x="363" y="453"/>
			<point x="352" y="478"/>
			<point x="318" y="497"/>
			<point x="253" y="508"/>
			<point x="199" y="509" type="qcurve"/>
			<point x="216" y="554"/>
			<point x="248" y="645"/>
			<point x="263" y="699" type="qcurve"/>
			<point x="463" y="699" type="line"/>
			<point x="450" y="651" type="line"/>
			<point x="298" y="651" type="line"/>
			<point x="292" y="630"/>
			<point x="272" y="572"/>
			<point x="263" y="552" type="qcurve"/>
			<point x="342" y="547"/>
			<point x="417" y="499"/>
			<point x="417" y="442" type="qcurve"/>
			<point x="417" y="406"/>
			<point x="387" y="355"/>
			<point x="337" y="324"/>
			<point x="272" y="309"/>
			<point x="238" y="309" type="qcurve"/>
			<point x="171" y="309"/>
			<point x="130" y="331" type="qcurve"/>
		</contour>
	</outline>
</glyph>
<glyph name="Euro" format="2">
	<unicode hex="20AC"/>
	<advance width="564"/>
	<outline>
		<contour>
			<point x="445" y="237" type="line"/>
			<point x="467" y="290" type="line"/>
			<point x="259" y="290" type="line"/>
			<point x="263" y="331"/>
			<point x="271" y="371"/>
			<point x="282" y="409" type="curve"/>
			<point x="520" y="409" type="line"/>
			<point x="542" y="462" type="line"/>
			<point x="301" y="462" type="line"/>
			<point x="345" y="569"/>
			<point x="421" y="647"/>
			<point x="532" y="647" type="curve" smooth="yes"/>
			<point x="568" y="647"/>
			<point x="598" y="641"/>
			<point x="627" y="628" type="curve"/>
			<point x="656" y="686" type="line"/>
			<point x="615" y="701"/>
			<point x="586" y="705"/>
			<point x="549" y="705" type="curve" smooth="yes"/>
			<point x="395" y="705"/>
			<point x="287" y="607"/>
			<point x="230" y="462" type="curve"/>
			<point x="152" y="462" type="line"/>
			<point x="140" y="409" type="line"/>
			<point x="212" y="409" type="line"/>
			<point x="201" y="371"/>
			<point x="193" y="331"/>
			<point x="188" y="290" type="curve"/>
			<point x="111" y="290" type="line"/>
			<point x="99" y="237" type="line"/>
			<point x="184" y="237" type="line"/>
			<point x="183" y="222"/>
			<point x="183" y="206"/>
			<point x="183" y="191" type="curve" smooth="yes"/>
			<point x="183" y="97"/>
			<point x="221" y="-13"/>
			<point x="374" y="-13" type="curve" smooth="yes"/>
			<point x="439" y="-13"/>
			<point x="499" y="5"/>
			<point x="525" y="15" type="curve"/>
			<point x="523" y="71" type="line"/>
			<point x="493" y="58"/>
			<point x="450" y="46"/>
			<point x="390" y="46" type="curve" smooth="yes"/>
			<point x="268" y="46"/>
			<point x="254" y="128"/>
			<point x="254" y="200" type="curve" smooth="yes"/>
			<point x="254" y="212"/>
			<point x="254" y="224"/>
			<point x="255" y="237" type="curve"/>
		</contour>
	</outline>
	<guideline y="709"/>
	<guideline x="23" y="0" angle="103.5"/>
</glyph>
<glyph name="uni20B4" format="2">
	<unicode hex="20B4"/>
	<advance width="564"/>
	<outline>
		<contour>
			<point x="119" y="285" type="line"/>
			<point x="221" y="285" type="line"/>
			<point x="232" y="294"/>
			<point x="275" y="322"/>
			<point x="330" y="355"/>
			<point x="390" y="390"/>
			<point x="419" y="407" type="qcurve"/>
			<point x="149" y="407" type="line"/>
			<point x="162" y="459" type="line"/>
			<point x="482" y="459" type="line"/>
			<point x="499" y="481"/>
			<point x="518" y="533"/>
			<point x="518" y="559" type="qcurve"/>
			<point x="518" y="586"/>
			<point x="502" y="623"/>
			<point x="473" y="645"/>
			<point x="436" y="654"/>
			<point x="415" y="654" type="qcurve"/>
			<point x="380" y="654"/>
			<point x="309" y="637"/>
			<point x="282" y="627" type="qcurve"/>
			<point x="282" y="683" type="line"/>
			<point x="311" y="694"/>
			<point x="381" y="708"/>
			<point x="416" y="708" type="qcurve"/>
			<point x="448" y="708"/>
			<point x="508" y="693"/>
			<point x="554" y="660"/>
			<point x="582" y="605"/>
			<point x="582" y="565" type="qcurve"/>
			<point x="582" y="536"/>
			<point x="566" y="481"/>
			<point x="552" y="459" type="qcurve"/>
			<point x="618" y="459" type="line"/>
			<point x="605" y="407" type="line"/>
			<point x="514" y="407" type="line"/>
			<point x="495" y="392"/>
			<point x="447" y="361"/>
			<point x="394" y="329"/>
			<point x="342" y="299"/>
			<point x="318" y="285" type="qcurve"/>
			<point x="576" y="285" type="line"/>
			<point x="564" y="233" type="line"/>
			<point x="250" y="233" type="line"/>
			<point x="233" y="219"/>
			<point x="203" y="169"/>
			<point x="203" y="134" type="qcurve"/>
			<point x="203" y="107"/>
			<point x="221" y="71"/>
			<point x="252" y="48"/>
			<point x="294" y="39"/>
			<point x="317" y="39" type="qcurve"/>
			<point x="361" y="39"/>
			<point x="453" y="63"/>
			<point x="487" y="77" type="qcurve"/>
			<point x="494" y="21" type="line"/>
			<point x="454" y="3"/>
			<point x="362" y="-15"/>
			<point x="315" y="-15" type="qcurve"/>
			<point x="280" y="-15"/>
			<point x="217" y="-1"/>
			<point x="169" y="33"/>
			<point x="141" y="88"/>
			<point x="141" y="129" type="qcurve"/>
			<point x="141" y="140"/>
			<point x="145" y="167"/>
			<point x="154" y="196"/>
			<point x="168" y="223"/>
			<point x="177" y="233" type="qcurve"/>
			<point x="107" y="233" type="line"/>
		</contour>
	</outline>
	<guideline x="37" y="0" angle="103.5"/>
	<guideline x="525" y="0" angle="103.5"/>
</glyph>
<glyph name="uni20B9" format="2">
	<unicode hex="20B9"/>
	<advance width="564"/>
	<outline>
		<contour>
			<point x="166" y="353" type="line"/>
			<point x="156" y="309" type="line"/>
			<point x="204" y="247"/>
			<point x="296" y="99"/>
			<point x="345" y="0" type="curve"/>
			<point x="415" y="0" type="line"/>
			<point x="369" y="98"/>
			<point x="277" y="243"/>
			<point x="237" y="298" type="curve"/>
			<point x="380" y="296"/>
			<point x="520" y="333"/>
			<point x="547" y="470" type="curve"/>
			<point x="600" y="470" type="line"/>
			<point x="622" y="523" type="line"/>
			<point x="553" y="523" type="line"/>
			<point x="552" y="577"/>
			<point x="522" y="618"/>
			<point x="479" y="640" type="curve"/>
			<point x="674" y="640" type="line"/>
			<point x="696" y="693" type="line"/>
			<point x="246" y="693" type="line"/>
			<point x="234" y="640" type="line"/>
			<point x="337" y="640" type="line" smooth="yes"/>
			<point x="432" y="640"/>
			<point x="482" y="596"/>
			<point x="486" y="523" type="curve"/>
			<point x="206" y="523" type="line"/>
			<point x="194" y="470" type="line"/>
			<point x="482" y="470" type="line"/>
			<point x="456" y="371"/>
			<point x="335" y="353"/>
			<point x="243" y="353" type="curve" smooth="yes"/>
		</contour>
	</outline>
	<guideline x="83" y="0" angle="103.22"/>
	<guideline x="526" y="0" angle="112.08"/>
</glyph>
<glyph name="summation" format="2">
	<unicode hex="2211"/>
	<advance width="466"/>
	<outline>
		<contour>
			<point x="-12" y="-109" type="line"/>
			<point x="437" y="-109" type="line"/>
			<point x="451" y="-50" type="line"/>
			<point x="75" y="-50" type="line"/>
			<point x="182" y="80"/>
			<point x="290" y="189"/>
			<point x="400" y="305" type="curve"/>
			<point x="325" y="453"/>
			<point x="306" y="489"/>
			<point x="251" y="634" type="curve"/>
			<point x="612" y="634" type="line"/>
			<point x="628" y="693" type="line"/>
			<point x="186" y="693" type="line"/>
			<point x="177" y="651" type="line"/>
			<point x="200" y="585"/>
			<point x="257" y="453"/>
			<point x="327" y="316" type="curve"/>
			<point x="207" y="191"/>
			<point x="93" y="63"/>
			<point x="2" y="-51" type="curve"/>
		</contour>
	</outline>
	<guideline x="11"/>
	<guideline x="486"/>
	<guideline y="-42"/>
	<guideline x="485" y="0" angle="103.5"/>
</glyph>
<glyph name="minus" format="2">
	<unicode hex="2212"/>
	<advance width="564"/>
	<outline>
		<contour>
			<point x="131" y="261" type="line"/>
			<point x="560" y="261" type="line"/>
			<point x="573" y="317" type="line"/>
			<point x="144" y="317" type="line"/>
		</contour>
	</outline>
</glyph>
<glyph name="radical" format="2">
	<unicode hex="221A"/>
	<advance width="547"/>
	<outline>
		<contour>
			<point x="101" y="340" type="line"/>
			<point x="245" y="382" type="line"/>
			<point x="255" y="340"/>
			<point x="272" y="261"/>
			<point x="285" y="183"/>
			<point x="297" y="104"/>
			<point x="302" y="61" type="qcurve"/>
			<point x="685" y="783" type="line"/>
			<point x="748" y="783" type="line"/>
			<point x="319" y="-15" type="line"/>
			<point x="259" y="-15" type="line"/>
			<point x="252" y="29"/>
			<point x="237" y="124"/>
			<point x="222" y="215"/>
			<point x="206" y="294"/>
			<point x="198" y="323" type="qcurve"/>
			<point x="106" y="296" type="line"/>
		</contour>
	</outline>
</glyph>
<glyph name="uniE0FF" format="2">
	<unicode hex="E00F"/>
	<advance width="782"/>
	<outline>
		<contour>
			<point x="833" y="346" type="qcurve"/>
			<point x="833" y="271"/>
			<point x="777" y="139"/>
			<point x="679" y="42"/>
			<point x="547" y="-15"/>
			<point x="471" y="-15" type="qcurve"/>
			<point x="396" y="-15"/>
			<point x="264" y="42"/>
			<point x="166" y="139"/>
			<point x="109" y="271"/>
			<point x="109" y="346" type="qcurve"/>
			<point x="109" y="422"/>
			<point x="166" y="555"/>
			<point x="264" y="653"/>
			<point x="396" y="709"/>
			<point x="471" y="709" type="qcurve"/>
			<point x="547" y="709"/>
			<point x="679" y="653"/>
			<point x="777" y="555"/>
			<point x="833" y="422"/>
		</contour>
		<contour>
			<point x="223" y="395" type="qcurve"/>
			<point x="204" y="395"/>
			<point x="176" y="366"/>
			<point x="176" y="346" type="qcurve"/>
			<point x="176" y="326"/>
			<point x="204" y="299"/>
			<point x="223" y="299" type="qcurve"/>
			<point x="243" y="299"/>
			<point x="272" y="326"/>
			<point x="272" y="346" type="qcurve"/>
			<point x="272" y="366"/>
			<point x="243" y="395"/>
		</contour>
		<contour>
			<point x="643" y="135" type="qcurve"/>
			<point x="643" y="158"/>
			<point x="612" y="180"/>
			<point x="596" y="180" type="qcurve"/>
			<point x="574" y="180"/>
			<point x="547" y="151"/>
			<point x="547" y="131" type="qcurve"/>
			<point x="547" y="110"/>
			<point x="576" y="84"/>
			<point x="595" y="84" type="qcurve"/>
			<point x="615" y="84"/>
			<point x="643" y="115"/>
		</contour>
		<contour>
			<point x="329" y="346" type="qcurve"/>
			<point x="329" y="383"/>
			<point x="362" y="444"/>
			<point x="391" y="464" type="qcurve"/>
			<point x="353" y="524" type="line"/>
			<point x="323" y="501"/>
			<point x="277" y="438"/>
			<point x="267" y="399" type="qcurve"/>
			<point x="278" y="391"/>
			<point x="293" y="363"/>
			<point x="293" y="346" type="qcurve"/>
			<point x="293" y="331"/>
			<point x="278" y="303"/>
			<point x="267" y="294" type="qcurve"/>
			<point x="277" y="256"/>
			<point x="323" y="194"/>
			<point x="353" y="170" type="qcurve"/>
			<point x="391" y="232" type="line"/>
			<point x="362" y="250"/>
			<point x="329" y="311"/>
		</contour>
		<contour>
			<point x="378" y="536" type="qcurve"/>
			<point x="411" y="476" type="line"/>
			<point x="439" y="490"/>
			<point x="471" y="490" type="qcurve"/>
			<point x="499" y="490"/>
			<point x="548" y="470"/>
			<point x="586" y="435"/>
			<point x="609" y="389"/>
			<point x="611" y="362" type="qcurve"/>
			<point x="681" y="362" type="line"/>
			<point x="678" y="400"/>
			<point x="645" y="470"/>
			<point x="618" y="496" type="qcurve"/>
			<point x="611" y="495"/>
			<point x="601" y="494"/>
			<point x="596" y="494" type="qcurve"/>
			<point x="584" y="494"/>
			<point x="561" y="502"/>
			<point x="542" y="517"/>
			<point x="530" y="538"/>
			<point x="529" y="550" type="qcurve"/>
			<point x="513" y="555"/>
			<point x="486" y="558"/>
			<point x="471" y="558" type="qcurve"/>
			<point x="422" y="558"/>
		</contour>
		<contour>
			<point x="411" y="217" type="qcurve"/>
			<point x="378" y="159" type="line"/>
			<point x="399" y="148"/>
			<point x="446" y="138"/>
			<point x="471" y="138" type="qcurve"/>
			<point x="486" y="138"/>
			<point x="513" y="141"/>
			<point x="529" y="144" type="qcurve"/>
			<point x="530" y="157"/>
			<point x="542" y="178"/>
			<point x="561" y="193"/>
			<point x="584" y="201"/>
			<point x="596" y="201" type="qcurve"/>
			<point x="601" y="201"/>
			<point x="611" y="200"/>
			<point x="618" y="199" type="qcurve"/>
			<point x="645" y="225"/>
			<point x="678" y="295"/>
			<point x="681" y="336" type="qcurve"/>
			<point x="611" y="336" type="line"/>
			<point x="609" y="308"/>
			<point x="586" y="260"/>
			<point x="548" y="225"/>
			<point x="499" y="205"/>
			<point x="471" y="205" type="qcurve"/>
			<point x="454" y="205"/>
			<point x="425" y="212"/>
		</contour>
		<contour>
			<point x="596" y="513" type="qcurve"/>
			<point x="612" y="513"/>
			<point x="643" y="537"/>
			<point x="643" y="559" type="qcurve"/>
			<point x="643" y="576"/>
			<point x="617" y="609"/>
			<point x="595" y="609" type="qcurve"/>
			<point x="577" y="609"/>
			<point x="547" y="584"/>
			<point x="547" y="560" type="qcurve"/>
			<point x="547" y="541"/>
			<point x="576" y="513"/>
		</contour>
	</outline>
	<guideline y="750"/>
</glyph>
<glyph name="fl" format="2">
	<unicode hex="F002"/>
	<advance width="614"/>
	<outline>
		<contour>
			<point x="471" y="231" type="line" smooth="yes"/>
			<point x="462" y="193"/>
			<point x="456" y="157"/>
			<point x="456" y="125" type="curve" smooth="yes"/>
			<point x="456" y="53"/>
			<point x="490" y="3"/>
			<point x="587" y="-9" type="curve"/>
			<point x="602" y="48" type="line"/>
			<point x="532" y="63"/>
			<point x="519" y="91"/>
			<point x="519" y="134" type="curve" smooth="yes"/>
			<point x="519" y="169"/>
			<point x="531" y="210"/>
			<point x="542" y="255" type="curve" smooth="yes"/>
			<point x="666" y="776" type="line"/>
			<point x="599" y="764" type="line"/>
		</contour>
		<contour>
			<point x="257" y="461" type="line"/>
			<point x="432" y="461" type="line"/>
			<point x="444" y="517" type="line"/>
			<point x="271" y="517" type="line"/>
			<point x="285" y="571" type="line" smooth="yes"/>
			<point x="315" y="686"/>
			<point x="365" y="719"/>
			<point x="433" y="719" type="curve" smooth="yes"/>
			<point x="458" y="719"/>
			<point x="477" y="716"/>
			<point x="497" y="710" type="curve"/>
			<point x="517" y="766" type="line"/>
			<point x="496" y="772"/>
			<point x="473" y="776"/>
			<point x="443" y="776" type="curve" smooth="yes"/>
			<point x="349" y="776"/>
			<point x="258" y="732"/>
			<point x="220" y="573" type="curve" smooth="yes"/>
			<point x="96" y="58" type="line" smooth="yes"/>
			<point x="74" y="-32"/>
			<point x="53" y="-90"/>
			<point x="-14" y="-180" type="curve"/>
			<point x="43" y="-189" type="line"/>
			<point x="112" y="-110"/>
			<point x="140" y="-26"/>
			<point x="171" y="102" type="curve" smooth="yes"/>
		</contour>
	</outline>
</glyph>
<glyph name="f_f_i" format="2">
	<unicode hex="FB03"/>
	<advance width="885"/>
	<outline>
		<contour>
			<point x="576" y="461" type="line"/>
			<point x="751" y="461" type="line"/>
			<point x="763" y="517" type="line"/>
			<point x="590" y="517" type="line"/>
			<point x="604" y="571" type="line" smooth="yes"/>
			<point x="634" y="686"/>
			<point x="684" y="719"/>
			<point x="752" y="719" type="curve" smooth="yes"/>
			<point x="777" y="719"/>
			<point x="796" y="716"/>
			<point x="816" y="710" type="curve"/>
			<point x="836" y="766" type="line"/>
			<point x="815" y="772"/>
			<point x="792" y="776"/>
			<point x="762" y="776" type="curve" smooth="yes"/>
			<point x="668" y="776"/>
			<point x="577" y="732"/>
			<point x="539" y="573" type="curve"/>
			<point x="415" y="58" type="line" smooth="yes"/>
			<point x="393" y="-32"/>
			<point x="372" y="-90"/>
			<point x="305" y="-180" type="curve"/>
			<point x="362" y="-189" type="line"/>
			<point x="431" y="-110"/>
			<point x="459" y="-26"/>
			<point x="490" y="102" type="curve" smooth="yes"/>
		</contour>
		<contour>
			<point x="733" y="0" type="line"/>
			<point x="798" y="0" type="line"/>
			<point x="923" y="517" type="line"/>
			<point x="858" y="517" type="line"/>
		</contour>
		<contour>
			<point x="884" y="668" type="curve" smooth="yes"/>
			<point x="884" y="643"/>
			<point x="898" y="626"/>
			<point x="924" y="626" type="curve" smooth="yes"/>
			<point x="945" y="626"/>
			<point x="972" y="644"/>
			<point x="972" y="676" type="curve" smooth="yes"/>
			<point x="972" y="702"/>
			<point x="956" y="721"/>
			<point x="930" y="721" type="curve" smooth="yes"/>
			<point x="908" y="721"/>
			<point x="884" y="702"/>
		</contour>
		<contour>
			<point x="96" y="58" type="line" smooth="yes"/>
			<point x="74" y="-32"/>
			<point x="53" y="-90"/>
			<point x="-14" y="-180" type="curve"/>
			<point x="43" y="-189" type="line"/>
			<point x="112" y="-110"/>
			<point x="140" y="-26"/>
			<point x="171" y="102" type="curve" smooth="yes"/>
			<point x="257" y="461" type="line"/>
			<point x="432" y="461" type="line"/>
			<point x="444" y="517" type="line"/>
			<point x="271" y="517" type="line"/>
			<point x="285" y="571" type="line" smooth="yes"/>
			<point x="315" y="686"/>
			<point x="365" y="719"/>
			<point x="433" y="719" type="curve" smooth="yes"/>
			<point x="458" y="719"/>
			<point x="477" y="716"/>
			<point x="497" y="710" type="curve"/>
			<point x="517" y="766" type="line"/>
			<point x="496" y="772"/>
			<point x="473" y="776"/>
			<point x="443" y="776" type="curve" smooth="yes"/>
			<point x="349" y="776"/>
			<point x="258" y="732"/>
			<point x="220" y="573" type="curve"/>
		</contour>
	</outline>
</glyph>
<glyph name="f_f_l" format="2">
	<unicode hex="FB04"/>
	<advance width="934"/>
	<outline>
		<contour>
			<point x="791" y="231" type="line" smooth="yes"/>
			<point x="782" y="193"/>
			<point x="776" y="157"/>
			<point x="776" y="125" type="curve" smooth="yes"/>
			<point x="776" y="53"/>
			<point x="810" y="3"/>
			<point x="907" y="-9" type="curve"/>
			<point x="922" y="48" type="line"/>
			<point x="852" y="63"/>
			<point x="839" y="91"/>
			<point x="839" y="134" type="curve" smooth="yes"/>
			<point x="839" y="169"/>
			<point x="851" y="210"/>
			<point x="862" y="255" type="curve" smooth="yes"/>
			<point x="986" y="776" type="line"/>
			<point x="919" y="764" type="line"/>
		</contour>
		<contour>
			<point x="576" y="461" type="line"/>
			<point x="751" y="461" type="line"/>
			<point x="763" y="517" type="line"/>
			<point x="590" y="517" type="line"/>
			<point x="604" y="571" type="line" smooth="yes"/>
			<point x="634" y="686"/>
			<point x="684" y="719"/>
			<point x="752" y="719" type="curve" smooth="yes"/>
			<point x="777" y="719"/>
			<point x="796" y="716"/>
			<point x="816" y="710" type="curve"/>
			<point x="836" y="766" type="line"/>
			<point x="815" y="772"/>
			<point x="792" y="776"/>
			<point x="762" y="776" type="curve" smooth="yes"/>
			<point x="668" y="776"/>
			<point x="577" y="732"/>
			<point x="539" y="573" type="curve" smooth="yes"/>
			<point x="415" y="58" type="line" smooth="yes"/>
			<point x="393" y="-32"/>
			<point x="372" y="-90"/>
			<point x="305" y="-180" type="curve"/>
			<point x="362" y="-189" type="line"/>
			<point x="431" y="-110"/>
			<point x="459" y="-26"/>
			<point x="490" y="102" type="curve" smooth="yes"/>
		</contour>
		<contour>
			<point x="96" y="58" type="line" smooth="yes"/>
			<point x="74" y="-32"/>
			<point x="53" y="-90"/>
			<point x="-14" y="-180" type="curve"/>
			<point x="43" y="-189" type="line"/>
			<point x="112" y="-110"/>
			<point x="140" y="-26"/>
			<point x="171" y="102" type="curve" smooth="yes"/>
			<point x="257" y="461" type="line"/>
			<point x="432" y="461" type="line"/>
			<point x="444" y="517" type="line"/>
			<point x="271" y="517" type="line"/>
			<point x="285" y="571" type="line" smooth="yes"/>
			<point x="315" y="686"/>
			<point x="365" y="719"/>
			<point x="433" y="719" type="curve" smooth="yes"/>
			<point x="458" y="719"/>
			<point x="477" y="716"/>
			<point x="497" y="710" type="curve"/>
			<point x="517" y="766" type="line"/>
			<point x="496" y="772"/>
			<point x="473" y="776"/>
			<point x="443" y="776" type="curve" smooth="yes"/>
			<point x="349" y="776"/>
			<point x="258" y="732"/>
			<point x="220" y="573" type="curve" smooth="yes"/>
		</contour>
	</outline>
</glyph>
<glyph name="afii10066.locl" format="2">
	<advance width="525"/>
	<outline>
		<contour>
			<point x="98" y="189" type="curve" smooth="yes"/>
			<point x="98" y="80"/>
			<point x="154" y="-13"/>
			<point x="277" y="-13" type="curve" smooth="yes"/>
			<point x="407" y="-13"/>
			<point x="541" y="94"/>
			<point x="541" y="293" type="curve" smooth="yes"/>
			<point x="541" y="514"/>
			<point x="308" y="521"/>
			<point x="308" y="619" type="curve" smooth="yes"/>
			<point x="308" y="689"/>
			<point x="362" y="712"/>
			<point x="449" y="712" type="curve" smooth="yes"/>
			<point x="504" y="712"/>
			<point x="540" y="711"/>
			<point x="586" y="715" type="curve"/>
			<point x="597" y="776" type="line"/>
			<point x="568" y="771"/>
			<point x="519" y="771"/>
			<point x="455" y="771" type="curve" smooth="yes"/>
			<point x="362" y="771"/>
			<point x="244" y="738"/>
			<point x="244" y="613" type="curve" smooth="yes"/>
			<point x="244" y="572"/>
			<point x="271" y="528"/>
			<point x="318" y="497" type="curve" smooth="yes"/>
			<point x="320" y="495" type="line"/>
			<point x="167" y="437"/>
			<point x="98" y="304"/>
		</contour>
		<contour>
			<point x="477" y="287" type="curve" smooth="yes"/>
			<point x="477" y="131"/>
			<point x="379" y="47"/>
			<point x="284" y="47" type="curve" smooth="yes"/>
			<point x="205" y="47"/>
			<point x="162" y="108"/>
			<point x="162" y="193" type="curve" smooth="yes"/>
			<point x="162" y="293"/>
			<point x="229" y="415"/>
			<point x="372" y="461" type="curve"/>
			<point x="468" y="401"/>
			<point x="477" y="356"/>
		</contour>
	</outline>
</glyph>
<glyph name="afii10081.locl.ita" format="2">
	<advance width="522"/>
	<outline>
		<contour>
			<point x="595" y="647" type="line"/>
			<point x="608" y="704" type="line"/>
			<point x="222" y="704" type="line"/>
			<point x="209" y="647" type="line"/>
		</contour>
		<contour>
			<point x="248" y="-12" type="curve" smooth="yes"/>
			<point x="311" y="-12"/>
			<point x="364" y="8"/>
			<point x="410" y="53" type="curve"/>
			<point x="413" y="32"/>
			<point x="419" y="10"/>
			<point x="427" y="-6" type="curve"/>
			<point x="494" y="4" type="line"/>
			<point x="477" y="42"/>
			<point x="471" y="72"/>
			<point x="471" y="108" type="curve" smooth="yes"/>
			<point x="471" y="134"/>
			<point x="477" y="164"/>
			<point x="485" y="197" type="curve" smooth="yes"/>
			<point x="564" y="517" type="line"/>
			<point x="499" y="517" type="line"/>
			<point x="432" y="247" type="line" smooth="yes"/>
			<point x="423" y="210"/>
			<point x="409" y="158"/>
			<point x="409" y="122" type="curve"/>
			<point x="366" y="74"/>
			<point x="320" y="48"/>
			<point x="256" y="48" type="curve" smooth="yes"/>
			<point x="182" y="48"/>
			<point x="161" y="89"/>
			<point x="161" y="142" type="curve" smooth="yes"/>
			<point x="161" y="188"/>
			<point x="177" y="243"/>
			<point x="188" y="289" type="curve" smooth="yes"/>
			<point x="243" y="517" type="line"/>
			<point x="178" y="517" type="line"/>
			<point x="116" y="260" type="line" smooth="yes"/>
			<point x="105" y="216"/>
			<point x="98" y="172"/>
			<point x="98" y="133" type="curve" smooth="yes"/>
			<point x="98" y="50"/>
			<point x="133" y="-12"/>
		</contour>
	</outline>
	<guideline x="52" y="0" angle="103.5"/>
	<guideline x="439" y="0" angle="103.5"/>
</glyph>
<glyph name="caron.alt" format="2">
	<advance width="336"/>
	<outline>
		<contour>
			<point x="336" y="776" type="line"/>
			<point x="283" y="559" type="line"/>
			<point x="330" y="559" type="line"/>
			<point x="407" y="776" type="line"/>
		</contour>
	</outline>
</glyph>
<glyph name="dieresis_breve" format="2">
	<advance width="336"/>
	<outline>
		<contour>
			<point x="343" y="688" type="line"/>
			<point x="469" y="785" type="line"/>
			<point x="446" y="826" type="line"/>
			<point x="352" y="757" type="line"/>
			<point x="279" y="828" type="line"/>
			<point x="250" y="795" type="line"/>
		</contour>
		<contour>
			<point x="228" y="594" type="curve" smooth="yes"/>
			<point x="197" y="594"/>
			<point x="184" y="614"/>
			<point x="184" y="636" type="curve" smooth="yes"/>
			<point x="184" y="661"/>
			<point x="202" y="690"/>
			<point x="234" y="690" type="curve" smooth="yes"/>
			<point x="265" y="690"/>
			<point x="278" y="670"/>
			<point x="278" y="648" type="curve" smooth="yes"/>
			<point x="278" y="623"/>
			<point x="260" y="594"/>
		</contour>
		<contour>
			<point x="438" y="594" type="curve" smooth="yes"/>
			<point x="407" y="594"/>
			<point x="394" y="614"/>
			<point x="394" y="636" type="curve" smooth="yes"/>
			<point x="394" y="661"/>
			<point x="412" y="690"/>
			<point x="444" y="690" type="curve" smooth="yes"/>
			<point x="475" y="690"/>
			<point x="488" y="670"/>
			<point x="488" y="648" type="curve" smooth="yes"/>
			<point x="488" y="623"/>
			<point x="470" y="594"/>
		</contour>
	</outline>
	<guideline y="679"/>
	<guideline y="691"/>
	<guideline y="824"/>
	<guideline y="845"/>
</glyph>
<glyph name="revcommaaccent" format="2">
	<advance width="336"/>
	<outline>
		<contour>
			<point x="256" y="614" type="line"/>
			<point x="263" y="699"/>
			<point x="319" y="762"/>
			<point x="392" y="774" type="curve"/>
			<point x="413" y="739" type="line"/>
			<point x="364" y="715"/>
			<point x="342" y="693"/>
			<point x="325" y="614" type="curve"/>
		</contour>
	</outline>
	<guideline x="14" y="0" angle="103.5"/>
	<guideline x="104" y="0" angle="103.5"/>
</glyph>
<glyph name="tenge" format="2">
	<advance width="564"/>
	<outline>
		<contour>
			<point x="635" y="530" type="line"/>
			<point x="621" y="474" type="line"/>
			<point x="428" y="474" type="line"/>
			<point x="314" y="0" type="line"/>
			<point x="249" y="0" type="line"/>
			<point x="363" y="474" type="line"/>
			<point x="170" y="474" type="line"/>
			<point x="184" y="530" type="line"/>
		</contour>
		<contour>
			<point x="674" y="693" type="line"/>
			<point x="660" y="637" type="line"/>
			<point x="209" y="637" type="line"/>
			<point x="223" y="693" type="line"/>
		</contour>
	</outline>
	<guideline x="513" y="0" angle="103.5"/>
</glyph>
